<svg width="217" height="39" viewBox="0 0 217 39" fill="none" xmlns="http://www.w3.org/2000/svg">
<g opacity="0.2">
<path d="M198.7 173.388C198.862 172.923 198.862 172.575 199.023 172.227C210.148 147.723 206.762 123.8 192.896 100.457C182.415 82.9217 166.775 68.0569 147.266 55.2824C112.438 32.1723 71.484 17.6559 24.7252 12.3139C-9.4571 8.36541 -43.3169 9.52672 -76.5318 17.1914C-95.7191 21.6044 -113.294 27.9916 -128.611 37.3982C-144.251 46.921 -155.538 58.5341 -161.826 72.7021C-162.633 74.3279 -163.6 75.9538 -164.567 77.5796C-173.113 92.2122 -175.693 107.425 -172.952 123.103C-169.243 144.007 -157.634 162.472 -139.414 178.846C-137.963 180.24 -136.351 181.633 -135.061 183.143C-107.167 214.034 -68.3087 234.008 -18.8089 242.486C39.2366 252.357 94.0573 246.086 144.847 223.208C166.292 213.569 184.511 201.259 197.733 185.466C220.629 158.175 222.725 129.839 206.117 100.574C195.637 81.9926 179.513 66.3149 159.52 52.4953C127.595 30.5465 89.7039 15.7978 47.4597 7.08797C24.2415 2.32659 0.862095 -0.112169 -23.001 0.00396175C-37.6736 0.00396175 -52.3462 0.933012 -66.5351 4.30082C-74.1133 6.04279 -81.2077 8.48154 -87.1735 12.1977C-89.2696 13.4752 -91.0432 14.9849 -92.8168 16.3785C-93.7842 17.1914 -94.5904 18.2366 -93.1393 19.6301C-92.4943 19.3979 -91.6881 19.2817 -91.2044 18.9334C-82.9813 11.3848 -71.5335 7.78475 -59.1182 5.346C-44.9293 2.67498 -30.418 2.09432 -15.7454 2.67498C44.0737 5.11374 97.4432 19.9785 143.88 47.3855C166.937 61.089 185.318 77.5796 197.894 97.2058C207.407 112.187 211.922 127.748 210.148 144.123C209.181 153.878 205.633 163.168 200.151 171.994C199.99 172.343 199.668 172.691 199.345 172.923C199.345 173.156 199.023 173.156 198.7 173.388ZM-166.341 126.122C-164.406 127.981 -164.084 130.071 -164.729 132.161C-164.406 132.51 -163.761 132.742 -163.6 133.09C-162.955 134.6 -162.633 136.226 -162.149 137.852C-162.31 137.852 -162.471 137.852 -162.633 137.968C-163.278 135.994 -163.922 134.136 -164.729 132.161C-165.212 130.187 -165.696 128.097 -166.341 126.122C-166.341 124.961 -166.502 123.916 -166.664 122.871C-166.341 122.871 -166.18 122.871 -165.857 122.871C-166.019 124.032 -166.18 125.077 -166.341 126.122ZM-18.4864 19.1656C13.7611 19.2817 42.6225 23.8109 70.1941 32.2884C96.7983 40.4176 120.339 51.6824 139.849 67.1278C153.393 77.928 164.034 90.0057 170.484 103.825C175.966 115.555 177.901 127.516 175.16 139.826C172.257 153.065 163.712 164.33 150.813 173.969C127.756 191.156 102.119 206.021 73.9026 218.563C60.0362 224.602 45.6861 229.828 30.2073 233.195C26.6601 233.892 23.2741 234.473 19.5656 234.241C-1.87896 232.963 -22.6786 229.595 -42.8332 224.021C-75.5644 214.963 -104.265 201.492 -127.967 182.678C-130.063 181.053 -131.836 179.194 -133.449 177.336C-139.898 169.439 -145.058 161.194 -149.25 152.6C-159.247 132.045 -163.761 111.025 -160.536 89.3089C-159.569 82.2249 -156.828 75.7215 -151.507 69.6827C-141.027 57.605 -127.644 47.6178 -111.198 39.6047C-82.4976 25.4367 -50.5726 19.1656 -18.4864 19.1656ZM59.0688 23.6947C59.0688 23.5786 59.23 23.3463 59.23 23.2302C60.5199 23.4625 61.8098 23.8109 63.0997 24.0431C77.7723 27.7593 91.6387 32.4046 105.021 38.2111C134.205 50.9856 158.552 67.2439 176.45 88.1476C190.155 104.174 198.378 121.477 199.023 140.407C199.829 162.355 190.8 181.749 170.161 198.124C159.52 206.485 146.782 212.989 132.915 218.215C106.15 228.318 77.6111 233.195 47.6209 234.357C44.3962 234.473 41.3327 234.357 38.1079 234.357C38.7529 233.776 39.559 233.544 40.3652 233.312C46.976 231.453 53.7479 229.828 60.0362 227.737C99.2169 214.266 132.271 194.988 161.616 172.11C166.453 168.394 170 163.981 173.225 159.336C183.544 143.891 184.834 127.748 179.674 111.258C174.031 93.0251 161.616 77.3474 144.363 63.6439C122.596 46.1081 95.8309 33.9143 65.5183 25.4367C63.2609 24.856 61.1648 24.2754 59.0688 23.6947ZM-104.103 205.092C-103.942 204.859 -103.62 204.627 -103.458 204.395C-71.3722 221.698 -35.5775 232.731 4.08684 236.796C43.59 240.86 82.1257 238.189 119.694 228.086C111.955 231.221 103.893 233.544 95.5084 235.634C64.0671 243.299 31.8196 244.925 -1.07277 241.441C-32.9978 238.073 -61.8592 229.595 -87.496 215.311C-93.1393 212.06 -98.4601 208.46 -104.103 205.092ZM-167.147 119.038C-166.986 119.038 -166.986 119.038 -167.147 119.038C-166.986 119.503 -166.986 119.851 -166.986 120.316H-167.147C-167.147 119.968 -167.147 119.503 -167.147 119.038Z" fill="#F34ACE"/>
</g>
</svg>
