<svg width="80" height="128" viewBox="0 0 80 128" fill="none" xmlns="http://www.w3.org/2000/svg">
<path d="M13.7235 41.1619C20.176 41.3445 25.5961 42.8968 30.2419 46.5492C37.1245 51.8452 40.5659 59.0587 40.1357 68.1898C39.9636 71.6596 38.5871 74.6728 36.4363 77.2295C32.7368 81.7037 27.919 83.8952 22.3268 84.6257C21.8106 84.717 21.3805 84.717 20.8643 84.6257C15.2721 83.6213 9.76601 82.5255 4.77609 79.5123C-1.67639 75.4033 -5.03168 69.2855 -4.94565 61.2502C-4.77359 52.0278 2.02303 43.3533 10.2822 41.5271C11.6587 41.2532 13.0353 41.2532 13.7235 41.1619ZM14.3258 51.1147C13.1213 51.3886 11.8308 51.48 10.7124 51.9365C5.46435 54.2193 3.05543 61.6154 5.89452 66.8201C6.84088 68.6463 8.30344 70.016 10.0241 70.9291C13.2934 72.664 16.8207 73.7597 20.4341 74.125C22.1548 74.3076 24.0475 73.9423 25.6821 73.2119C29.6397 71.5683 31.2743 68.3724 30.4139 64.1721C29.6397 60.3371 27.833 57.0499 24.7358 54.7671C21.7246 52.5757 18.1972 51.48 14.3258 51.1147Z" fill="#FA5A5F"/>
<path d="M22.5016 19.248C26.0289 19.6133 29.6423 19.7046 33.1697 20.2525C41.3428 21.6221 47.9674 26.0963 52.9573 33.0359C59.4958 41.9844 63.0232 52.2111 63.3673 63.625C63.5394 68.0079 62.679 72.2082 61.0444 76.2258C59.4958 79.9695 57.6031 83.5307 55.1081 86.7265C46.7629 97.3186 36.611 104.806 23.448 106.724C14.5865 108.002 5.81118 107.454 -2.53403 104.167C-8.29825 101.793 -13.5463 98.4143 -18.1921 94.1227C-19.7406 92.6617 -21.0311 90.7442 -22.1496 88.8267C-25.1607 83.4393 -26.9674 77.5042 -28.6021 71.569C-29.1183 69.7428 -29.0322 67.6426 -29.0322 65.7251C-29.0322 53.4895 -24.9026 43.0801 -16.2993 34.7708C-6.49155 25.3659 4.95084 19.9785 18.372 19.522C19.7485 19.522 21.1251 19.522 22.5016 19.522C22.5016 19.4307 22.5016 19.3394 22.5016 19.248ZM22.3295 29.4748C11.0592 29.1096 1.07936 32.8533 -7.69602 40.2495C-11.3094 43.354 -14.4066 46.9151 -16.4714 51.4807C-21.2032 61.9814 -20.2568 72.1168 -14.7507 81.9784C-13.8904 83.5307 -12.5999 84.809 -11.2234 85.9047C-8.98651 87.7309 -6.66362 89.3745 -4.2547 90.9268C2.19779 95.1271 9.08043 97.5012 16.8234 97.1359C31.7932 96.4054 42.7194 88.8267 50.5484 75.7693C51.4947 74.217 52.183 72.5734 52.6992 70.8385C53.3014 68.921 53.7316 66.8208 53.8176 64.9033C53.8176 54.9505 50.7204 46.0933 44.8702 38.5146C41.0847 33.6751 36.1809 30.7532 30.1585 30.114C27.5775 29.7488 24.9105 29.6574 22.3295 29.4748Z" fill="#F34ACE"/>
<path d="M9.67776 128C2.53701 128 -3.39927 126.996 -9.07746 124.53C-12.7769 122.887 -16.1322 120.604 -19.0573 117.591C-23.0148 113.482 -27.1444 109.373 -31.188 105.355C-31.5321 104.99 -31.9623 104.716 -32.3064 104.351C-33.6829 102.981 -35.3176 101.703 -36.436 100.059C-42.2002 91.7497 -46.5879 82.71 -47.7063 72.2093C-48.6527 63.3522 -47.2761 54.8603 -44.0929 46.7337C-41.598 40.2506 -38.4147 34.2241 -34.1991 28.9281C-29.8975 23.5408 -24.9936 19.1579 -19.1433 15.7794C-12.1746 11.9443 -5.11993 8.29192 2.27891 5.36999C12.861 1.26101 23.8732 -0.382577 35.1435 0.0739754C39.2731 0.256596 43.2307 1.26101 46.844 3.36115C51.1457 5.82654 55.4474 8.38323 59.4049 11.3052C67.7501 17.3317 72.826 26.0975 76.0953 35.959C80.7411 50.0208 81.2573 64.4479 77.5579 78.875C76.7836 81.8882 75.7512 84.9015 74.4607 87.6408C68.4384 100.242 59.9211 110.377 47.8764 116.951C35.4877 123.708 22.4967 127.361 9.67776 128ZM9.5057 117.865C21.2922 117.134 33.0788 113.756 44.177 107.638C53.2105 102.616 59.663 94.9456 64.6529 85.7232C66.1155 82.9839 67.406 79.9707 68.1803 76.8661C71.5355 63.9 71.1054 50.9339 66.6317 38.3331C63.9646 30.8456 60.0931 24.18 53.6407 19.5231C50.1993 17.0577 46.4999 14.8663 42.8005 12.6748C39.9614 11.0312 36.8642 10.3008 33.681 10.2094C23.7872 10.0268 14.0654 11.4878 4.77387 15.2315C-1.76465 17.8795 -8.1311 21.1667 -14.3255 24.6365C-19.1433 27.3758 -23.1869 30.9369 -26.7142 35.3198C-30.2416 39.7027 -32.8226 44.6335 -34.9734 49.9295C-38.2427 57.9648 -39.3611 66.1828 -37.6404 74.766C-36.8661 78.601 -35.8337 82.1621 -32.9086 84.9928C-31.5321 86.3624 -30.4997 88.1886 -29.4673 89.8322C-28.5209 91.2932 -27.6606 92.7542 -26.8863 94.3064C-25.5958 96.6805 -23.9612 98.6893 -22.0685 100.516C-19.0573 103.437 -15.9601 106.451 -13.121 109.555C-10.1099 112.751 -6.5825 114.851 -2.62498 116.13C1.16048 117.408 4.94594 117.865 9.5057 117.865Z" fill="#F3AF4A"/>
</svg>
