<svg width="120" height="120" viewBox="0 0 120 120" fill="none" xmlns="http://www.w3.org/2000/svg">
<g opacity="0.2">
<path d="M9.36047 140.395C9.27799 140.019 9.27799 139.737 9.19552 139.455C3.50479 119.614 5.23675 100.243 12.3295 81.3421C17.6904 67.143 25.6904 55.1068 35.6698 44.7631C53.4842 26.0504 74.4327 14.2963 98.3503 9.97075C115.835 6.77361 133.154 7.71394 150.144 13.9201C159.959 17.4934 168.948 22.6653 176.783 30.282C184.783 37.9927 190.557 47.396 193.773 58.8681C194.185 60.1846 194.68 61.501 195.175 62.8175C199.546 74.6657 200.866 86.9841 199.464 99.6786C197.567 116.605 191.629 131.556 182.309 144.815C181.567 145.943 180.742 147.071 180.082 148.294C165.814 173.307 145.938 189.48 120.618 196.345C90.9276 204.338 62.8863 199.26 36.9069 180.735C25.9378 172.931 16.6182 162.963 9.85531 150.175C-1.85604 128.077 -2.92821 105.133 5.56665 81.4361C10.9275 66.3908 19.1749 53.6963 29.4017 42.5063C45.7316 24.734 65.1131 12.7917 86.7214 5.73924C98.5977 1.88388 110.556 -0.0908255 122.763 0.00320789C130.268 0.00320789 137.773 0.755475 145.031 3.48244C148.907 4.89294 152.536 6.86764 155.587 9.87671C156.66 10.9111 157.567 12.1335 158.474 13.2619C158.969 13.9201 159.381 14.7664 158.639 15.8948C158.309 15.7068 157.897 15.6127 157.649 15.3306C153.443 9.21848 147.587 6.30344 141.237 4.32874C133.979 2.16598 126.556 1.69581 119.051 2.16598C88.4534 4.14068 61.1544 16.1769 37.4017 38.3688C25.6079 49.4648 16.2058 62.8175 9.77284 78.7091C4.90685 90.8394 2.59757 103.44 3.50479 116.699C3.99964 124.597 5.81407 132.12 8.6182 139.267C8.70067 139.549 8.86562 139.831 9.03057 140.019C9.03057 140.207 9.19552 140.207 9.36047 140.395ZM196.082 102.123C195.093 103.628 194.928 105.321 195.258 107.013C195.093 107.295 194.763 107.483 194.68 107.765C194.35 108.988 194.185 110.304 193.938 111.621C194.02 111.621 194.103 111.621 194.185 111.715C194.515 110.116 194.845 108.612 195.258 107.013C195.505 105.415 195.752 103.722 196.082 102.123C196.082 101.183 196.165 100.337 196.247 99.4905C196.082 99.4905 196 99.4905 195.835 99.4905C195.917 100.431 196 101.277 196.082 102.123ZM120.453 15.5187C103.959 15.6127 89.1956 19.2801 75.0925 26.1445C61.4842 32.7268 49.443 41.8481 39.4636 54.3545C32.5358 63.0996 27.0924 72.8791 23.7935 84.069C20.9893 93.5664 19.9997 103.252 21.4017 113.219C22.8863 123.939 27.2574 133.06 33.8553 140.865C45.6492 154.782 58.7626 166.818 73.1956 176.974C80.2884 181.864 87.6286 186.095 95.5461 188.822C97.3606 189.386 99.0925 189.857 100.989 189.669C111.959 188.634 122.598 185.907 132.907 181.394C149.649 174.059 164.33 163.151 176.453 147.918C177.526 146.601 178.433 145.097 179.258 143.592C182.557 137.198 185.196 130.522 187.34 123.563C192.453 106.919 194.763 89.8991 193.113 72.3149C192.618 66.5788 191.216 61.313 188.495 56.4232C183.134 46.6438 176.289 38.5569 167.876 32.0686C153.196 20.5965 136.866 15.5187 120.453 15.5187ZM80.7832 19.186C80.7832 19.092 80.7008 18.9039 80.7008 18.8099C80.041 18.998 79.3812 19.2801 78.7214 19.4681C71.2162 22.4772 64.1234 26.2385 57.2781 30.9402C42.3502 41.2839 29.8966 54.4485 20.7419 71.3745C13.7316 84.3512 9.52542 98.3621 9.19552 113.69C8.78315 131.462 13.4017 147.165 23.9584 160.424C29.4017 167.195 35.9172 172.46 43.01 176.692C56.7007 184.873 71.2987 188.822 86.6389 189.763C88.2884 189.857 89.8554 189.763 91.5049 189.763C91.175 189.292 90.7626 189.104 90.3503 188.916C86.9688 187.412 83.5049 186.095 80.2884 184.403C60.2471 173.495 43.3399 157.885 28.3296 139.361C25.8553 136.352 24.0409 132.778 22.3914 129.017C17.1131 116.511 16.4533 103.44 19.0924 90.0872C21.979 75.324 28.3296 62.6294 37.1543 51.5335C48.2884 37.3345 61.9791 27.461 77.4843 20.5965C78.6389 20.1264 79.7111 19.6562 80.7832 19.186ZM164.247 166.066C164.165 165.878 164 165.69 163.917 165.502C147.505 179.513 129.196 188.446 108.907 191.737C88.7008 195.028 68.9894 192.866 49.7729 184.685C53.7317 187.224 57.8554 189.104 62.144 190.797C78.2265 197.003 94.7214 198.32 111.546 195.499C127.876 192.772 142.639 185.907 155.752 174.341C158.639 171.708 161.361 168.793 164.247 166.066ZM196.495 96.3874C196.412 96.3874 196.412 96.3874 196.495 96.3874C196.412 96.7636 196.412 97.0456 196.412 97.4218H196.495C196.495 97.1397 196.495 96.7636 196.495 96.3874Z" fill="#F34ACE"/>
</g>
</svg>
