<svg width="42" height="170" viewBox="0 0 42 170" fill="none" xmlns="http://www.w3.org/2000/svg">
<path fill-rule="evenodd" clip-rule="evenodd" d="M4.42066 53.8677C4.34711 53.5911 4.20658 53.4421 3.9473 53.4924C3.50106 53.5787 3.25124 53.8545 3.22576 54.3177C3.21179 54.5716 3.36054 54.6207 3.57092 54.5832C4.00319 54.506 4.20371 54.167 4.42066 53.8677ZM2.13801 135.426C2.5789 134.181 2.86448 132.896 3.23511 131.633C2.50864 132.79 2.11541 134.048 2.13801 135.426ZM5.40552 51.2846C7.24471 49.2922 9.16403 47.3787 11.1133 45.4949C8.7445 46.9642 6.91476 48.9656 5.40552 51.2846ZM41.6527 31.5656C45.4498 29.8399 48.608 27.2547 51.6224 24.4688C48.4778 26.8427 45.3373 29.219 41.9802 31.289C41.8602 31.3633 41.7616 31.4727 41.6527 31.5656ZM85.0796 127.444C83.9759 131.233 81.785 134.445 80.6821 138.123C82.0693 137.14 85.6512 128.678 85.0796 127.444ZM40.5425 165.109C41.2829 165.109 42.0304 165.174 42.763 165.098C45.7651 164.788 48.7276 164.215 51.6898 163.652C56.0848 162.816 60.1388 160.939 64.2979 159.399C66.2168 158.689 68.0523 157.719 69.3524 156.009C73.6488 150.357 77.1077 144.272 79.5633 137.556C81.5233 132.196 84.0733 127.057 86.1681 121.742C87.6638 117.949 88.6183 113.975 89.0461 109.896C89.4023 106.499 89.2022 103.091 89.2264 99.6863C89.2462 96.8864 89.1969 94.0886 89.3723 91.2796C89.4956 89.3013 89.0539 87.2403 88.885 85.2137C88.5871 81.6451 88.6409 78.1206 89.7203 74.659C90.7164 71.4652 92.0666 68.4242 93.7431 65.5512C97.1367 59.7343 101.391 54.5523 105.853 49.549C108.25 46.8622 110.601 44.149 112.582 41.1374C116.229 35.5958 117.979 29.4754 117.828 22.8484C117.71 17.6676 115.451 13.6453 111.003 10.9123C103.271 6.16213 95.1068 4.64204 86.3431 7.53483C79.5559 9.77533 73.5128 13.3353 67.9845 17.8567C64.5366 20.6769 61.3887 23.8339 57.9503 26.6623C53.2673 30.5153 48.5095 34.2536 42.9939 36.8735C38.7255 38.9014 34.2389 40.3278 29.7264 41.6687C25.8742 42.8135 22.2007 44.3588 18.7302 46.3871C14.7248 48.7279 11.3423 51.7226 9.00094 55.8028C8.72276 56.2887 8.71208 56.2825 8.07847 56.2957C7.88617 56.2998 7.87425 56.4604 7.80974 56.5892C7.22379 57.7638 6.84125 58.9891 6.82563 60.3172C6.81495 61.2143 7.15969 62.4974 6.85398 62.9293C5.87234 64.3148 6.61155 65.6569 6.79235 66.8244C7.01711 68.2727 7.39473 69.7754 7.83645 71.2266C8.94465 74.8695 10.218 78.4472 12.0239 81.7937C13.6799 84.8636 15.284 87.9608 15.7619 91.4377C15.9 92.4455 17.1088 93.5961 15.8186 94.6723C15.8182 94.6727 15.909 94.7731 15.9476 94.8329C16.6326 95.8935 16.9786 97.0908 17.0308 98.3206C17.0813 99.4956 17.4992 100.594 17.5493 101.755C17.6303 103.629 18.3222 105.451 17.9224 107.376C17.7408 108.252 17.7831 109.182 17.7815 110.087C17.7778 112.102 17.0982 114.022 16.993 116.042C16.9535 116.799 16.2957 117.761 15.9332 118.627C14.634 121.733 12.3292 124.099 10.3072 126.691C8.40472 129.129 6.26722 131.519 6.06711 134.861C5.98657 136.21 5.58718 137.633 6.27954 138.898C8.14216 142.299 9.12174 146.154 11.6771 149.203C13.6659 151.576 15.0013 154.451 17.4244 156.512C19.7941 158.529 22.0565 160.7 24.7939 162.189C26.1376 162.92 27.5001 163.669 29.0776 164.018C32.8677 164.859 36.6805 165.162 40.5425 165.109ZM71.9098 8.17273C72.119 8.10915 72.3454 8.07736 72.5348 7.97622C77.2663 5.44797 82.1975 3.44568 87.4275 2.21623C87.6165 2.17165 87.8758 2.17825 87.988 1.88637C87.6342 1.93715 87.3018 1.97678 86.9722 2.03417C82.6298 2.79297 78.6046 4.45797 74.6949 6.42971C73.7219 6.92058 72.6568 7.30163 71.9296 8.19585C70.7638 8.27759 70.0521 9.26594 69.0434 9.67259C68.8667 9.7436 68.676 10.0664 68.9456 10.3406C69.0352 10.4314 69.1588 10.49 69.2143 10.3831C69.8015 9.25809 71.2257 9.17016 71.9098 8.17273ZM58.6921 25.2856C60.0456 24.4397 61.1225 23.2842 62.1975 22.1274C61.0399 23.1913 59.6412 23.9893 58.7138 25.3088C57.7256 25.6605 57.0941 26.4668 56.3885 27.1777C57.2851 26.7079 58.0548 26.0787 58.6921 25.2856ZM88.5588 133.464C87.7731 135.623 87.0208 137.77 85.4306 139.548C84.4695 140.622 83.7031 141.916 83.0691 143.218C82.8394 143.692 82.4174 143.834 82.1771 144.257C81.6162 145.244 81.4103 146.359 80.6921 147.318C79.0731 149.48 77.4751 151.651 75.7851 153.762C74.6699 155.155 73.6262 156.619 72.4675 157.979C70.3082 160.513 67.5523 162.213 64.4931 163.423C60.9581 164.821 57.4565 166.338 53.843 167.498C47.1091 169.659 40.236 170.529 33.1229 169.677C28.8376 169.163 24.6641 168.35 20.9915 166.151C15.1181 162.634 10.276 157.95 6.85608 151.908C6.72787 151.682 6.5631 151.476 6.40902 151.266C5.01113 149.355 3.74925 147.382 3.10743 145.056C2.78939 143.905 2.31973 142.8 1.80117 141.714C0.263173 138.495 0.55861 135.252 1.80076 132.022C3.05113 128.771 5.13933 126.012 7.47366 123.565C10.5928 120.295 12.0564 116.503 12.5224 112.12C12.9559 108.044 12.2438 104.096 11.521 100.133C11.0777 97.7013 10.6812 95.2597 10.2049 92.8347C9.43653 88.9255 7.64665 85.4411 5.80869 81.948C3.41601 77.3997 1.58709 72.6116 0.481361 67.5625C-0.443988 63.3375 0.0121122 59.1888 1.4441 55.2053C2.26919 52.9103 3.34164 50.6578 5.07975 48.7988C6.77184 46.9885 8.47913 45.2157 10.4971 43.77C15.3469 40.2942 20.6936 37.856 26.3624 36.0812C32.8345 34.0549 39.1377 31.6576 44.6676 27.5758C48.7651 24.5513 52.6637 21.2874 56.4082 17.8343C61.5071 13.1325 66.8476 8.75552 73.0193 5.51841C79.002 2.38081 85.2506 -0.0615696 92.0892 0.00118251C102.382 0.0957235 111.195 3.75021 117.439 12.2564C122.055 18.5481 122.804 25.7576 121.295 33.2846C121.023 34.6437 120.747 36.0023 120.431 37.3515C119.619 40.8173 118.216 44.004 116.155 46.927C114.954 48.6304 113.659 50.2615 112.457 51.9467C111.046 53.9247 109.474 55.737 107.85 57.504C105.969 59.5505 104.302 61.7464 102.718 64.0199C102.167 64.8117 101.292 65.2923 100.758 66.1444C98.7401 69.3666 96.642 72.541 95.2014 76.0852C94.4236 77.9984 93.6305 79.864 93.4772 82.0199C93.384 83.3418 93.4641 84.6592 93.3495 85.9728C93.1777 87.9404 93.5155 89.8796 93.8269 91.8026C93.9465 92.5407 93.0557 93.1381 93.2476 93.1897C94.2859 93.4668 93.5557 94.053 93.5771 94.479C93.5894 94.7309 93.4304 95.0075 93.4871 95.2387C94.4511 99.1685 94.0344 103.182 94.1166 107.151C94.193 110.836 94.5135 114.59 93.522 118.202C93.16 119.519 92.8962 120.871 92.5145 122.188C92.0564 123.767 91.2111 125.248 91.0702 126.896C90.8717 129.216 89.7044 131.161 88.8636 133.236C88.8176 133.35 88.6471 133.413 88.5329 133.504C88.6405 132.268 89.6477 131.347 89.683 130.076C88.8201 131.919 87.7427 133.664 87.2957 135.696C87.7168 134.952 88.1376 134.208 88.5588 133.464Z" fill="#F3AF4A"/>
<path fill-rule="evenodd" clip-rule="evenodd" d="M50.6505 43.3285C53.0613 41.9071 55.0159 39.9593 56.8457 37.8687C54.7883 39.698 52.7658 41.5665 50.6505 43.3285ZM64.5857 31.1634C64.5056 31.0775 64.4255 30.9916 64.3454 30.9058C62.2329 32.8449 59.9446 34.5863 58.1104 36.8383L64.5857 31.1634ZM16.0235 133.913C14.7855 135.148 14.2217 138.977 15.0341 139.766C15.2658 137.826 15.272 135.814 16.0235 133.913ZM25.3957 56.7723C22.4911 58.7503 19.8987 61.0192 18.6438 64.4723C20.6412 61.6802 22.8354 59.0677 25.3957 56.7723ZM68.5521 27.6454C73.4086 23.8233 78.5013 20.4306 84.1996 18.0229C80.4666 18.5195 70.1119 25.3946 68.5521 27.6454ZM66.8441 118.807C65.6837 121.135 64.9646 123.629 64.2813 126.118C63.5823 128.662 62.6389 131.119 61.8204 133.617C61.0467 135.978 59.9286 138.226 58.9622 140.524C63.0983 133.822 64.6408 126.2 66.8441 118.807ZM25.2934 81.4254C25.3127 81.2822 25.2811 81.0757 25.3624 81.0093C25.5095 80.8887 25.5856 81.0724 25.6834 81.181C25.9603 81.4865 25.8309 81.9477 26.2105 82.2536C26.9111 82.8171 27.3931 83.5264 27.742 84.4222C28.0395 85.186 28.8514 85.7413 29.4049 86.4142C29.5286 86.5641 29.6835 86.8176 29.524 87.0306C29.2278 87.4257 29.4653 87.5553 29.7915 87.6482C30.1946 87.7621 30.4079 88.0685 30.5447 88.4215C31.0386 89.693 31.6961 90.9006 31.8432 92.3014C31.9381 93.2051 32.0831 94.2851 32.4164 94.9444C33.3442 96.7815 33.3779 98.7186 33.2899 100.559C33.2102 102.225 32.8914 103.932 32.9678 105.601C33.0335 107.043 32.3116 108.218 32.1107 109.561C31.8674 111.187 30.7457 112.606 30.5246 114.296C30.3882 115.333 29.2976 116.122 29.3071 116.944C29.3285 118.844 27.6532 119.867 27.3574 121.581C27.2633 122.126 27.041 122.942 26.5693 123.46C25.5999 124.525 25.3164 125.998 24.3126 127.058C23.0487 128.393 22.3924 130.181 21.0447 131.506C20.2352 132.302 19.6024 133.329 18.894 134.246C18.2522 135.075 18.3097 136.36 18.0977 137.456C17.7904 139.043 18.6964 140.279 19.1052 141.672C20.0824 145.002 22.1188 147.755 24.5028 149.976C29.1588 154.314 34.7351 155.74 40.9352 153.469C41.5647 153.239 42.1933 153.007 42.8282 152.793C46.5509 151.537 49.7671 149.461 52.7543 146.913C56.6636 143.579 58.5147 138.93 60.6806 134.529C61.4383 132.99 61.7329 131.103 62.3049 129.394C62.6965 128.224 63.1181 127.055 63.3876 125.854C63.6592 124.643 64.0294 123.467 64.3902 122.287C64.7502 121.108 65.2572 119.97 65.5424 118.776C65.7963 117.714 66.3161 116.766 66.5351 115.665C66.8277 114.194 67.3055 112.728 67.7033 111.26C69.1332 105.978 70.2028 100.628 70.8471 95.19C71.2042 92.1763 71.4643 89.134 72.0856 86.1715C74.0924 76.5964 78.4808 68.1364 84.5252 60.5331C87.2268 57.135 90.0929 53.8677 92.9211 50.5728C96.9709 45.8553 99.1684 40.2402 100.824 34.3498C101.854 30.6874 101.675 27.0693 100.337 23.5349C99.5744 21.5207 98.4379 19.8388 96.0398 19.4412C93.807 19.0709 91.6284 19.6022 89.5172 19.9944C88.2619 20.2281 86.8944 20.8279 85.6346 21.4402C82.6124 22.9095 79.5471 24.297 76.9194 26.4356C76.2936 26.9442 75.5145 27.0123 74.8891 27.5205C74.0887 28.1707 73.5295 29.0489 72.6563 29.633C72.155 29.9679 71.5543 30.0005 71.092 30.4298C68.1606 33.1505 64.8471 35.4388 62.2013 38.4889C61.283 39.5483 60.1485 40.4157 59.1479 41.4065C55.3911 45.125 51.0191 47.9071 46.094 49.7249C40.0563 51.9534 34.4216 54.9407 29.1505 58.5907C27.1351 59.9861 24.9762 61.3022 23.5311 63.4238C22.6932 64.6545 21.6158 65.9091 21.4852 67.319C21.2912 69.4043 21.08 71.582 21.7868 73.6594C21.9573 74.1606 21.6532 74.8592 21.7593 75.0305C22.1681 75.6881 22.4146 76.4321 22.8576 77.0629C23.8142 78.4265 25.1332 79.592 25.2934 81.4254ZM24.147 121.641C24.465 121.52 24.5439 121.201 24.6536 120.945C25.6981 118.515 26.8273 116.115 27.5262 113.552C27.9351 112.052 28.6525 110.623 28.6291 109.015C27.9071 111.859 26.649 114.511 25.7553 117.291C25.2811 118.767 24.3939 120.093 24.1708 121.663C22.8942 123.355 22.2675 125.387 21.2354 127.207C22.3271 125.414 23.6104 123.721 24.147 121.641ZM71.5357 114.88C71.4914 114.606 71.5341 114.363 71.2625 114.226C71.2144 114.647 70.8771 115.049 71.4318 115.418C71.7543 115.632 71.4511 115.981 71.3685 116.24C70.6252 118.572 69.9024 120.913 69.1846 123.249C68.5016 125.473 67.686 127.666 67.174 129.943C66.9172 131.086 66.3654 132.114 65.9475 133.192C65.7552 133.688 65.5933 134.16 65.5933 134.699C65.5929 135.794 65.5173 135.822 64.5097 135.247C64.4255 135.199 64.2981 135.228 64.1621 135.219C64.1621 135.341 64.1247 135.461 64.1675 135.534C64.8101 136.605 64.6741 137.89 63.9193 138.923C63.4213 139.604 62.968 140.293 62.7527 141.188C62.4294 142.535 61.5102 143.596 60.4426 144.481C60.3457 144.562 60.125 144.525 60.1147 144.712C60.0548 145.823 59.1652 146.355 58.4942 147.017C57.8536 147.648 57.0638 148.109 56.4618 148.802C55.4317 149.99 54.273 150.973 52.8611 151.763C52.2094 152.128 51.5475 152.821 50.8218 153.107C48.1407 154.163 45.5117 155.345 42.7961 156.329C38.2076 157.992 33.6901 157.504 29.1361 156.394C26.457 155.741 24.0352 154.537 21.8213 152.883C20.9748 152.25 20.2898 151.48 19.5942 150.699C16.9361 147.714 15.0726 144.298 14.1366 140.414C13.5371 137.926 13.9151 135.494 15.1552 133.255C15.4815 132.666 15.7325 131.893 16.8333 132.027C17.3129 132.085 17.7887 131.189 18.1605 130.62C20.7899 126.598 22.9278 122.327 24.6495 117.839C26.462 113.115 28.0435 108.342 28.6541 103.271C29.0975 99.5902 28.6024 96.0599 27.7095 92.5078C26.9945 89.6629 25.5169 87.2845 23.8297 84.9685C22.5654 83.2333 21.4346 81.4007 20.1863 79.6531C19.7437 79.0339 20.3022 78.6388 20.4332 77.8424C19.7499 78.7759 19.6377 78.5884 19.3468 77.8205C19.0559 77.0531 18.5225 76.3364 18.1014 75.5924C17.2007 73.9997 16.6858 72.2633 16.6686 70.474C16.662 69.7953 16.309 69.2289 16.4002 68.5865C16.5149 67.7765 16.5712 66.9458 16.7992 66.1668C17.2019 64.7891 17.4546 63.3368 18.795 62.4013C19.1652 62.1428 18.9454 61.3411 19.3661 60.8874C21.1667 58.9449 22.8621 56.875 25.1138 55.4345C30.4711 52.0071 36.0824 49.0879 41.9603 46.6282C46.0529 44.9153 49.9602 42.7516 53.1857 39.5694C57.9325 34.8869 62.9253 30.4794 68.062 26.2383C72.9316 22.218 78.1492 18.7679 84.1327 16.6091C86.645 15.7029 89.2209 15.165 91.8831 14.9805C95.6831 14.7171 98.5286 16.4547 100.736 19.3409C104.976 24.8842 105.971 31.1226 104.34 37.8313C103.243 42.3433 101.628 46.6699 99.35 50.7199C98.2804 52.6206 97.2614 54.5444 95.4974 55.9906C94.6559 56.6805 94.2051 57.8455 93.5584 58.7819C91.3465 61.9831 88.5639 64.728 86.3623 67.9486C85.3819 69.3824 84.5531 70.8951 83.629 72.3549C81.6123 75.5408 80.2353 79.057 78.7191 82.4857C77.3886 85.494 76.9074 88.7815 76.4279 92.0397C75.9118 95.5501 75.3653 99.0572 74.7703 102.555C74.4268 104.575 74.1873 106.661 73.4719 108.554C72.9751 109.87 72.9566 111.27 72.3621 112.545C72.0206 113.276 72.3875 114.278 71.5357 114.88Z" fill="#F3AF4A"/>
<path fill-rule="evenodd" clip-rule="evenodd" d="M59.1578 100.481C59.2696 100.54 59.3818 100.599 59.4935 100.658C59.8527 99.7008 60.8733 99.02 60.4037 97.7125C59.9883 98.6352 59.5733 99.5579 59.1578 100.481ZM37.759 64.4762C35.4288 64.9158 33.039 67.1204 33.2818 68.6141C34.4102 66.7629 36.0456 65.5768 37.759 64.4762ZM57.5041 50.3259C57.4359 50.2346 57.3672 50.1438 57.299 50.0534C54.1943 52.7571 51.0891 55.4612 47.9847 58.1653C48.0505 58.2426 48.1166 58.3198 48.1828 58.3974L57.5041 50.3259ZM66.4673 41.7225C69.3859 39.5571 72.3855 37.5173 75.6094 35.8205C78.8683 34.1051 82.1649 32.474 85.508 30.9527C78.7158 33.7398 72.0042 36.6771 66.4673 41.7225ZM45.4958 129.284C46.2811 127.998 47.234 126.864 47.8746 125.458C49.3246 122.277 51.0077 119.201 52.3875 115.98C54.444 111.181 56.6082 106.433 59.1456 101.866C59.3042 101.58 59.4517 101.292 59.0305 100.877C53.9838 110.169 50.3958 120.045 45.4958 129.284ZM66.7621 46.6798C65.4464 47.2714 64.7959 48.55 63.8517 49.5255C62.6116 50.2497 61.9258 51.5538 60.8221 52.4286C58.9192 53.9368 56.9658 55.3966 55.1858 57.043C51.502 60.451 47.4345 63.2344 42.9241 65.4249C41.2496 66.2386 39.2962 66.4125 37.8655 67.8194C36.9903 68.6798 35.9264 69.3754 35.8475 70.7229C35.7304 72.7195 36.0411 74.6487 36.9985 76.4433C38.7686 79.7609 41.1531 82.6611 43.2372 85.7653C45.403 88.9912 47.3384 92.2738 47.8315 96.2911C48.3023 100.134 48.0188 103.943 47.7941 107.758C47.7485 108.531 47.2278 109.268 47.1995 110.163C47.1605 111.413 47.1477 112.803 46.3576 113.827C44.9321 115.676 44.4596 117.931 43.5265 119.983C43.2207 120.655 43.4081 121.647 42.8201 122.162C42.0353 122.849 41.8241 123.754 41.4485 124.618C41.3022 124.956 41.0988 125.295 40.8412 125.552C39.9911 126.401 39.4557 127.522 38.8635 128.491C37.7011 130.394 36.4072 132.078 34.7743 133.571C34.3038 134.002 33.5605 133.949 33.2778 134.621C32.9951 135.291 32.4753 135.787 31.9304 136.249C31.3741 136.72 31.0897 137.338 30.8687 138.06C31.2767 138.177 31.5401 138.01 31.8088 137.911C33.4992 137.289 34.9448 136.192 36.5773 135.446C39.4409 134.137 41.8566 132.238 43.7693 129.7C45.2005 127.801 46.1718 125.652 47.1962 123.533C49.2261 119.332 51.2888 115.144 53.1925 110.886C54.2588 108.5 55.3678 106.138 56.5479 103.812C58.5087 99.9481 60.2559 95.9848 61.9586 92.0062C63.3224 88.8199 64.4512 85.5349 65.19 82.129C65.8343 79.1553 66.9577 76.3368 68.056 73.5134C70.1471 68.1373 72.2743 62.7827 75.7218 58.0813C78.8191 53.8571 81.9564 49.6614 84.7554 45.2233C86.8444 41.9106 88.6577 38.482 89.5477 34.6306C89.6431 34.2173 89.948 33.6752 89.5983 33.3714C89.302 33.1138 88.8188 33.4523 88.4445 33.6009C84.5196 35.1615 80.7413 37.0197 77.0855 39.1454C76.4252 39.5294 75.8385 40.3976 74.828 39.9732C74.6855 39.9133 74.3876 40.1144 74.4743 40.2865C74.7804 40.895 74.1862 40.8876 73.9586 41.0387C72.5208 41.9936 71.1016 42.9716 69.6992 43.9794C68.6021 44.7675 67.8399 45.8909 66.7621 46.6798ZM37.7911 124.541C38.1079 124.518 38.1987 124.26 38.315 124.031C39.786 121.131 40.8769 118.062 42.2128 115.102C42.8534 113.682 42.6343 111.977 43.7105 110.714C43.8946 110.498 43.8366 110.285 43.5798 110.174C43.2429 110.029 43.0617 110.255 43.0239 110.531C42.8776 111.61 42.3648 112.556 42.0085 113.561C41.0906 116.148 40.3041 118.772 39.0759 121.254C38.5656 122.285 37.9998 123.371 37.8169 124.565C36.9093 125.774 36.2613 127.119 35.7546 128.539C36.3903 127.184 37.6094 126.13 37.7911 124.541ZM77.6587 61.6573C78.0573 62.3352 77.9221 62.7608 77.6542 63.4172C77.0013 65.0178 75.6679 66.2753 75.416 68.0609C75.3264 68.6983 74.8338 69.1797 74.5322 69.716C73.7642 71.0808 73.6167 72.669 72.9259 73.9988C72.2706 75.2605 71.9895 76.6422 71.3214 77.8758C70.9664 78.5306 71.0913 79.346 70.629 79.9809C70.3171 80.4086 69.5463 83.071 69.4567 83.5834C69.2319 84.8739 68.9706 86.1583 68.7113 87.4426C68.667 87.6631 68.5683 87.8897 68.2696 87.8423C67.9614 87.7935 67.8123 87.9343 67.9306 88.2093C68.3736 89.2397 67.8447 90.1628 67.4507 90.972C66.3047 93.3236 65.3095 95.7408 64.3032 98.1481C64.1039 98.6253 63.1781 98.4957 63.5081 99.4464C63.6745 99.9266 63.1366 100.758 62.7644 101.379C62.402 101.985 62.1583 102.662 61.83 103.29C59.4118 107.922 57.1897 112.645 55.0842 117.43C53.9164 120.084 52.5227 122.636 51.2924 125.263C50.9818 125.927 50.7784 126.672 50.5697 127.382C50.3778 128.035 50.0963 128.97 49.3033 129.38C49.1562 129.456 49.0645 129.523 49.0164 129.675C48.0467 132.743 45.4416 134.348 43.1184 136.145C41.4551 137.432 39.4264 138.192 37.5392 139.081C36.3714 139.631 35.2973 140.506 33.9368 140.699C32.573 140.893 31.2183 141.141 29.8356 141.169C28.4944 141.196 27.2543 140.881 26.1437 140.106C25.5618 139.701 25.4735 139.185 25.7274 138.534C26.3565 136.92 27.3053 135.568 28.7664 134.608C29.3261 134.24 29.9244 133.921 30.297 133.32C30.5629 132.891 31.0132 133.431 31.5071 132.943C33.2547 131.216 34.3432 129.116 35.4641 127.005C37.7857 122.633 39.514 118.01 41.1781 113.361C41.898 111.35 42.2727 109.252 42.6002 107.143C42.8073 105.812 42.9466 104.48 43.0354 103.137C43.0761 102.515 43.3255 102.003 44.086 102.382C44.5397 102.608 44.6794 102.277 44.8922 102.042C45.0434 101.876 45.0126 101.685 44.8672 101.545C44.6017 101.289 44.3712 101.555 44.1637 101.657C43.3123 102.073 43.0341 101.825 43.0773 100.889C43.1973 98.3115 43.2622 95.7329 42.5957 93.1989C42.2641 91.936 41.7986 90.7243 41.1917 89.5799C39.4178 86.233 37.1266 83.2164 35.1005 80.0296C33.6184 77.6971 32.0939 75.3649 31.7824 72.5179C31.7097 71.8553 31.1862 71.0478 32.0984 70.5099C32.149 70.4806 32.1933 70.3864 32.1892 70.3262C32.0126 67.7219 32.0927 67.6567 33.8542 65.8315C34.9973 64.6471 36.3915 63.8231 37.812 63.167C43.0387 60.7523 47.4431 57.239 51.7547 53.4793C57.0031 48.9021 61.7848 43.7952 67.2374 39.4773C73.2111 34.7478 80.044 31.507 87.2968 29.2681C91.1251 28.0865 93.9616 30.957 93.1271 34.9488C92.2938 38.9344 90.7894 42.6649 88.7912 46.2141C86.4972 50.288 83.8686 54.1477 81.3252 58.0581C80.6275 59.1311 80.0358 60.2949 79.1848 61.2849C78.7435 61.7981 78.416 62.2489 77.6587 61.6573Z" fill="#F3AF4A"/>
</svg>
