<svg width="40" height="40" viewBox="0 0 40 40" fill="none" xmlns="http://www.w3.org/2000/svg">
<path fill-rule="evenodd" clip-rule="evenodd" d="M23.6355 5.59311C23.6888 4.64428 23.7954 3.69545 23.902 2.74662C23.8852 2.52521 23.8736 2.30882 23.8624 2.09743C23.838 1.64131 23.815 1.2085 23.7421 0.799016C23.6888 0.499385 23.369 0 23.1557 0C22.8359 0 22.3028 0.249692 22.1429 0.499385C21.7165 1.14859 21.29 1.89766 21.0768 2.64674C20.3838 4.99385 19.7974 7.34096 19.2643 9.738C18.9445 11.1363 18.8912 12.5346 19.4243 13.8829C19.7441 14.632 20.2239 15.2312 21.1834 15.2312C22.1429 15.2312 22.676 14.632 22.9425 13.8829C23.2091 13.1838 23.3157 12.4347 23.369 11.6856C23.4223 10.6619 23.4623 9.65065 23.5022 8.63941L23.5023 8.63897C23.5422 7.62785 23.5822 6.61672 23.6355 5.59311ZM16.439 38.9506C16.5456 39.4001 16.7055 39.8994 17.4518 39.9993C17.5052 39.7391 17.5608 39.477 17.6167 39.2128C17.8401 38.1586 18.0702 37.0724 18.1981 35.9543C18.6779 32.7084 19.051 29.4624 19.4241 26.2165L19.4242 26.2163C19.4775 25.7669 19.4242 25.2675 19.3175 24.818C18.9977 23.8193 18.1448 23.2699 17.2386 23.4197C16.3324 23.5696 15.9059 24.2188 15.9059 25.3174C15.9592 26.6158 15.9592 27.9641 15.9592 29.2626C15.9592 29.9635 15.9533 30.6644 15.9473 31.3634V31.3635V31.3637C15.9355 32.7564 15.9237 34.1417 15.9592 35.5049C15.9592 36.462 16.1443 37.4192 16.3294 38.3763L16.3294 38.3763C16.3664 38.5678 16.4034 38.7592 16.439 38.9506ZM40.0008 20.8723C39.7423 20.9261 39.48 20.9871 39.2159 21.0486C38.4995 21.2153 37.77 21.3851 37.0689 21.4216L36.5571 21.4664L36.557 21.4664C32.7339 21.8008 28.9554 22.1314 25.1281 22.3704C24.4884 22.4204 23.7421 22.2705 23.1558 22.0208C22.3562 21.7212 22.4095 20.9222 23.1558 20.5726C23.5822 20.3729 24.062 20.273 24.4884 20.273C29.5526 20.1232 34.6168 20.0732 39.6809 20.4728C39.7875 20.4728 39.8942 20.5227 40.0008 20.5726V20.8723ZM13.6137 18.0623C14.2356 18.0124 14.8575 17.9625 15.4795 17.9292C15.4795 17.8293 15.4795 17.7294 15.5328 17.5796C15.3195 17.5546 15.1196 17.5172 14.9197 17.4797C14.7198 17.4423 14.5199 17.4048 14.3067 17.3798C12.4143 17.1801 10.5352 16.9803 8.65616 16.7806C6.77709 16.5808 4.89802 16.3811 3.00562 16.1813C2.68578 16.1564 2.36594 16.1189 2.04609 16.0814C1.72625 16.044 1.40641 16.0065 1.08657 15.9816C0.553497 15.9816 0.127041 16.1813 0.0204274 16.6807C-0.0861866 17.23 0.233655 17.6295 0.766725 17.7794C1.13987 17.8792 1.56633 17.9791 1.99279 17.9791C2.63057 18.0035 3.27153 18.0309 3.91412 18.0583C5.90325 18.1432 7.90796 18.2288 9.88222 18.2288C11.1261 18.2621 12.3699 18.1622 13.6137 18.0623Z" fill="#121212"/>
</svg>
