<svg width="905" height="136" viewBox="0 0 905 136" fill="none" xmlns="http://www.w3.org/2000/svg">
<path d="M151.852 39.9145L176.537 77.7064L158.864 83.3385L151.852 39.9145Z" fill="#EAD300"/>
<path d="M25.8781 79.882L64.5504 76.6471L63.3978 89.885L25.8781 79.882Z" fill="#EA0000"/>
<ellipse cx="110.544" cy="94.1011" rx="4.05718" ry="3.66628" fill="#9F00EA"/>
<ellipse cx="118.658" cy="57.4383" rx="9.46675" ry="8.55465" fill="#EAA900"/>
<rect width="25.7511" height="12.9022" transform="matrix(0.735067 -0.677995 0.748732 0.662872 71.3245 127.448)" fill="#EAA900"/>
<rect width="8.00933" height="12.4119" transform="matrix(0.9394 0.342822 -0.408013 0.912976 200.809 41.5511)" fill="#EA0000"/>
<rect width="29.9909" height="10.616" transform="matrix(-0.487423 -0.873166 0.909922 -0.414779 107.581 30.5903)" fill="#EA0000"/>
<path d="M1.00006 62.4673C1.00006 62.4673 18.2952 54.6831 22.2187 58.7631C24.3741 61.0046 26.0019 63.7195 24.0715 65.9252C22.5834 67.6255 20.4349 67.8422 17.9176 67.4427C12.5868 66.5967 12.6677 59.9072 14.8076 55.7642C17.7621 50.0441 33.4455 53.4204 33.4455 53.4204" stroke="#05EA00" stroke-width="1.2"/>
<path d="M60.7274 109.988C60.7274 109.988 59.4108 102.92 63.1895 101.512C66.364 100.328 69.1161 105.562 71.7245 103.664C74.3666 101.742 67.771 98.6974 69.919 96.3986C72.1797 93.9791 79.4389 96.3986 79.4389 96.3986" stroke="#005EEA" stroke-width="1.2"/>
<path d="M51.8705 20.7756C51.8705 26.8501 62.6449 31.7744 55.1473 31.7744C47.6498 31.7744 41.5718 26.8501 41.5718 20.7756C41.5718 14.7011 47.6498 9.77673 55.1473 9.77673C62.6449 9.77673 51.8705 14.7011 51.8705 20.7756Z" fill="#9F00EA"/>
<path d="M209.915 92.2549C214.374 92.6605 218.708 86.531 218.208 91.0251C217.707 95.5192 213.687 98.8336 209.228 98.428C204.769 98.0225 201.56 94.0505 202.06 89.5565C202.561 85.0624 205.456 91.8494 209.915 92.2549Z" fill="#005EEA"/>
<path d="M168.697 102.656L171.733 111.1H181.559L173.61 116.319L176.646 124.764L168.697 119.545L160.748 124.764L163.784 116.319L155.835 111.1H165.66L168.697 102.656Z" fill="#05EA00"/>
<path d="M71.3243 61.1046L73.1461 66.1713H79.0415L74.272 69.3027L76.0938 74.3693L71.3243 71.238L66.5548 74.3693L68.3766 69.3027L63.6071 66.1713H69.5025L71.3243 61.1046Z" fill="#EAD300"/>
<path d="M146.175 30.1016L147.522 19.6031L156.912 24.9825L157.982 16.1755L166.547 21.5072L169.215 11.9861" stroke="#005EEA"/>
<path d="M251.878 79.882L290.55 76.6471L289.398 89.885L251.878 79.882Z" fill="#EA0000"/>
<ellipse cx="344.658" cy="57.4383" rx="9.46675" ry="8.55465" fill="#EAA900"/>
<rect width="8.00933" height="12.4119" transform="matrix(0.9394 0.342822 -0.408013 0.912976 426.809 41.5511)" fill="#EA0000"/>
<rect width="29.9909" height="10.616" transform="matrix(-0.487423 -0.873166 0.909922 -0.414779 333.581 30.5903)" fill="#EA0000"/>
<path d="M227 62.4673C227 62.4673 244.295 54.6831 248.219 58.7631C250.374 61.0046 252.002 63.7195 250.071 65.9252C248.583 67.6255 246.435 67.8422 243.918 67.4427C238.587 66.5967 238.668 59.9072 240.808 55.7642C243.762 50.0441 259.446 53.4204 259.446 53.4204" stroke="#05EA00" stroke-width="1.2"/>
<path d="M286.727 109.988C286.727 109.988 285.411 102.92 289.189 101.512C292.364 100.328 295.116 105.562 297.725 103.664C300.367 101.742 293.771 98.6974 295.919 96.3986C298.18 93.9791 305.439 96.3986 305.439 96.3986" stroke="#005EEA" stroke-width="1.2"/>
<path d="M277.87 20.7756C277.87 26.8501 288.645 31.7744 281.147 31.7744C273.65 31.7744 267.572 26.8501 267.572 20.7756C267.572 14.7011 273.65 9.77673 281.147 9.77673C288.645 9.77673 277.87 14.7011 277.87 20.7756Z" fill="#9F00EA"/>
<path d="M394.697 102.656L397.733 111.1H407.559L399.61 116.319L402.646 124.764L394.697 119.545L386.748 124.764L389.784 116.319L381.835 111.1H391.66L394.697 102.656Z" fill="#05EA00"/>
<path d="M297.324 61.1046L299.146 66.1713H305.042L300.272 69.3027L302.094 74.3693L297.324 71.238L292.555 74.3693L294.377 69.3027L289.607 66.1713H295.503L297.324 61.1046Z" fill="#EAD300"/>
<path d="M372.175 30.1016L373.522 19.6031L382.912 24.9825L383.982 16.1755L392.547 21.5072L395.215 11.9861" stroke="#005EEA"/>
<path d="M603.852 39.9145L628.537 77.7064L610.864 83.3385L603.852 39.9145Z" fill="#EAD300"/>
<path d="M477.878 79.882L516.55 76.6471L515.398 89.885L477.878 79.882Z" fill="#EA0000"/>
<ellipse cx="562.544" cy="94.1011" rx="4.05718" ry="3.66628" fill="#9F00EA"/>
<ellipse cx="570.658" cy="57.4383" rx="9.46675" ry="8.55465" fill="#EAA900"/>
<rect width="25.7511" height="12.9022" transform="matrix(0.735067 -0.677995 0.748732 0.662872 523.324 127.448)" fill="#EAA900"/>
<rect width="8.00933" height="12.4119" transform="matrix(0.9394 0.342822 -0.408013 0.912976 652.809 41.5511)" fill="#EA0000"/>
<rect width="29.9909" height="10.616" transform="matrix(-0.487423 -0.873166 0.909922 -0.414779 559.581 30.5903)" fill="#EA0000"/>
<path d="M453 62.4673C453 62.4673 470.295 54.6831 474.219 58.7631C476.374 61.0046 478.002 63.7195 476.071 65.9252C474.583 67.6255 472.435 67.8422 469.918 67.4427C464.587 66.5967 464.668 59.9072 466.808 55.7642C469.762 50.0441 485.446 53.4204 485.446 53.4204" stroke="#05EA00" stroke-width="1.2"/>
<path d="M512.727 109.988C512.727 109.988 511.411 102.92 515.189 101.512C518.364 100.328 521.116 105.562 523.725 103.664C526.367 101.742 519.771 98.6974 521.919 96.3986C524.18 93.9791 531.439 96.3986 531.439 96.3986" stroke="#005EEA" stroke-width="1.2"/>
<path d="M503.87 20.7756C503.87 26.8501 514.645 31.7744 507.147 31.7744C499.65 31.7744 493.572 26.8501 493.572 20.7756C493.572 14.7011 499.65 9.77673 507.147 9.77673C514.645 9.77673 503.87 14.7011 503.87 20.7756Z" fill="#9F00EA"/>
<path d="M661.915 92.2549C666.374 92.6605 670.708 86.531 670.208 91.0251C669.707 95.5192 665.687 98.8336 661.228 98.428C656.769 98.0225 653.56 94.0505 654.06 89.5565C654.561 85.0624 657.456 91.8494 661.915 92.2549Z" fill="#005EEA"/>
<path d="M620.697 102.656L623.733 111.1H633.559L625.61 116.319L628.646 124.764L620.697 119.545L612.748 124.764L615.784 116.319L607.835 111.1H617.66L620.697 102.656Z" fill="#05EA00"/>
<path d="M523.324 61.1046L525.146 66.1713H531.042L526.272 69.3027L528.094 74.3693L523.324 71.238L518.555 74.3693L520.377 69.3027L515.607 66.1713H521.503L523.324 61.1046Z" fill="#EAD300"/>
<path d="M598.175 30.1016L599.522 19.6031L608.912 24.9825L609.982 16.1755L618.547 21.5072L621.215 11.9861" stroke="#005EEA"/>
<path d="M829.852 39.9145L854.537 77.7064L836.864 83.3385L829.852 39.9145Z" fill="#EAD300"/>
<path d="M703.878 79.882L742.55 76.6471L741.398 89.885L703.878 79.882Z" fill="#EA0000"/>
<ellipse cx="788.544" cy="94.1011" rx="4.05718" ry="3.66628" fill="#9F00EA"/>
<ellipse cx="796.658" cy="57.4383" rx="9.46675" ry="8.55465" fill="#EAA900"/>
<rect width="25.7511" height="12.9022" transform="matrix(0.735067 -0.677995 0.748732 0.662872 749.324 127.448)" fill="#EAA900"/>
<rect width="8.00933" height="12.4119" transform="matrix(0.9394 0.342822 -0.408013 0.912976 878.809 41.5511)" fill="#EA0000"/>
<rect width="29.9909" height="10.616" transform="matrix(-0.487423 -0.873166 0.909922 -0.414779 785.581 30.5903)" fill="#EA0000"/>
<path d="M679 62.4673C679 62.4673 696.295 54.6831 700.219 58.7631C702.374 61.0046 704.002 63.7195 702.071 65.9252C700.583 67.6255 698.435 67.8422 695.918 67.4427C690.587 66.5967 690.668 59.9072 692.808 55.7642C695.762 50.0441 711.446 53.4204 711.446 53.4204" stroke="#05EA00" stroke-width="1.2"/>
<path d="M738.727 109.988C738.727 109.988 737.411 102.92 741.189 101.512C744.364 100.328 747.116 105.562 749.724 103.664C752.367 101.742 745.771 98.6974 747.919 96.3986C750.18 93.9791 757.439 96.3986 757.439 96.3986" stroke="#005EEA" stroke-width="1.2"/>
<path d="M729.87 20.7756C729.87 26.8501 740.645 31.7744 733.147 31.7744C725.65 31.7744 719.572 26.8501 719.572 20.7756C719.572 14.7011 725.65 9.77673 733.147 9.77673C740.645 9.77673 729.87 14.7011 729.87 20.7756Z" fill="#9F00EA"/>
<path d="M887.915 92.2549C892.374 92.6605 896.708 86.531 896.208 91.0251C895.707 95.5192 891.687 98.8336 887.228 98.428C882.769 98.0225 879.56 94.0505 880.06 89.5565C880.561 85.0624 883.456 91.8494 887.915 92.2549Z" fill="#005EEA"/>
<path d="M846.697 102.656L849.733 111.1H859.559L851.61 116.319L854.646 124.764L846.697 119.545L838.747 124.764L841.784 116.319L833.835 111.1H843.66L846.697 102.656Z" fill="#05EA00"/>
<path d="M749.324 61.1046L751.146 66.1713H757.042L752.272 69.3027L754.094 74.3693L749.324 71.238L744.555 74.3693L746.377 69.3027L741.607 66.1713H747.503L749.324 61.1046Z" fill="#EAD300"/>
<path d="M824.174 30.1016L825.521 19.6031L834.912 24.9825L835.982 16.1755L844.547 21.5072L847.215 11.9861" stroke="#005EEA"/>
</svg>
