<svg width="1440" height="388" viewBox="0 0 1440 388" fill="none" xmlns="http://www.w3.org/2000/svg">
<rect width="1440" height="388" fill="#121212"/>
<g opacity="0.02">
<path d="M-46 11.1279C-45.4637 10.7197 -44.8359 10.3733 -44.4174 9.87844C-34.2414 -1.88604 -21.7504 -10.8548 -7.4413 -17.6339C4.91894 -23.4852 16.6383 -30.2395 27.1543 -38.8248C42.9675 -51.7397 55.04 -67.3267 64.1696 -84.9549C72.5013 -101.037 73.3907 -117.552 65.8569 -134.165C64.2742 -137.641 62.3515 -141.155 59.8272 -144.049C49.2065 -156.16 37.0425 -166.626 22.171 -173.986C16.586 -176.745 14.3886 -181.1 16.3898 -185.788C18.3255 -190.291 23.6882 -192.542 29.2209 -190.588C33.184 -189.19 37.0556 -187.297 40.6132 -185.12C52.4503 -177.871 63.2409 -169.298 72.1874 -159.043C93.3371 -134.759 97.1825 -107.717 84.0375 -78.9304C75.5227 -60.2755 63.0448 -43.9833 47.3492 -30.0664C35.5383 -19.5884 22.9165 -9.82798 8.55507 -2.78909C-15.1583 8.83931 -31.1939 27.0242 -43.8811 48.512C-44.5089 49.5758 -45.2937 50.5407 -46 51.5551C-46 38.1082 -46 24.6119 -46 11.1279Z" fill="#FAFAFA"/>
<path d="M739.85 340.743C752.982 327.235 766.362 314.889 782.227 304.98C781.639 304.2 781.325 303.619 780.854 303.174C770.351 292.943 765.983 280.424 765.643 266.445C765.616 265.109 765.773 263.736 766.14 262.45C766.951 259.629 768.821 257.687 771.986 257.217C775.243 256.722 778.029 257.786 779.599 260.47C780.776 262.487 781.534 264.812 782.005 267.101C783.941 276.441 786.57 285.447 793.084 293.079C795.216 295.578 796.759 296.122 799.663 293.982C809.119 287.005 818.903 280.424 828.333 273.422C837.397 266.693 848.607 268.684 853.786 278.445C855.369 281.439 856.507 284.692 857.461 287.921C861.621 301.986 865.597 316.101 869.717 330.191C871.143 335.065 872.791 339.877 874.308 344.727C879.527 361.464 890.893 373.785 905.608 383.707C906.078 384.028 906.615 384.263 907.478 384.721C908.093 383.558 908.668 382.494 909.204 381.418C915.679 368.28 921.473 354.796 928.772 342.079C937.143 327.507 946.625 313.466 956.082 299.475C961.183 291.916 972.484 292.547 977.336 300.724C980.488 306.044 982.83 311.982 984.412 317.907C987.015 327.581 988.82 337.465 990.769 347.287C994.078 363.988 999.807 379.872 1008.4 394.815C1013.51 403.698 1018.63 412.58 1023.83 421.412C1032.95 436.888 1044.66 450.483 1058.78 462.013C1065.83 467.765 1073.76 472.726 1081.87 477.093C1094.05 483.649 1106.72 489.352 1119.18 495.413C1119.81 495.723 1120.47 496.007 1121.13 496.242C1126.04 497.912 1126.57 498.964 1124.43 503.541C1122.25 508.192 1118.23 511.013 1112.97 510.765C1106.99 510.493 1100.73 510.023 1095.18 508.106C1083.61 504.098 1072.18 499.521 1061.11 494.362C1039.97 484.478 1023.69 469.015 1009.6 451.547C996.04 434.723 984.425 416.65 974.223 397.797C964.78 380.329 960.699 361.415 957.978 342.178C957.717 340.286 957.39 338.405 957.063 336.525C957.037 336.364 956.749 336.24 956.33 335.882C955.716 336.847 955.062 337.737 954.565 338.69C944.873 357.642 936.371 377.014 931.688 397.71C929.007 409.574 917.85 415.833 906.013 411.293C878.847 400.852 856.572 384.944 846.148 357.901C839.896 341.671 835.2 324.909 829.811 308.382C829.432 307.207 829.105 306.019 828.608 304.361C827.365 305.091 826.397 305.611 825.469 306.205C819.831 309.767 814.403 313.639 808.557 316.843C784.909 329.795 765.839 347.436 749.293 367.748C747.697 369.703 746.128 371.695 744.323 373.476C737.077 380.651 726.247 380.391 720.361 372.19C717.326 367.971 715.351 362.726 714.213 357.679C706.143 321.977 707.268 286.436 717.34 251.205C719.537 243.51 721.983 235.853 724.886 228.368C733.14 207.079 746.782 189.376 764.152 173.69C798.656 142.541 840.262 123.49 884.301 108.138C900.232 102.584 916.202 97.0294 931.741 90.6091C940.033 87.1824 947.711 82.2341 955.245 77.3972C963.001 72.4118 967.814 65.2616 969.515 56.3919C969.894 54.4002 970.456 52.4456 971.058 50.5034C971.921 47.6953 973.595 45.5552 976.996 45.617C980.344 45.6789 982.241 47.7695 982.895 50.6024C984.556 57.8268 984.857 65.0761 982.607 72.2758C979.664 81.628 973.831 89.3225 966.075 95.4336C959.626 100.506 952.799 105.479 945.33 108.979C929.386 116.464 913.168 123.503 896.635 129.725C873.039 138.607 850.647 149.704 828.608 161.48C822.146 164.932 816.261 169.497 810.558 174.049C802.2 180.704 794.208 187.768 786.125 194.733C770.495 208.192 759.456 224.521 752.668 243.386C745.094 264.429 739.405 285.904 738.345 308.184C737.875 318.13 738.856 328.138 739.209 338.121C739.248 338.727 739.509 339.346 739.85 340.743Z" fill="#FAFAFA"/>
<path d="M1328.54 273.41C1321.97 273.039 1315.55 273.113 1309.28 272.198C1298.83 270.688 1289.19 266.767 1280.31 261.373C1268.3 254.062 1262.88 242.694 1259.74 230.15C1256.64 217.754 1257.4 205.347 1260.84 193.112C1267.04 171.08 1279.21 152.574 1297.67 137.815C1312.27 126.15 1328.39 116.674 1345.16 108.126C1346.49 107.445 1347.82 106.716 1348.98 106.097C1346.04 101.619 1343.24 97.3634 1340.37 93.0213C1334.95 94.1347 1329.24 95.6068 1323.44 96.448C1312.57 98.0315 1302.1 96.6707 1292.38 91.5121C1277.4 83.5454 1271.99 69.9748 1277.98 54.7837C1283.53 40.6812 1294.19 30.3393 1306.5 21.4201C1310.88 18.2408 1315.74 18.6491 1318.95 21.5562C1321.96 24.2901 1322.31 28.5085 1319.41 33.0361C1316.45 37.638 1312.89 41.9059 1309.98 46.5325C1306.84 51.5302 1303.76 56.6269 1301.36 61.9587C1299.38 66.3379 1300.45 69.0347 1304.99 71.2243C1308.83 73.0675 1313.15 74.6757 1317.38 74.9726C1323.72 75.4179 1330.16 74.6014 1336.55 74.3417C1338.61 74.2551 1339.14 73.0799 1339.64 71.348C1341.05 66.4863 1342.62 61.6618 1344.51 56.9486C1345.28 55.0311 1346.77 53.2126 1348.35 51.7776C1351.26 49.1427 1354.88 48.586 1358.62 49.9591C1362.27 51.2952 1364.32 54.0291 1364.65 57.6537C1364.83 59.7443 1364.49 61.8968 1364.17 63.9998C1363.3 69.4429 1361.99 74.8241 1361.46 80.2919C1360.88 86.1927 1362.54 91.5492 1368.34 94.8151C1369.54 95.4955 1371.7 95.8295 1372.82 95.2728C1382.48 90.4606 1392.26 85.8093 1401.46 80.3043C1411.06 74.552 1414.88 65.2616 1416.21 55.1301C1410.73 53.992 1405.33 53.2992 1400.23 51.7405C1371.74 43.0687 1358.68 20.3562 1366.26 -7.18082C1372.48 -29.8315 1389.58 -41.1382 1412.57 -45.4061C1431.38 -48.8946 1448.5 -44.0824 1463.45 -33.0602C1485.37 -16.9165 1496.26 4.89292 1498.69 30.7476C1499.62 40.6441 1499.28 50.4911 1496.96 60.2515C1491.38 83.7557 1476.74 100.271 1453.76 110.241C1432.56 119.445 1410.18 121.536 1387.19 119.445C1383.99 119.161 1380.71 119.012 1377.68 118.146C1373.4 116.934 1369.96 117.973 1366.3 120.026C1347.38 130.64 1328.63 141.465 1311.77 154.974C1299.34 164.932 1289.28 176.585 1282.88 190.848C1277.91 201.932 1275.49 213.388 1278.28 225.387C1280.95 236.83 1287.05 246.244 1297.59 252.677C1307.81 258.899 1318.54 264.095 1331.35 266.854C1332.15 262.524 1332.92 258.404 1333.65 254.273C1334.04 252.058 1334.13 249.77 1334.8 247.642C1336.51 242.125 1341.66 238.97 1347.25 239.787C1352.63 240.566 1356.53 244.958 1356.72 250.487C1356.74 250.933 1356.79 251.403 1356.7 251.836C1353.32 270.033 1347.71 287.265 1333.04 300.551C1325.11 307.726 1315.76 312.662 1305.03 314.53C1287.52 317.586 1269.91 320.183 1252.3 322.682C1236.77 324.884 1221.28 327.086 1206.28 331.688C1192.95 335.77 1183.98 344.133 1179.95 356.64C1178.34 361.65 1178.49 367.229 1178.33 372.561C1178.23 376.371 1177.36 377.855 1173.23 378.041C1167.4 378.301 1163.25 375.393 1160.2 371.076C1155.23 364.05 1152.76 356.281 1153.71 347.758C1155.78 329.164 1165.79 315.619 1183.3 307.182C1198.21 299.994 1214.27 296.16 1230.86 295.071C1251.82 293.698 1272.87 293.252 1293.86 292.213C1298.94 291.966 1304.08 291.372 1309.01 290.209C1318.73 287.933 1324.93 281.81 1328.54 273.41ZM1403.23 100.778C1420.39 101.198 1436.77 98.8974 1451.31 89.8545C1461.2 83.7062 1467.99 75.3313 1471.56 64.606C1474.94 54.4497 1475.46 44.1202 1474.3 33.6175C1472.24 15.0369 1465.21 -1.16869 1449.75 -13.4775C1436.22 -24.2399 1419.18 -25.5388 1404.03 -17.0155C1396.86 -12.9826 1392.27 -7.19319 1390.89 0.550824C1387.56 19.1934 1397.98 32.7145 1416.67 41.1018C1416.67 39.7905 1416.68 38.5905 1416.67 37.403C1416.63 34.0381 1416.35 30.6486 1416.6 27.3085C1416.84 23.9437 1418.59 21.3335 1422.25 20.2943C1425.52 19.3666 1429.18 20.4799 1431.22 23.5849C1432.69 25.824 1434.14 28.4219 1434.4 30.9702C1435.2 38.7637 1436.26 46.6562 1435.7 54.4126C1434.39 72.6345 1425.88 87.2566 1409.15 97.1037C1407.15 98.2789 1405.21 99.5531 1403.23 100.778Z" fill="#FAFAFA"/>
<path d="M1089.53 -112.579C1091.08 -105.713 1092.83 -99.8739 1093.63 -93.936C1095.58 -79.2892 1093.19 -64.7908 1091.1 -50.3171C1086.29 -16.9411 1076.96 15.4699 1067.65 47.8934C1062.35 66.3627 1058.19 85.1166 1058.85 104.378C1059.11 112.047 1060.33 119.866 1062.44 127.263C1066 139.646 1074.69 147.675 1088.09 151.077C1100.36 154.194 1112.64 154.936 1125.15 152.821C1147.74 149.011 1168.53 141.168 1187.07 128.278C1202.4 117.627 1213.53 103.994 1217.75 86.2176C1219.02 80.8858 1218.9 74.9851 1218.01 69.542C1215.95 56.8497 1208.14 48.4872 1194.86 44.8626C1180.4 40.9163 1166 40.8421 1151.7 45.3574C1138.37 49.5634 1126.87 56.7013 1117.16 66.2019C1110.2 73.0181 1104.51 81.0343 1107.22 90.9556C1111.18 105.429 1118.37 118.171 1133.52 125.259C1134.83 125.865 1135.7 127.276 1136.79 128.315C1135.53 129.032 1134.37 130.071 1133 130.405C1119.59 133.733 1107.82 130.678 1097.79 121.783C1090.88 115.66 1085.24 108.559 1081.06 100.518C1074.46 87.8258 1074.05 74.8861 1080.81 62.2186C1083.67 56.8621 1087.06 51.3695 1091.56 47.2625C1119.73 21.6058 1152.86 11.4124 1191.59 19.8986C1192.29 20.0471 1192.97 20.2697 1193.65 20.4677C1218.21 27.1231 1232.69 42.3637 1237.65 66.0535C1240.73 80.8364 1238.68 94.9142 1232.17 108.472C1226.91 119.408 1219.98 129.391 1210.74 137.667C1183.6 162 1151.32 175.138 1113.86 176.4C1103.82 176.734 1093.98 174.927 1084.41 172.045C1058.57 164.239 1045.01 146.549 1040.05 122.216C1036.3 103.747 1038.81 85.4259 1043.35 67.4142C1049.1 44.578 1055.87 21.9769 1061.65 -0.846962C1068.25 -26.8872 1073.27 -53.2119 1073.26 -80.118C1073.26 -86.2291 1071.91 -92.3773 1070.76 -98.4265C1069.82 -103.4 1066.25 -106.133 1060.95 -106.863C1057.89 -107.284 1054.82 -107.643 1051.82 -108.323C1046.03 -109.634 1041.96 -112.863 1040.9 -118.603C1039.86 -124.306 1042.24 -129.007 1047.36 -131.803C1051.3 -133.943 1055.77 -135.687 1060.23 -136.454C1089.07 -141.402 1117.51 -139.992 1145.24 -130.516C1158.31 -126.05 1169.55 -118.838 1179.51 -109.758C1193.54 -96.9421 1198.51 -80.6252 1199.62 -62.8486C1199.64 -62.7373 1199.64 -62.6259 1199.62 -62.5146C1199.26 -59.991 1199.53 -56.5519 1196.37 -56.1313C1194.64 -55.8963 1192.09 -58.0983 1190.62 -59.7683C1187.84 -62.9599 1185.45 -66.4856 1183.1 -69.9988C1167.11 -93.9855 1143.38 -106.418 1114.42 -110.711C1106.33 -111.873 1097.97 -111.96 1089.53 -112.579Z" fill="#FAFAFA"/>
<path d="M669.874 439.14C661.294 444.187 652.386 449.358 643.61 454.702C642.917 455.122 642.472 457.003 642.877 457.745C645.742 463.015 648.345 468.495 651.994 473.245C657.017 479.777 662.968 485.653 668.344 491.95C670.175 494.102 671.862 496.539 672.908 499.1C674.622 503.343 673.628 507.376 670.005 510.481C666.473 513.512 662.432 513.611 658.011 512.126C656.153 511.495 653.76 511.236 651.902 511.768C639.516 515.293 627.143 518.893 614.913 522.876C610.715 524.25 606.935 526.798 602.998 528.864C601.441 529.68 600.029 530.756 598.459 531.511C594.588 533.391 590.664 533.528 586.988 531.091C583.405 528.715 582.319 525.289 582.829 521.318C583.391 516.976 584.32 512.634 584.464 508.279C584.856 496.044 584.896 483.798 585.118 471.551C585.17 468.891 585.445 466.244 585.654 462.891C579.023 464.697 572.823 466.132 566.806 468.099C552.667 472.726 538.659 477.699 524.533 482.363C519.72 483.958 514.776 485.257 509.806 486.346C500.924 488.3 492.318 482.214 490.905 473.196C489.964 467.233 491.795 461.84 494.947 456.78C500.205 448.368 506.863 441.008 514.841 434.896C527.868 424.938 540.87 414.893 554.538 405.776C568.415 396.523 582.96 388.172 597.478 379.81C603.743 376.198 610.545 373.39 617.255 370.544C627.208 366.314 636.39 361.081 644.277 353.881C647.665 350.788 651.078 350.281 654.27 352.112C657.461 353.943 658.979 357.716 657.043 361.613C655.159 365.411 652.857 369.394 649.653 372.153C643.715 377.274 637.07 381.666 630.57 386.156C622.042 392.057 613.318 397.698 604.79 403.574C597.099 408.869 589.421 414.163 581.966 419.742C566.872 431.024 551.922 442.48 536.985 453.947C534.997 455.469 533.414 457.448 531.086 459.786C533.493 459.477 535.311 459.378 537.05 458.994C553.007 455.506 568.951 451.931 584.909 448.467C587.276 447.947 588.192 446.723 588.44 444.545C588.846 440.97 589.395 437.408 590.049 433.87C591.148 427.882 595.516 424.208 600.8 424.653C606.189 425.111 610.244 429.292 609.838 435.342C609.341 442.95 608.321 450.558 606.83 458.054C603.416 475.163 603.508 492.482 602.605 509.751C602.592 509.937 602.788 510.147 602.919 510.382C617.542 507.759 632.165 505.125 647.482 502.378C646.017 500.56 645.179 499.496 644.329 498.444C635.2 487.138 627.025 475.311 622.761 461.481C622.094 459.328 621.558 457.126 621.257 454.912C620.381 448.182 622.944 444.162 629.144 440.884C641.373 434.402 653.433 427.647 665.61 421.091C667.637 419.99 668.357 418.716 668.108 416.464C667.729 413.124 667.611 409.735 667.755 406.37C667.925 402.325 670.214 399.591 673.601 398.762C677.133 397.908 680.861 399.281 682.77 403.005C684.771 406.914 686.76 411.058 687.44 415.301C690.997 437.074 699.329 457.596 705.463 478.688C714.07 508.316 715.064 537.622 703.711 566.792C702.233 570.578 700.48 574.289 698.505 577.864C686.799 599.067 668.173 610.102 643.021 612.131C625.207 613.566 607.68 611.772 590.088 609.768C577.937 608.382 565.773 607.021 553.57 606.23C546.494 605.772 539.326 606.18 532.237 606.7C521.603 607.467 513.415 612.366 507.595 620.852C503.802 626.382 500.702 632.159 499.8 638.777C499.133 643.738 501.042 645.432 506.248 644.851C507.7 644.69 509.191 644.9 510.669 644.937C510.433 646.434 510.512 648.055 509.923 649.416C507.307 655.502 501.121 658.607 493.691 657.753C484.745 656.727 478.061 650.962 476.008 642.414C474.242 635.115 475.445 628.064 478.545 621.334C488.787 599.141 506.562 586.944 532.263 584.94C548.142 583.703 563.837 585.36 579.572 586.696C594.718 587.983 609.838 589.888 625.011 590.432C634.166 590.754 643.44 589.257 652.596 588.107C659.096 587.29 664.786 584.321 669.508 579.979C689.075 562.029 699.434 540.48 696.949 514.39C696.334 507.871 694.503 501.29 692.161 495.104C685.059 476.474 677.46 458.079 669.874 439.14Z" fill="#FAFAFA"/>
<path d="M546.964 137.519C547.88 106.604 553.073 78.152 565.668 51.2582C578.094 24.7108 598.158 5.0662 626.541 -6.61168C642.759 -13.2795 659.148 -18.9452 677.368 -17.9308C713.075 -15.9391 738.751 16.274 730.759 49.3778C728.457 58.9156 722.898 66.6844 715.822 73.513C700.493 88.2959 684.523 102.386 666.604 114.398C654.871 122.266 643.44 130.505 631.786 138.471C629.484 140.042 629.039 141.415 630.635 143.692C635.88 151.176 640.85 158.846 646.212 166.256C649.927 171.389 654.871 175.175 661.529 176.573C662.562 176.783 663.595 177.167 664.511 177.674C666.25 178.639 668.984 179.467 669.376 180.841C670.514 184.861 671.417 189.277 666.787 192.321C666.198 192.704 665.701 193.199 665.086 193.545C644.42 205.05 627.561 221.033 609.642 235.766C606.32 238.488 603.076 241.321 599.544 243.77C592.704 248.508 588.074 247.865 582.659 241.778C582.201 241.271 581.704 240.752 581.128 240.38C575.229 236.682 571.476 231.3 569.017 225.288C559.952 203.157 551.372 180.865 548.534 157.077C547.671 150.038 547.383 142.949 546.964 137.519ZM640.719 181.88C640.117 181.348 639.817 181.014 639.463 180.766C626.501 171.958 617.333 160.132 610.165 146.92C603.965 135.49 602.527 123.156 604.894 110.501C605.535 107.062 607.314 104.155 610.636 102.349C613.775 100.629 617.359 101.025 620.236 103.314C623.951 106.258 624.356 107.94 622.748 112.221C622.408 113.124 622.695 114.249 622.695 114.769C632.832 108.844 642.576 102.596 652.844 97.2646C671.521 87.5783 688.211 75.3809 704.247 62.2928C707.111 59.9547 709.675 57.2455 712.068 54.4745C715.691 50.2685 717.601 45.3821 717.863 39.9019C719.105 14.8019 695.47 -4.80555 668.775 0.959163C633.368 8.59185 605.796 27.0859 590.376 59.0764C574.131 92.7493 567.813 128.241 573.686 164.932C576.59 183.08 582.201 200.844 586.609 218.781C586.7 219.152 587.053 219.474 587.433 220.043C600.957 202.019 619.648 190.824 640.719 181.88Z" fill="#FAFAFA"/>
<path d="M1499.64 248.298C1499.98 247.692 1500.23 247.308 1500.44 246.912C1502.1 243.696 1504.78 241.791 1508.62 241.939C1512.74 242.1 1515.8 244.339 1516.78 247.951C1518.06 252.702 1518.62 257.638 1519.29 262.524C1519.77 266.087 1519.87 269.687 1520.18 273.274C1520.77 280.004 1524.06 285.373 1530.11 288.836C1534.74 291.484 1539.84 293.364 1544.63 295.776C1545.36 296.147 1546.09 297.694 1545.84 298.399C1544.34 302.753 1540.52 304.51 1536.14 305.314C1522.3 307.85 1506.82 299.5 1501.36 286.572C1497.64 277.789 1497.24 268.61 1498.17 259.357C1498.43 256.685 1497.66 255.671 1494.99 254.916C1484.63 251.984 1477.08 245.774 1472.62 236.471C1467.81 226.414 1469.69 216.258 1478.14 208.613C1488.87 198.902 1501.66 195.92 1516.01 199.595C1519.64 200.522 1523.2 201.97 1526.58 203.59C1555.95 217.631 1573.73 250.054 1569.87 280.87C1566.27 309.693 1552.53 333.284 1530.37 352.854C1522.06 360.19 1512.49 365.472 1501.4 368.083C1487.92 371.249 1475.88 366.165 1469.27 354.574C1465.1 347.263 1463.77 339.271 1463.62 331.132C1463.45 322.262 1463.77 313.38 1463.83 304.498C1463.87 300.489 1463.83 296.469 1463.83 292.337C1462.73 292.337 1462.33 292.213 1462.09 292.35C1449.35 299.945 1437.16 308.122 1429.29 320.728C1425.76 326.381 1422.41 332.208 1423.29 339.049C1423.59 341.436 1424.76 344.022 1426.35 345.914C1429.45 349.638 1430.43 352.854 1428.54 356.392C1426.71 359.831 1422.54 361.959 1418.11 361.526C1412.22 360.957 1407.94 357.84 1404.83 353.337C1399.32 345.395 1398.47 336.525 1399.85 327.396C1400.33 324.192 1401.29 321.025 1402.31 317.92C1402.88 316.175 1402.49 315.285 1401.13 313.924C1397.18 309.953 1392.77 306.044 1390.12 301.331C1385.89 293.834 1382.27 285.904 1379.59 277.814C1371.66 253.877 1364.98 229.643 1362.24 204.58C1362.18 203.924 1361.96 203.269 1361.72 202.192C1360.31 202.502 1359 202.848 1357.67 203.083C1353.91 203.751 1350.52 202.465 1349.06 199.743C1347.36 196.588 1348.2 193.607 1350.81 191.479C1355.66 187.521 1360.58 183.562 1365.92 180.247C1371.82 176.585 1379.35 178.75 1382.45 185.059C1384.52 189.277 1385.89 193.941 1386.73 198.543C1392.69 231.276 1401.4 263.34 1412.34 294.886C1412.59 295.615 1412.9 296.333 1413.28 297.335C1413.88 296.877 1414.38 296.617 1414.72 296.234C1424.88 284.618 1437.99 277.121 1452.87 272.359C1470.23 266.817 1481.31 273.855 1482.14 291.174C1482.54 299.228 1481.42 307.33 1481.42 315.408C1481.42 324.031 1481.71 332.678 1482.35 341.275C1482.55 343.935 1483.97 346.706 1485.49 349.044C1488.71 353.992 1493.48 356.17 1499.75 355.143C1506.35 354.054 1512.41 351.617 1517.37 347.498C1543.28 325.961 1556.67 299.24 1554.26 266.173C1554.13 264.392 1553.91 262.549 1553.3 260.866C1546.43 242.286 1534.16 228.517 1514.03 221.874C1508.3 219.994 1502.82 220.476 1497.67 223.693C1487.94 229.754 1488.88 243.077 1499.64 248.298Z" fill="#FAFAFA"/>
<path d="M1572.59 -60.6591C1562.96 -55.5006 1553.96 -50.7874 1545.14 -45.802C1544.19 -45.2701 1543.8 -43.031 1543.98 -41.6826C1545.78 -28.1986 1547.87 -14.7393 1549.65 -1.24294C1554.68 37.106 1548.25 74.2921 1536.06 110.724C1533.47 118.443 1529.37 125.94 1524.73 132.768C1513.16 149.815 1500.04 165.785 1484.05 179.48C1477.28 185.294 1471.01 191.64 1464.22 197.429C1458.06 202.687 1451.79 207.907 1445 212.398C1441.35 214.81 1436.68 216.418 1432.24 217.074C1424.06 218.286 1418.18 211.854 1420.77 204.407C1422.2 200.312 1424.95 196.242 1428.19 193.186C1439.03 182.943 1450.02 172.8 1461.58 163.299C1476.23 151.262 1488.62 137.42 1500.27 122.896C1506.29 115.4 1510.96 107.186 1513.77 98.1428C1520.14 77.6446 1526.04 57.0228 1527.87 35.6215C1529.45 17.2759 1527.31 -0.723396 1521.84 -18.3887C1519.9 -24.6482 1517.88 -30.883 1516.31 -37.2168C1512.83 -51.2204 1518.05 -61.2282 1532.36 -66.1641C1544.17 -70.234 1556.37 -73.2772 1568.5 -76.4688C1571.27 -77.1987 1572.05 -78.1884 1572.03 -80.7491C1572 -84.2129 1572.16 -87.7509 1572.88 -91.128C1574.43 -98.3649 1580.75 -102.88 1587.97 -102.336C1595.14 -101.804 1600.41 -96.3113 1600.83 -88.8766C1600.91 -87.4168 1600.83 -85.9571 1600.79 -84.4974C1599.89 -48.7462 1600.48 -13.0322 1603.55 22.62C1604.05 28.4466 1604.83 34.2484 1605.31 40.0626C1605.85 46.4335 1603.93 50.1447 1599.77 51.2086C1595.6 52.2724 1591.57 49.6993 1588.72 44.0336C1584.62 35.8937 1583.17 27.0982 1582.09 18.2779C1579.05 -6.50047 1576.2 -31.3036 1573.28 -56.0944C1573.14 -57.1954 1572.94 -58.284 1572.59 -60.6591Z" fill="#FAFAFA"/>
<path d="M931.008 -84.8434C925.763 -84.1754 920.989 -83.5198 916.202 -82.9631C902.52 -81.3797 888.865 -79.7096 875.158 -78.3612C871.809 -78.0272 868.212 -78.3489 864.969 -79.2024C857.618 -81.1323 854.099 -87.6516 856.375 -94.5668C857.042 -96.5832 858.115 -98.5006 859.214 -100.356C875.432 -127.683 891.756 -154.96 907.87 -182.349C912.251 -189.784 918.739 -193.779 927.476 -194.62C940.948 -195.919 954.472 -196.798 967.905 -198.344C995.621 -201.523 1023.28 -205.049 1050.97 -208.377C1053.55 -208.686 1056.19 -208.847 1058.8 -208.748C1064.39 -208.525 1068.66 -205.037 1069.34 -200.36C1070.06 -195.449 1067.01 -190.86 1061.27 -189.598C1053.88 -187.977 1046.34 -186.901 1038.84 -185.788C1005.16 -180.815 971.463 -175.867 937.757 -171.042C933.597 -170.448 931.243 -168.58 929.111 -165.141C917.915 -147.13 906.366 -129.316 894.973 -111.416C892.802 -108.001 890.735 -104.513 888.198 -100.369C894.136 -100.876 899.172 -101.296 904.207 -101.729C913.913 -102.558 923.605 -103.474 933.31 -104.179C935.533 -104.34 936.331 -105.144 936.802 -107.098C938.097 -112.578 939.575 -118.021 941.079 -123.452C941.524 -125.073 942.086 -126.706 942.91 -128.178C945.225 -132.334 949.659 -134.326 954.211 -133.448C958.933 -132.532 962.412 -128.97 962.49 -124.157C962.543 -120.83 962.085 -117.415 961.3 -114.162C954.969 -87.6516 948.508 -61.166 942.112 -34.6681C940.582 -28.322 939.156 -21.9635 937.56 -15.0359C939.222 -15.1473 940.451 -15.1596 941.667 -15.3081C959.678 -17.5843 977.754 -19.5017 995.294 -24.3015C997.622 -24.9324 1000.25 -24.9572 1002.68 -24.7221C1006.53 -24.351 1009.3 -22.2604 1010.49 -18.6976C1011.72 -14.9988 1010.74 -11.535 1007.59 -9.28358C1004.91 -7.3785 1001.69 -5.75795 998.459 -5.01571C982.201 -1.25504 965.852 2.15925 949.528 5.72199C942.819 7.18173 936.174 9.01259 929.386 10.0641C925.88 10.6084 921.917 10.4971 918.556 9.50744C912.788 7.81266 909.714 3.35921 909.688 -2.30654C909.675 -6.17855 910.381 -10.1495 911.401 -13.9226C917.444 -36.1155 923.67 -58.2589 929.83 -80.4148C930.197 -81.7013 930.511 -82.9878 931.008 -84.8434Z" fill="#FAFAFA"/>
<path d="M205.05 414.559C208.909 410.6 212.479 406.333 216.717 402.782C221.033 399.17 225.703 395.694 230.791 393.17C240.679 388.271 249.717 392.539 251.496 402.992C254.465 420.361 254.805 437.89 253.301 455.419C252.765 461.691 252.084 467.951 251.208 474.186C250.855 476.709 250.149 479.282 248.998 481.571C247.415 484.701 243.74 485.344 241.398 482.697C239.423 480.47 237.658 477.587 237.147 474.779C234.1 457.968 231.445 441.082 228.646 424.221C228.489 423.243 228.332 422.278 228.07 420.621C226.736 421.684 225.729 422.353 224.892 423.169C219.451 428.513 214.18 434.006 208.582 439.201C205.992 441.601 203.049 443.915 199.831 445.436C192.284 449.011 184.031 445.659 181.481 438.063C180.487 435.119 180.147 431.89 180.107 428.785C179.976 418.456 180.094 408.114 180.16 397.772C180.186 393.17 178.629 391.834 173.842 393.096C158.173 397.24 144.505 404.774 133.243 415.858C114.055 434.736 108.209 457.46 113.087 482.783C115.729 496.477 126.886 502.737 141.117 499.15C148.337 497.331 154.851 494.127 160.396 489.327C163.902 486.309 163.993 485.035 161.456 481.187C161.325 481.002 161.233 480.779 161.063 480.631C158.931 478.812 156.799 477.006 154.667 475.2C152.496 477.513 149.763 479.554 148.324 482.226C146.78 485.109 144.635 487.039 141.64 486.816C139.22 486.643 136.461 485.257 134.747 483.587C133.387 482.264 132.746 479.653 132.864 477.686C133.348 469.584 135.61 461.926 141.222 455.543C147.212 448.739 156.145 446.747 164.765 449.989C179.061 455.37 190.819 475.534 187.301 489.674C186.255 493.867 184.005 498.333 180.918 501.45C169.173 513.339 154.824 521.392 137.612 523.73C114.055 526.922 94.0826 515.058 86.6273 493.706C76.8045 465.625 80.8592 422.724 119.13 395.335C135.087 383.917 153.137 377.088 172.913 374.354C179.192 373.489 185.234 374.218 190.728 377.534C191.317 377.892 192.01 378.128 192.69 378.325C199.949 380.404 202.552 383.447 202.879 390.634C203.18 397.252 203.284 403.883 203.494 410.514C203.533 411.59 203.624 412.679 203.69 413.755C204.135 414.027 204.592 414.287 205.05 414.559Z" fill="#FAFAFA"/>
<path d="M484.3 -257.364C471.587 -238.376 452.922 -228.43 430.765 -223.308C428.568 -222.801 426.436 -222.096 424.238 -221.626C400.747 -216.653 383.182 -203.428 369.016 -185.751C361.469 -176.337 357.493 -165.599 358.853 -153.6C359.141 -151.039 360.292 -148.391 361.731 -146.19C363.274 -143.827 362.738 -142.614 360.541 -141.266C351.882 -135.934 339.98 -139.608 335.559 -149.084C332.89 -154.775 332.943 -160.7 334.355 -166.613C337.978 -181.805 345.251 -195.078 357.729 -205.531C361.103 -208.364 364.517 -211.172 367.826 -214.08C379.48 -224.31 393.07 -231.151 408.36 -235.134C416.482 -237.262 424.605 -239.439 432.662 -241.802C443.714 -245.056 453.511 -250.474 462.104 -257.797C466.407 -261.459 469.756 -265.653 471.338 -271.133C471.927 -273.211 474.033 -274.894 475.458 -276.749C476.23 -277.739 477.394 -278.617 477.747 -279.718C479.696 -285.842 486.458 -288.081 491.428 -283.64C494.084 -281.277 496.098 -277.962 497.51 -274.72C501.186 -266.296 502.167 -257.303 502.193 -248.284C502.298 -215.539 493.665 -185.145 474.163 -157.818C461.005 -139.373 448.004 -120.83 434.349 -102.731C427.613 -93.7999 419.778 -85.561 412.035 -77.3717C399.976 -64.6052 388.152 -51.7397 379.532 -36.5362C373.032 -25.0562 367.957 -13.032 365.576 -0.253104C364.334 6.38993 364.622 13.3546 364.909 20.1461C365.027 22.8676 366.819 25.6139 368.192 28.187C369.592 30.8096 371.711 32.3807 375.151 30.9086C375.818 30.624 377.034 30.8838 377.662 31.3292C378.002 31.5642 377.78 32.7765 377.531 33.4445C375.478 38.7515 369.827 41.9803 364.151 40.1989C360.345 39.0113 356.447 36.9825 353.582 34.3476C341.157 22.8924 338.201 8.61665 341.562 -6.97035C346.663 -30.6354 358.343 -51.3191 374.824 -69.5534C382.148 -77.6562 390.088 -85.2889 398.04 -92.8473C407.549 -101.89 415.933 -111.713 423.598 -122.203C432.779 -134.771 442.079 -147.303 452.085 -159.265C475.157 -186.852 484.876 -218.385 484.549 -253.121C484.509 -254.519 484.379 -255.942 484.3 -257.364Z" fill="#FAFAFA"/>
<path d="M524.049 383.83C516.868 382.024 509.517 380.651 502.533 378.301C490.382 374.218 479.29 368.07 468.761 361.068C435.487 338.925 407.98 311.574 386.49 278.903C378.983 267.497 372.848 255.46 370.86 241.927C370.533 239.712 370.416 237.449 370.507 235.21C370.991 222.443 379.807 213.66 393.331 213.722C399.949 213.759 406.816 215.144 413.12 217.148C425.821 221.181 437.226 227.651 447.664 235.68C450.489 237.857 454.047 239.168 456.898 241.296C488.027 264.503 515.102 291.236 536.2 323.128C541.955 331.824 546.912 340.929 548.992 351.122C549.619 354.19 550.012 357.37 549.894 360.487C549.397 374.367 539.456 382.977 524.297 382.903C524.232 383.224 524.14 383.533 524.049 383.83ZM527.633 357.58C526.743 354.326 526.377 350.838 524.873 347.869C520.203 338.678 515.848 329.226 510.04 320.703C491.167 293.055 465.74 271.159 438.325 251.465C429.012 244.772 417.502 240.789 406.842 235.865C403.926 234.517 400.499 233.997 397.229 233.527C392.324 232.834 391.055 234.034 391.997 238.698C392.677 242.088 393.566 245.626 395.293 248.607C400.25 257.167 405.011 265.926 411.041 273.794C432.177 301.454 457.97 324.785 487.491 344.331C494.947 349.267 503.069 353.386 511.191 357.332C515.011 359.188 519.497 359.881 523.761 360.833C526.22 361.402 527.619 360.24 527.633 357.58Z" fill="#FAFAFA"/>
<path d="M203.925 226.538C217.397 224.583 230.66 223.433 243.059 218.435C243.7 218.175 244.263 217.73 244.838 217.322C250.554 213.276 255.786 213.759 259.749 219.4C263.28 224.435 266.053 229.952 269.271 235.185C271.089 238.141 273.143 240.962 275.68 244.723C276.373 241.939 276.726 240.22 277.236 238.537C282.913 219.882 291.611 202.675 304.547 187.471C308.536 182.795 313.611 181.719 319.523 182.511C326.573 183.451 333.61 184.576 340.699 185.183C344.714 185.517 348.808 184.972 352.863 184.824C352.902 184.502 352.941 184.181 352.98 183.859C352.483 183.426 352.013 182.981 351.489 182.572C320.883 158.437 301.551 127.931 293.848 90.9431C292.971 86.7123 293.272 82.2342 293.337 77.8797C293.364 76.2591 294.057 74.5767 294.776 73.0675C296.908 68.5893 301.133 66.2265 305.515 66.8822C309.857 67.5254 312.159 70.68 313.284 75.789C315.455 85.6608 317.6 95.5821 320.726 105.194C322.544 110.786 325.605 116.266 329.228 121.028C339.731 134.809 351.359 147.737 364.922 158.994C373.202 165.86 382.253 171.563 392.337 175.793C394.286 176.61 396.235 177.5 397.961 178.663C401.545 181.076 403.311 184.44 402.369 188.609C401.44 192.791 398.419 195.265 394.037 195.933C386.072 197.145 378.041 198.023 370.076 199.248C365.864 199.904 361.705 200.893 357.558 201.908C346.035 204.753 334.604 202.836 323.251 201.091C318.83 200.411 316.188 201.462 313.846 204.926C303.71 219.932 295.626 235.692 292.997 253.555C292.919 254.112 292.84 254.668 292.723 255.225C290.708 265.134 285.032 267.509 275.144 263.637C266.877 260.408 261.083 255.003 256.597 248.075C253.693 243.572 251.077 238.896 248.435 234.257C247.533 232.674 246.8 232.03 244.603 232.636C230.804 236.397 217.005 240.182 203.075 243.461C192.624 245.922 186.189 241.791 184.41 231.709C182.906 223.185 182.174 214.538 180.814 205.99C180.199 202.13 179.087 198.308 177.818 194.584C174.967 186.222 180.081 179.641 189.302 179.566C196.862 179.504 204.409 178.787 211.956 178.54C214.52 178.453 217.332 178.366 219.621 179.232C221.269 179.863 223.008 181.966 223.283 183.612C223.518 185.059 222.184 187.583 220.798 188.263C215.579 190.824 210.112 192.951 204.631 194.955C202.107 195.883 201.296 196.997 201.597 199.644C202.46 207.239 202.944 214.872 203.572 222.48C203.664 223.68 203.781 224.88 203.925 226.538Z" fill="#FAFAFA"/>
<path d="M29.6786 322.695C30.6858 322.361 31.0651 322.324 31.3398 322.138C50.0436 309.73 71.4942 302.246 91.4929 292.127C95.1683 290.259 99.4845 289.195 103.631 288.577C108.339 287.871 112.656 289.381 115.298 293.488C117.94 297.595 117.469 301.924 114.526 305.512C111.884 308.741 108.719 311.833 105.148 314.085C99.0398 317.944 92.6047 321.408 86.0125 324.476C71.7819 331.094 58.3492 338.876 45.6881 347.906C40.9533 351.283 35.983 354.413 30.8427 357.184C27.8083 358.817 24.316 360.029 20.8761 360.574C12.0212 361.984 3.87256 357.184 1.09968 349.106C0.197188 346.471 -0.208276 343.613 -0.352152 340.842C-2.2487 304.522 -0.875339 268.326 3.2055 232.154C5.78218 209.268 6.95935 186.234 8.81666 163.274C9.13057 159.477 9.53603 155.654 10.2554 151.906C10.674 149.741 11.4587 147.514 12.6359 145.621C15.5396 140.958 19.9866 138.595 25.7678 139.288C31.5621 139.98 35.3814 143.283 36.7416 148.541C37.5656 151.757 37.788 155.233 37.5918 158.561C36.3623 179.529 35.1721 200.51 33.5371 221.466C31.0128 253.741 28.2922 285.991 29.4301 318.402C29.4824 319.726 29.5871 321.025 29.6786 322.695Z" fill="#FAFAFA"/>
<path d="M1334.63 401.001C1334.27 411.85 1331.05 421.932 1324.61 430.826C1310.76 449.939 1292.61 463.547 1268.15 468.606C1266.76 468.891 1265.34 469.213 1263.94 469.225C1259.72 469.262 1255.7 469.262 1251.52 470.796C1247.48 472.281 1243.35 470.363 1240.65 467.295C1237.19 463.349 1233.4 459.279 1231.41 454.64C1223.11 435.28 1215.32 415.734 1207.64 396.152C1205.72 391.253 1204.53 386.008 1203.85 380.824C1203.52 378.325 1204.76 375.418 1206.02 373.031C1206.84 371.472 1208.81 370.235 1210.55 369.357C1228.74 360.227 1247.87 353.98 1268.72 354.413C1286.49 354.797 1302.8 360.202 1317.43 369.716C1328.95 377.2 1334.41 387.863 1334.63 401.001ZM1260.12 452.116C1265.31 449.469 1270.67 446.834 1275.93 444.038C1285.61 438.892 1294.59 432.868 1302.42 425.359C1308.76 419.26 1313.08 412.184 1314.29 403.599C1315.51 394.989 1312.74 388.061 1304.48 383.608C1293.23 377.546 1281.23 373.798 1268.17 374.194C1255.72 374.577 1243.78 377.583 1232.15 381.703C1231.97 381.765 1231.86 382.037 1232.06 381.789C1241.41 405.244 1250.67 428.439 1260.12 452.116Z" fill="#FAFAFA"/>
<path d="M837.567 -47.2368C845.755 -47.6079 853.943 -48.1275 862.131 -48.2759C866.133 -48.3501 870.24 -48.1274 874.125 -47.3234C879.029 -46.2966 880.403 -43.5256 881.384 -38.9732C882.914 -31.8106 881.135 -25.1304 879.213 -18.4132C874.53 -2.15816 870.148 14.1958 864.786 30.2529C861.555 39.9391 857.003 49.2789 852.439 58.495C851.248 60.8949 848.031 63.0227 845.245 64.0124C825.939 70.9028 804.698 65.6948 791.082 50.9861C781.102 40.1989 776.368 27.3087 774.484 13.3051C772.234 -3.3705 773.621 -19.6502 780.37 -35.3486C782.358 -39.9628 785.785 -42.1153 790.991 -44.0575C802.736 -48.4615 814.599 -47.1378 826.502 -47.3481C830.177 -47.4223 833.866 -47.3605 837.554 -47.3605C837.567 -47.3357 837.567 -47.2862 837.567 -47.2368ZM860.888 -31.9961C853.093 -31.2168 845.572 -30.3632 838.038 -29.7199C825.05 -28.6066 812.036 -27.6541 799.048 -26.4912C798.211 -26.417 797.007 -25.1552 796.824 -24.2892C794.771 -13.9969 793.463 -3.60554 795.032 6.84764C797.007 19.9605 801.703 31.8734 813.004 40.6071C818.34 44.7265 824.553 46.2852 831.276 45.8894C832.401 45.8275 834.075 44.6152 834.441 43.5884C843.165 19.1317 851.745 -5.37453 860.352 -29.8808C860.561 -30.4745 860.666 -31.1055 860.888 -31.9961Z" fill="#FAFAFA"/>
<path d="M36.7287 60.4621C30.045 63.8764 23.6884 67.1546 17.2924 70.3462C15.3043 71.3359 13.2508 72.3132 11.1058 72.8822C7.18188 73.9213 3.21876 72.474 0.995224 69.5422C-1.18907 66.6474 -1.28063 62.5898 0.982141 59.3982C1.96311 58.0251 3.21876 56.7633 4.55288 55.687C6.44942 54.1654 8.43752 52.7057 10.5695 51.5057C33.0795 38.7516 55.6288 26.047 78.1519 13.33C88.9556 7.23123 99.7332 1.09538 110.55 -4.99098C112.277 -5.96826 114.029 -6.98265 115.9 -7.63829C121.171 -9.48152 126.625 -7.95993 129.62 -4.02607C132.628 -0.0674622 132.615 5.40035 128.927 9.39607C126.468 12.0681 123.355 14.2578 120.36 16.4226C117.548 18.4514 114.487 20.1585 111.204 22.2121C112.355 23.0656 113.244 23.746 114.147 24.4017C132.785 37.7867 135.401 60.2889 120.255 77.1624C106.299 92.7247 80.7155 98.7863 60.7821 90.9805C47.1009 85.624 38.6645 76.2099 37.2127 61.86C37.2127 61.5507 37.0296 61.2538 36.7287 60.4621ZM79.8784 77.1377C91.7416 77.249 103.082 71.4967 108.353 62.7135C114.461 52.5449 110.733 42.1164 99.1839 38.0589C95.1292 36.6362 90.6821 36.1661 86.3789 35.4239C85.4241 35.2631 84.2077 35.56 83.3314 36.0177C74.1495 40.7062 64.9807 45.4441 55.8773 50.2563C55.1187 50.6645 54.2685 51.7408 54.2816 52.4954C54.3339 69.7153 65.5562 76.5316 79.8784 77.1377Z" fill="#FAFAFA"/>
<path d="M176.471 -6.06734C176.432 -14.232 179.166 -19.1307 184.934 -22.1863C188.008 -23.8192 191.395 -25.0563 194.783 -25.9964C212.27 -30.8705 229.156 -37.0805 245.309 -45.1091C249.822 -47.3482 254.504 -49.3398 259.252 -51.0717C261.737 -51.9748 264.549 -52.4944 267.205 -52.4449C272.214 -52.3459 276.138 -49.2038 277.459 -44.9112C278.741 -40.767 277.25 -36.2764 273.431 -33.4807C271.848 -32.3302 270.043 -31.4024 268.238 -30.586C248.762 -21.7286 229.3 -12.8465 209.746 -4.13752C206.816 -2.8386 206.227 -1.4902 206.738 1.49113C211.747 30.8714 216.495 60.2764 221.426 89.6691C222.276 94.7658 223.924 99.7387 224.683 104.848C225.232 108.559 225.703 112.542 224.84 116.105C223.1 123.292 215.318 125.655 208.843 121.449C204.671 118.74 202.474 114.757 201.493 110.266C199.753 102.349 198.537 94.3452 196.784 86.428C191.644 63.233 186.281 40.0875 181.115 16.9049C179.297 8.66609 177.766 0.365396 176.471 -6.06734Z" fill="#FAFAFA"/>
<path d="M444.368 152.87C433.342 151.151 418.287 149.073 403.363 146.364C393.135 144.508 383.025 141.947 372.966 139.325C369.723 138.483 366.557 136.813 363.824 134.921C357.048 130.257 356.133 122.463 361.338 116.266C362.594 114.781 364.098 113.482 365.498 112.109C381.821 96.114 398.236 80.2054 414.402 64.0617C418.836 59.633 423.205 56.9115 429.666 59.9299C430.438 60.2886 431.524 60.1278 432.452 60.0907C439.11 59.8062 444.224 62.8865 446.644 68.7254C446.945 69.4553 447.298 70.2099 447.389 70.9645C449.822 90.7328 457.565 109.276 462.235 128.525C463.085 132.014 463.856 135.589 463.974 139.151C464.288 148.021 457.788 153.65 444.368 152.87ZM422.813 83.8176C411.316 96.3367 400.028 108.621 388.453 121.226C404.344 125.952 420.38 127.659 437.2 129.267C432.295 113.779 427.613 98.9964 422.813 83.8176Z" fill="#FAFAFA"/>
<path d="M1097.42 403.388C1099.92 401.384 1101.78 399.677 1103.85 398.267C1107.88 395.508 1111.83 392.552 1116.2 390.35C1122.91 386.96 1129.77 388.346 1134.29 394.123C1137 397.586 1139.1 401.619 1140.75 405.664C1144.3 414.361 1147.27 423.255 1150.68 432.002C1157.38 449.184 1166.68 465.056 1177.95 479.925C1179.73 482.276 1181.39 484.812 1182.53 487.484C1184.33 491.69 1182.2 494.77 1177.41 495.451C1173.24 496.044 1169.46 494.733 1166.52 492.209C1161.54 487.917 1156.51 483.538 1152.28 478.589C1136.75 460.491 1126.93 439.671 1120.62 417.268C1120.05 415.215 1119.35 413.173 1118.7 411.145C1118.65 410.971 1118.39 410.86 1117.78 410.353C1114.93 413.309 1112.03 416.229 1109.23 419.235C1107.11 421.511 1105.27 424.022 1103.04 426.2C1096.15 432.905 1086.41 433.3 1079.72 426.41C1075.97 422.538 1073.04 417.652 1070.88 412.765C1064.89 399.195 1062.22 384.783 1060.08 370.284C1059.63 367.278 1059.16 364.26 1059.06 361.241C1058.85 355.304 1061.95 350.566 1067.11 348.487C1072.53 346.31 1079.13 347.349 1082.97 352.05C1085.79 355.514 1088.19 359.695 1089.28 363.901C1091.72 373.266 1093.2 382.841 1095.1 392.329C1095.77 395.83 1096.54 399.294 1097.42 403.388Z" fill="#FAFAFA"/>
<path d="M1180.15 234.604C1192.84 234.801 1206.5 238.092 1219.01 245.255C1225.72 249.102 1232.26 253.197 1238.99 256.982C1245.51 260.644 1250.05 266.111 1254.55 271.629C1256.34 273.818 1255.21 275.649 1253.12 277.06C1248.49 280.152 1243.24 280.684 1238.13 279.039C1229.38 276.218 1220.87 272.742 1212.19 269.699C1206.1 267.559 1200.02 265.246 1193.72 263.724C1171.32 258.318 1136.61 274.573 1127.58 295.281C1124.14 303.174 1123.78 310.423 1129.36 317.511C1131.75 320.542 1131.07 321.742 1127.05 322.15C1117.12 323.152 1109.28 318.588 1105.63 309.458C1101.74 299.698 1102.26 289.838 1105.31 280.004C1107.75 272.099 1111.98 265.085 1118.09 259.233C1134.63 243.374 1154.58 234.851 1180.15 234.604Z" fill="#FAFAFA"/>
<path d="M905.751 251.823C906.327 233.651 906.784 215.466 907.53 197.294C908.04 184.886 912.539 180.16 925.462 178.169C941.982 175.633 958.54 173.332 975.073 170.895C977.179 170.585 979.259 170.078 981.325 169.559C992.103 166.862 1003.21 173.616 1001.47 186.247C999.597 199.904 999.048 213.734 998.159 227.503C997.936 230.942 998.643 234.443 998.865 237.906C999.27 244.463 996.641 248.743 989.919 250.252C982.215 251.984 974.249 252.665 966.441 254.05C952.681 256.487 938.96 259.11 925.214 261.658C922.65 262.128 920.113 262.784 917.523 263.006C909.727 263.699 904.796 259.196 905.751 251.823ZM978.827 184.255C972.693 185.678 966.663 187.1 960.633 188.473C950.366 190.811 940.111 193.199 929.805 195.389C927.162 195.958 926.208 196.947 926.142 199.619C925.763 213.982 925.135 228.332 924.599 242.694C924.573 243.535 924.599 244.376 924.599 245.057C943.316 242.508 961.693 240.009 979.808 237.535C979.481 228.48 979.023 219.635 978.866 210.79C978.696 201.97 978.827 193.149 978.827 184.255Z" fill="#FAFAFA"/>
<path d="M352.196 325.998C351.673 343.143 346.899 358.743 337.612 372.969C335.297 376.519 331.962 379.624 328.548 382.321C324.375 385.612 320.386 385.043 316.515 381.492C316.004 381.022 315.507 380.503 314.906 380.181C297.863 371.386 290.722 356.726 289.361 339.457C287.465 315.408 295.352 293.846 310.55 274.635C313.768 270.565 319.261 269.427 325.108 271.208C330.798 272.928 334.97 276.54 338.279 281.055C345.891 291.459 349.423 303.285 351.228 315.643C351.738 319.206 351.908 322.794 352.196 325.998ZM321.903 294.057C316.488 310.114 311.741 325.565 315.089 342.067C316.122 347.127 318.058 351.889 321.367 356.232C332.746 340.36 333.152 309 321.903 294.057Z" fill="#FAFAFA"/>
<path d="M491.873 -66.4484C489.165 -70.3451 486.719 -73.7594 484.391 -77.2479C482.625 -79.9076 480.742 -82.5426 479.369 -85.3754C476.57 -91.1773 478.518 -97.276 483.776 -100.109C489.061 -102.954 495.613 -101.445 499.341 -96.0637C505.449 -87.231 511.701 -78.4479 517.116 -69.2318C525.069 -55.6859 532.38 -41.7937 539.823 -27.9881C541.209 -25.415 542.203 -22.5945 542.922 -19.774C543.733 -16.6689 543.171 -13.6629 540.071 -11.6959C537.128 -9.82797 534.002 -10.1867 531.386 -12.0547C528.182 -14.3309 524.689 -16.6442 522.492 -19.6874C516.201 -28.3839 510.459 -37.4392 504.56 -46.3832C502.755 -49.1295 501.146 -51.9995 499.341 -54.9932C493.233 -51.7026 487.386 -48.7212 481.762 -45.3812C480.768 -44.7874 480.271 -42.7586 480.297 -41.4102C480.677 -23.8934 481.344 -6.37657 481.579 11.1402C481.671 18.0802 481.095 25.0696 480.363 31.9848C480.062 34.7929 479.002 37.7371 477.498 40.1865C474.542 44.974 468.382 45.8151 464.562 41.6339C462.156 38.9989 460.599 35.2878 459.788 31.8116C458.886 27.9272 459.213 23.7707 459.095 19.7379C458.611 3.12409 458.101 -13.4897 457.722 -30.1158C457.591 -35.9424 457.617 -41.7937 457.97 -47.6079C458.323 -53.4716 462.077 -56.7745 467.911 -58.5312C475.811 -60.9311 483.58 -63.6897 491.873 -66.4484Z" fill="#FAFAFA"/>
<path d="M262.391 47.8811C264.065 88.4815 264.928 129.131 272.266 169.348C272.972 173.233 272.737 177.451 271.978 181.348C271.089 185.975 267.779 189.179 262.613 189.896C257.263 190.651 253.143 188.337 250.868 183.983C249.063 180.519 247.859 176.659 247.061 172.849C241.032 144.137 238.573 115.029 236.231 85.896C234.976 70.2472 232.491 54.6849 230.293 39.1103C229.221 31.5023 232.386 24.983 239.122 22.4841C245.937 19.9481 253.523 22.5955 257.826 29.1395C261.58 34.8424 262.495 41.2751 262.391 47.8811Z" fill="#FAFAFA"/>
<path d="M53.5752 251.724C55.3671 242.694 57.316 233.688 58.8986 224.62C60.2327 216.988 61.3837 209.318 62.1816 201.623C63.2672 191.219 70.3171 186.976 81.0424 189.611C95.4954 193.162 107.555 200.349 118.476 209.615C122.897 213.363 127.54 216.901 131.647 220.946C133.871 223.136 135.794 225.981 136.735 228.851C138.724 234.95 134.603 240.999 128.051 242.521C110.472 246.578 94.3313 253.741 78.9104 262.536C76.7784 263.749 74.7249 265.109 72.5014 266.186C63.7511 270.416 55.3933 266.099 54.3861 256.883C54.203 255.213 54.1638 253.518 54.0591 251.848C53.9153 251.786 53.7452 251.749 53.5752 251.724Z" fill="#FAFAFA"/>
<path d="M632.61 315.94C630.02 315.644 627.404 315.495 624.84 315.037C602.893 311.104 592.154 291.855 603.18 273.522C613.461 256.413 628.306 243.696 650.672 242.187C654.191 241.952 657.827 242.125 661.293 242.706C682.299 246.232 692.514 263.576 684.797 282.367C677.054 301.219 653.982 316.015 632.61 315.94ZM655.29 266C647.416 266.087 641.072 269.105 634.493 271.765C629.601 273.744 627.064 277.097 625.219 281.315C622.264 288.069 624.997 292.238 632.727 292.263C644.59 292.288 654.413 287.884 661.777 279.026C664.053 276.28 666.237 273.027 664.223 269.452C662.287 266.013 658.35 266.136 655.29 266Z" fill="#FAFAFA"/>
<path d="M174.418 292.09C174.248 285.175 177.138 281.067 183.717 279.36C192.52 277.072 201.493 275.365 210.347 273.249C217.136 271.629 223.846 269.748 230.608 268.016C237.802 266.173 240.47 267.781 243.818 273.954C247.31 280.387 249.181 287.08 250.149 294.156C250.41 296.098 251.535 297.953 252.268 299.834C254.373 305.19 251.901 310.176 246.238 311.957C229.81 317.153 213.395 322.336 196.967 327.519C195.502 327.977 194.037 328.459 192.533 328.769C184.947 330.303 179.1 326.963 177.91 319.689C176.367 310.275 175.477 300.749 174.418 292.09ZM195.463 310.374C206.607 306.823 217.24 303.434 227.926 300.019C226.435 295.356 225.049 291.001 223.597 286.449C222.917 286.449 222.041 286.276 221.295 286.473C212.296 288.935 203.297 291.434 194.351 294.044C193.789 294.205 193.161 295.455 193.252 296.11C193.854 300.675 194.639 305.203 195.463 310.374Z" fill="#FAFAFA"/>
<path d="M392.9 404.551C392.821 419.074 388.126 431.717 376.027 441.28C373.581 443.222 371.005 445.09 368.271 446.636C364.543 448.739 361.103 447.329 358.095 445.028C349.58 438.533 344.871 429.874 342.609 419.916C341.013 412.864 342.203 406.073 345.015 399.454C349.711 388.457 357.559 379.624 366.597 371.72C372.744 366.351 381.9 368.874 384.673 376.321C385.261 377.905 385.994 379.451 386.818 380.936C391.474 389.286 393.004 395.162 392.9 404.551ZM369.945 388.073C359.167 401.347 357.088 414.361 364.609 423.911C373.542 413.149 375.883 397.982 369.945 388.073Z" fill="#FAFAFA"/>
<path d="M852.53 430.344C831.603 426.385 814.416 418.901 803.508 402.003C796.615 391.327 792.573 379.587 790.886 367.18C790.01 360.673 792.769 355.811 798.106 353.968C803.403 352.137 809.263 354.091 812.912 359.275C814.678 361.774 816.051 364.557 817.32 367.34C819.19 371.472 820.877 375.678 822.512 379.897C827.535 392.824 836.233 402.782 848.645 410.069C854.675 413.607 860.286 417.813 865.95 421.883C868.513 423.726 866.591 425.73 864.943 426.398C860.666 428.093 856.14 429.231 852.53 430.344Z" fill="#FAFAFA"/>
<path d="M1377.49 348.71C1375.71 361.39 1381.27 371.151 1391.55 378.635C1398.2 383.472 1405.3 387.765 1412.36 392.057C1414.52 393.369 1415.03 394.717 1412.86 395.657C1409.17 397.253 1405.18 399.108 1401.27 399.245C1381.84 399.913 1357.98 382.544 1353.34 364.78C1351.43 357.444 1351.02 349.96 1353.98 342.884C1355.43 339.395 1357.9 335.758 1360.97 333.495C1367.95 328.373 1376.89 332.666 1377.47 340.979C1377.65 343.54 1377.49 346.125 1377.49 348.71Z" fill="#FAFAFA"/>
<path d="M1128.12 -46.7172C1128.17 -31.0683 1124.64 -16.3473 1114.7 -3.54367C1112.46 -0.67368 1109.36 1.86232 1106.12 3.70554C1102.81 5.58588 1099.77 4.20036 1099.16 0.600503C1098.61 -2.59112 1098.92 -6.06728 1099.62 -9.28364C1100.58 -13.7742 1102.26 -18.1286 1103.66 -22.5326C1108.86 -38.9732 1109.99 -55.5869 1106.17 -72.4357C1105.87 -73.747 1105.67 -75.0954 1105.63 -76.4314C1105.56 -79.153 1106.24 -81.6395 1109.01 -83.0003C1111.98 -84.4724 1115.14 -84.0518 1117.25 -81.8869C1119.76 -79.3014 1122.09 -76.2954 1123.51 -73.0914C1127.23 -64.7165 1128.16 -55.7601 1128.12 -46.7172Z" fill="#FAFAFA"/>
<path d="M523.499 54.1036C523.578 61.3652 522.662 68.4659 519.471 75.1585C516.894 80.5768 513.389 85.3766 507.856 88.4569C502.899 91.2279 497.667 91.8217 492.801 88.3827C488.027 85.0179 487.125 80.1315 488.616 75.0471C489.715 71.2988 491.454 67.6619 493.364 64.1981C498.975 54.0294 501.892 43.3288 501.46 31.8117C501.251 26.3563 503.317 23.3007 507.424 22.274C511.584 21.2348 515.9 23.3502 518.15 28.1871C521.969 36.4136 523.355 45.1597 523.499 54.1036Z" fill="#FAFAFA"/>
<path d="M1191.74 -22.3472C1191.65 -15.667 1189.32 -9.80335 1184.33 -5.00355C1175.4 3.60641 1160.9 2.98787 1153.53 -6.84678C1147.63 -14.7145 1145.23 -23.6708 1148.47 -33.3076C1153.61 -48.5605 1172.27 -52.581 1183.98 -40.9897C1188.94 -36.0909 1191.74 -29.3489 1191.74 -22.3472ZM1174.5 -24.4997C1174.11 -25.8233 1173.8 -27.8645 1172.89 -29.6087C1170.89 -33.4065 1167.28 -33.7776 1164.95 -30.2025C1163.54 -28.0377 1162.92 -25.2666 1162.5 -22.6935C1162.01 -19.6133 1165.38 -15.7289 1168.39 -15.333C1170.91 -14.999 1173.14 -17.1515 1173.97 -20.8256C1174.21 -21.8029 1174.26 -22.8173 1174.5 -24.4997Z" fill="#FAFAFA"/>
<path d="M742.779 123.886C743.996 123.429 745.343 123.057 746.533 122.439C754.446 118.332 762.307 114.151 770.207 110.019C773.634 108.225 776.983 106.246 780.579 104.811C782.908 103.883 785.641 103.339 788.139 103.462C792.94 103.697 795.229 108.398 792.403 112.097C791.056 113.866 789.16 115.437 787.158 116.551C772.627 124.629 758.004 132.595 743.381 140.537C741.746 141.428 739.993 142.182 738.202 142.752C731.596 144.855 724.743 141.613 724.389 135.106C723.892 125.853 724.481 116.501 725.37 107.26C725.815 102.634 730.511 99.9739 734.919 100.469C739.418 100.976 742.596 104.341 742.74 109.128C742.897 113.928 742.779 118.728 742.779 123.886Z" fill="#FAFAFA"/>
<path d="M548.861 237.276C547.291 246.232 545.826 255.188 544.087 264.108C543.694 266.136 542.622 268.165 541.392 269.909C538.397 274.19 534.055 276.268 528.587 275.538C523.107 274.796 519.366 271.641 518.11 266.681C517.286 263.39 517.247 259.766 517.679 256.376C518.712 248.248 520.151 240.17 521.55 232.092C523.028 223.52 528.326 218.695 535.533 219.153C542.7 219.61 547.618 225.165 548.154 233.49C548.233 234.715 548.167 235.952 548.167 237.189C548.403 237.214 548.625 237.239 548.861 237.276Z" fill="#FAFAFA"/>
<path d="M500.806 163.942C499.067 180.927 491.31 195.574 477.224 206.93C473.666 209.8 468.8 211.396 464.288 212.967C460.992 214.118 457.552 213.19 455.446 210.233C453.301 207.215 454.125 204.097 456.322 201.462C460.076 196.972 464.157 192.716 467.95 188.251C472.188 183.253 476.347 178.206 480.337 173.035C483.371 169.101 485.647 164.808 486.052 159.786C486.157 158.487 486.772 157.176 487.4 155.976C488.747 153.378 490.8 151.609 494.122 151.918C497.602 152.24 499.341 154.466 500.061 157.386C500.531 159.328 500.531 161.382 500.806 163.942Z" fill="#FAFAFA"/>
<path d="M31.6141 16.5216C30.9339 18.7978 30.3977 20.7276 29.7829 22.6327C28.2003 27.5315 24.9173 30.0056 21.0065 29.3128C17.0564 28.6077 14.6106 25.2305 15.3561 20.1462C16.0101 15.6309 17.1349 11.0785 18.8614 6.83539C21.2158 1.03357 26.3561 -0.401461 32.2157 2.35719C35.6033 3.953 38.991 5.62304 42.5225 6.88485C43.7389 7.31782 45.7139 7.02092 46.8518 6.34054C57.6294 -0.178787 68.2762 -6.87129 79.0146 -13.4401C80.074 -14.0834 81.4081 -14.405 82.6769 -14.6524C85.3451 -15.1596 87.6994 -14.504 89.2036 -12.2649C90.7731 -9.92684 90.6031 -7.329 88.7327 -5.36207C87.1239 -3.6673 84.9266 -2.41787 82.8469 -1.19318C75.3261 3.27262 67.6746 7.54051 60.2323 12.1176C57.891 13.565 55.9029 15.6185 54.0456 17.6349C51.0111 20.9379 47.4796 21.8286 43.1895 20.3812C39.5272 19.1318 35.8388 17.9195 31.6141 16.5216Z" fill="#FAFAFA"/>
<path d="M1053.96 237.275C1040.9 237.362 1033.83 227.589 1038.31 215.59C1039.65 212.027 1041.11 208.514 1042.67 205.025C1045.76 198.085 1055.59 194.349 1064.18 196.762C1075.94 200.077 1081.41 210.765 1076.86 221.54C1073.04 230.558 1063.35 237.214 1053.96 237.275ZM1055.98 208.563C1055.96 208.947 1055.94 209.318 1055.92 209.701C1055.45 210.852 1055.13 212.918 1054.48 213.017C1050.11 213.697 1050.23 217.062 1049.6 219.858C1048.66 224.15 1051.01 226.216 1055.62 225.412C1060.1 224.633 1065.31 219.845 1065.58 215.491C1065.69 213.821 1064.58 211.371 1063.16 210.493C1061.19 209.268 1058.42 209.157 1055.98 208.563Z" fill="#FAFAFA"/>
<path d="M695.797 143.865C695.797 146.549 696.425 149.407 695.679 151.906C693.822 158.103 688.185 159.922 682.234 160.689C669.416 162.347 656.31 148.887 659.2 136.962C660.979 129.639 666.159 125.012 673.81 123.33C681.253 121.697 686.981 124.74 691.337 130.356C694.437 134.364 695.954 138.904 695.797 143.865ZM678.179 138.038C677.695 138.063 677.211 138.088 676.727 138.125C676.322 139.424 675.288 140.933 675.668 141.985C676.256 143.63 677.499 145.473 679.016 146.314C680.677 147.242 681.697 145.622 681.174 144.137C680.442 142.022 679.199 140.067 678.179 138.038Z" fill="#FAFAFA"/>
<path d="M1202.71 183.525C1206.46 185.95 1210.01 188.164 1213.48 190.477C1217.15 192.939 1220.17 195.896 1220.92 200.337C1221.44 203.466 1220.62 206.213 1217.62 207.92C1214.76 209.553 1211.89 209.033 1209.26 207.264C1201.66 202.143 1194.03 197.058 1186.53 191.776C1184.79 190.551 1183.13 188.857 1182.21 187.026C1180.27 183.104 1182.31 179.158 1186.75 176.622C1195.99 171.377 1205.14 165.996 1214.33 160.664C1214.84 160.367 1215.32 160.033 1215.84 159.786C1219.18 158.177 1222.66 158.846 1224.36 161.431C1226.08 164.029 1225.26 167.183 1222.21 169.385C1216.74 173.344 1211.25 177.265 1205.77 181.212C1204.86 181.88 1203.94 182.585 1202.71 183.525Z" fill="#FAFAFA"/>
<path d="M168.322 116.365C167.799 121.004 167.302 125.643 166.753 130.282C166.007 136.455 159.507 140.24 153.595 137.259C146.61 133.733 139.926 129.577 133.478 125.198C129.358 122.402 129.201 117.07 133.19 114.064C140.136 108.819 147.356 103.846 154.824 99.2935C159.637 96.3617 166.962 101.347 167.812 107.891C168.178 110.65 167.878 113.495 167.878 116.291C168.021 116.328 168.165 116.353 168.322 116.365Z" fill="#FAFAFA"/>
<path d="M411.198 22.5583C401.649 21.8284 394.443 14.4431 395.594 5.8703C396.522 -1.13147 399.661 -7.30443 404.985 -12.2774C413.552 -20.2688 424.683 -17.5844 428.332 -6.76011C431.942 3.96522 429.862 11.8824 421.217 17.944C418.287 19.9975 414.559 21.049 411.198 22.5583Z" fill="#FAFAFA"/>
<path d="M573.699 273.385C573.15 281.983 571.031 289.974 567.068 297.521C566.754 298.127 566.362 298.696 565.969 299.252C562.765 303.78 558.082 305.957 553.674 304.955C549.044 303.904 545.709 299.92 545.604 294.267C545.526 290.494 546.258 286.684 546.873 282.936C547.605 278.507 548.73 274.14 549.476 269.711C550.692 262.524 554.904 258.367 561.208 258.405C567.408 258.429 572.156 262.796 573.294 269.588C573.529 270.887 573.582 272.247 573.699 273.385Z" fill="#FAFAFA"/>
<path d="M8.98689 97.4501C7.99284 104.538 4.84066 111.503 -3.62185 115.264C-10.3579 118.27 -18.1271 116.835 -23.2413 111.726C-28.2377 106.728 -29.0879 100.097 -25.4125 93.677C-21.8025 87.3556 -16.0737 83.5331 -8.73599 82.1104C0.772892 80.2672 9.01305 86.9969 8.98689 97.4501ZM-6.40781 101.174C-6.83944 100.753 -7.27107 100.332 -7.68962 99.9118C-8.8537 100.963 -10.0309 102.015 -11.195 103.066C-10.6848 103.462 -9.8216 104.254 -9.73004 104.18C-8.56595 103.24 -7.49342 102.188 -6.40781 101.174Z" fill="#FAFAFA"/>
<path d="M465.962 413.879C464.89 413.483 462.797 412.988 460.992 412.023C445.833 403.883 434.114 392.267 424.147 378.944C421.374 375.233 421.923 371.039 425.115 368.652C428.306 366.264 432.688 366.771 435.84 370.322C445.898 381.653 457.487 391.339 470.357 399.702C474.281 402.25 475.602 405.603 474.333 408.931C473.13 412.159 470.566 413.681 465.962 413.879Z" fill="#FAFAFA"/>
<path d="M1018.99 53.6704C1018.6 63.8391 1016.39 72.6593 1012.83 81.1827C1008.44 91.6977 999.899 97.8336 988.781 101.075C983.981 102.485 981.247 100.023 982.712 95.4213C983.366 93.3678 984.935 91.5369 986.309 89.7432C987.133 88.667 988.245 87.7268 989.409 86.9722C1001.8 78.9313 1005.31 66.8328 1006.6 53.6828C1006.78 51.7901 1006.87 49.8479 1007.34 48.017C1008.02 45.3821 1009.84 43.6007 1012.85 43.5759C1015.87 43.5512 1017.75 45.2831 1018.35 47.9675C1018.85 50.1324 1018.86 52.3962 1018.99 53.6704Z" fill="#FAFAFA"/>
<path d="M300.623 -25.8231C307.96 -25.7365 312.054 -20.7759 309.909 -15.84C308.719 -13.0814 306.548 -10.1372 303.945 -8.59083C294.606 -3.06115 284.979 2.04793 275.287 7.00855C271.625 8.88889 267.989 7.76315 266.066 5.10346C264.17 2.48089 264.628 -0.95814 267.4 -3.81576C268.512 -4.96623 269.781 -6.01772 271.102 -6.95789C278.348 -12.0546 285.542 -17.2132 292.945 -22.0996C295.692 -23.9057 298.949 -25.019 300.623 -25.8231Z" fill="#FAFAFA"/>
<path d="M144.138 206.547C143 206.176 140.803 205.644 138.815 204.741C130.496 200.968 124.139 194.881 118.28 188.362C114.67 184.354 115.127 178.911 118.698 175.459C122.308 171.983 128.286 171.649 132.654 174.952C134.577 176.4 136.159 178.28 137.716 180.111C141.444 184.478 145.106 188.881 148.703 193.347C149.841 194.758 150.926 196.304 151.593 197.937C153.582 202.774 150.717 206.522 144.138 206.547Z" fill="#FAFAFA"/>
<path d="M871.234 203.652C870.24 203.442 868.33 203.232 866.577 202.613C859.135 200.003 851.706 197.38 844.368 194.547C839.359 192.605 837.436 189.203 838.731 185.443C840.026 181.657 844.29 179.294 849.168 180.742C857.853 183.303 866.329 186.482 874.87 189.451C875.733 189.748 876.492 190.378 877.224 190.935C880.455 193.409 881.567 196.527 880.324 199.508C879.173 202.23 876.06 203.825 871.234 203.652Z" fill="#FAFAFA"/>
<path d="M1039.4 315.99C1030.26 316.287 1023.09 309.322 1025.12 301.85C1027.27 293.896 1037.53 289.863 1045.1 293.809C1050.25 296.494 1053.89 299.97 1053.67 305.895C1053.46 311.524 1049.56 315.186 1043.56 315.656C1042.26 315.742 1040.96 315.854 1039.4 315.99Z" fill="#FAFAFA"/>
<path d="M968.311 154.12C966.819 153.947 965.407 154.157 964.531 153.613C962.869 152.586 960.594 151.299 960.28 149.79C959.913 148.095 961.064 145.794 962.242 144.223C963.079 143.085 964.975 142.368 966.532 142.046C972.98 140.673 979.441 139.275 985.981 138.347C990.311 137.729 993.057 139.436 993.711 142.145C994.391 144.99 991.959 148.924 988.427 149.951C983.915 151.262 979.297 152.277 974.68 153.266C972.509 153.736 970.246 153.872 968.311 154.12Z" fill="#FAFAFA"/>
<path d="M287.491 27.0365C284.692 26.9251 282.168 25.7994 280.912 23.0284C279.552 20.0471 279.879 16.7194 282.717 15.0988C288.041 12.068 293.639 9.17328 299.512 7.40428C304.482 5.90744 308.092 10.4969 306.235 14.9998C304.246 19.8615 293.325 26.9746 287.491 27.0365Z" fill="#FAFAFA"/>
<path d="M858.599 208.007C863.125 208.081 866.029 209.417 866.578 211.928C867.114 214.39 864.982 217.111 860.784 218.188C855.643 219.524 850.385 220.489 845.127 221.293C841.57 221.837 838.875 220.068 838.195 217.359C837.45 214.365 839.111 211.223 842.799 210.394C847.979 209.244 853.328 208.774 858.599 208.007Z" fill="#FAFAFA"/>
<path d="M374.3 353.324C369.775 353.312 366.335 350.058 366.4 345.865C366.479 341.139 370.638 337.193 375.491 337.255C380.147 337.317 383.914 341.09 383.875 345.655C383.836 349.873 379.519 353.324 374.3 353.324Z" fill="#FAFAFA"/>
<path d="M879.003 67.81C875.289 67.9461 873.13 65.2987 874.111 62.2803C874.805 60.1649 876.073 58.2351 877.08 56.2064C878.637 53.0766 880.18 49.9344 881.724 46.7923C882.875 44.4295 884.758 43.279 887.439 44.1821C889.859 44.9986 890.696 47.1263 889.833 49.118C887.309 54.8827 884.497 60.5361 881.593 66.14C881.109 67.0678 879.553 67.476 879.003 67.81Z" fill="#FAFAFA"/>
<path d="M217.214 360.66C217.724 358.52 217.62 356.627 218.562 355.601C219.883 354.141 221.936 352.545 223.767 352.434C225.441 352.335 228.123 353.72 228.842 355.143C230.974 359.349 231.615 363.963 229.352 368.404C227.22 372.573 222.721 372.969 220.262 368.973C218.64 366.375 218.091 363.184 217.214 360.66Z" fill="#FAFAFA"/>
<path d="M336.239 46.0997C340.581 46.0626 343.929 48.9945 343.916 52.8046C343.903 56.6643 340.319 59.9177 336.069 59.9301C332.027 59.9548 328.522 56.6024 328.404 52.5943C328.286 48.9079 331.621 46.1368 336.239 46.0997Z" fill="#FAFAFA"/>
<path d="M1233.8 -0.525215C1237.69 -0.562326 1240.5 1.86232 1240.6 5.35084C1240.69 8.80225 1237.78 11.6722 1234.18 11.6599C1230.41 11.6475 1226.78 8.31978 1226.72 4.83126C1226.66 1.40459 1229.16 -0.475732 1233.8 -0.525215Z" fill="#FAFAFA"/>
<path d="M665.309 30.6735C671.325 30.8343 678.035 32.6404 683.215 37.935C687.884 42.7225 688.512 49.1552 684.993 54.0293C683.097 56.6518 680.651 57.3198 677.303 56.8003C665.832 54.9942 654.649 56.3549 643.884 60.462C642.642 60.9321 641.53 61.9836 640.64 62.9856C638.691 65.1876 637.24 64.5443 635.984 62.4661C633.682 58.6312 633.682 54.4994 634.741 50.3676C637.527 39.4566 650.529 30.7477 665.309 30.6735Z" fill="#FAFAFA"/>
</g>
</svg>
