<svg width="414" height="256" viewBox="0 0 414 256" fill="none" xmlns="http://www.w3.org/2000/svg">
<g clip-path="url(#clip0_1_19955)">
<path d="M0 0H414V256H0V0Z" fill="#D7D1FF"/>
<g opacity="0.05">
<path d="M182.068 184.697C187.951 177.588 193.946 171.092 201.054 165.877C200.79 165.467 200.65 165.161 200.439 164.927C195.733 159.543 193.776 152.956 193.624 145.6C193.612 144.897 193.682 144.174 193.846 143.497C194.21 142.013 195.048 140.991 196.466 140.743C197.925 140.483 199.173 141.043 199.876 142.455C200.403 143.517 200.743 144.74 200.954 145.945C201.822 150.859 202.999 155.599 205.918 159.615C206.873 160.93 207.564 161.216 208.865 160.09C213.102 156.419 217.485 152.956 221.71 149.271C225.771 145.73 230.792 146.778 233.113 151.914C233.822 153.489 234.332 155.201 234.759 156.9C236.623 164.302 238.404 171.73 240.25 179.144C240.889 181.709 241.627 184.241 242.307 186.793C244.645 195.601 249.737 202.084 256.329 207.305C256.54 207.474 256.781 207.598 257.167 207.839C257.443 207.227 257.701 206.667 257.941 206.101C260.841 199.187 263.437 192.092 266.707 185.4C270.457 177.731 274.706 170.343 278.942 162.98C281.228 159.003 286.29 159.335 288.464 163.638C289.877 166.437 290.926 169.562 291.635 172.68C292.801 177.771 293.609 182.972 294.482 188.14C295.965 196.929 298.532 205.287 302.381 213.151C304.673 217.825 306.964 222.499 309.296 227.146C313.38 235.29 318.625 242.444 324.953 248.511C328.112 251.538 331.663 254.149 335.296 256.447C340.751 259.897 346.43 262.898 352.014 266.087C352.295 266.25 352.588 266.4 352.887 266.524C355.084 267.402 355.325 267.956 354.364 270.364C353.385 272.812 351.586 274.296 349.23 274.166C346.553 274.023 343.746 273.775 341.261 272.766C336.075 270.657 330.954 268.249 325.996 265.534C316.527 260.333 309.232 252.196 302.921 243.004C296.844 234.151 291.64 224.64 287.07 214.719C282.839 205.528 281.011 195.574 279.792 185.452C279.675 184.456 279.528 183.466 279.382 182.477C279.37 182.392 279.241 182.327 279.054 182.138C278.778 182.646 278.485 183.115 278.263 183.616C273.92 193.589 270.112 203.783 268.014 214.674C266.812 220.917 261.814 224.211 256.511 221.822C244.34 216.327 234.361 207.956 229.691 193.726C226.89 185.185 224.786 176.364 222.372 167.667C222.202 167.049 222.055 166.424 221.833 165.552C221.276 165.936 220.842 166.209 220.426 166.522C217.901 168.397 215.469 170.434 212.85 172.12C202.255 178.936 193.712 188.219 186.299 198.907C185.584 199.936 184.881 200.984 184.072 201.921C180.826 205.697 175.974 205.56 173.337 201.244C171.978 199.025 171.093 196.265 170.583 193.609C166.968 174.822 167.471 156.119 171.983 137.58C172.968 133.531 174.064 129.501 175.365 125.563C179.062 114.36 185.174 105.044 192.956 96.79C208.414 80.3986 227.054 70.3737 246.784 62.2952C253.921 59.3724 261.076 56.4495 268.037 53.071C271.752 51.2678 275.192 48.6639 278.567 46.1186C282.042 43.4952 284.198 39.7326 284.96 35.0652C285.13 34.0171 285.382 32.9886 285.652 31.9666C286.038 30.4889 286.789 29.3627 288.312 29.3952C289.812 29.4278 290.662 30.5279 290.955 32.0187C291.699 35.8203 291.834 39.635 290.826 43.4236C289.507 48.345 286.894 52.394 283.419 55.6098C280.53 58.2787 277.471 60.8956 274.126 62.7379C266.982 66.6762 259.716 70.3802 252.31 73.6546C241.738 78.3286 231.706 84.1677 221.833 90.365C218.938 92.1812 216.301 94.5832 213.746 96.9788C210.002 100.481 206.421 104.198 202.8 107.863C195.798 114.946 190.852 123.538 187.811 133.466C184.418 144.539 181.869 155.839 181.394 167.563C181.183 172.797 181.623 178.063 181.781 183.317C181.799 183.636 181.916 183.961 182.068 184.697Z" fill="#121212"/>
<path d="M445.806 149.265C442.864 149.069 439.987 149.108 437.18 148.627C432.498 147.832 428.179 145.769 424.201 142.931C418.821 139.083 416.389 133.101 414.983 126.5C413.594 119.978 413.934 113.448 415.475 107.01C418.253 95.4165 423.708 85.678 431.977 77.9119C438.516 71.7733 445.741 66.7869 453.253 62.2887C453.851 61.9307 454.443 61.5466 454.965 61.2211C453.646 58.8646 452.392 56.6253 451.109 54.3404C448.677 54.9262 446.122 55.7009 443.52 56.1436C438.651 56.9768 433.963 56.2607 429.609 53.5462C422.894 49.354 420.474 42.2128 423.158 34.2189C425.642 26.7979 430.418 21.3558 435.932 16.6623C437.895 14.9893 440.075 15.2042 441.51 16.7339C442.858 18.1726 443.016 20.3924 441.716 22.7749C440.391 25.1965 438.797 27.4424 437.491 29.877C436.084 32.5069 434.707 35.1889 433.629 37.9946C432.744 40.299 433.225 41.7181 435.258 42.8703C436.975 43.8403 438.915 44.6865 440.807 44.8427C443.649 45.0771 446.532 44.6474 449.398 44.5107C450.318 44.4652 450.558 43.8468 450.781 42.9354C451.413 40.3771 452.117 37.8383 452.96 35.3581C453.306 34.3491 453.974 33.3922 454.683 32.6371C455.984 31.2505 457.607 30.9576 459.283 31.6802C460.918 32.3832 461.838 33.8218 461.985 35.7292C462.067 36.8293 461.914 37.962 461.768 39.0687C461.381 41.9329 460.795 44.7646 460.555 47.6419C460.297 50.747 461.041 53.5657 463.637 55.2843C464.176 55.6423 465.143 55.8181 465.647 55.5251C469.971 52.9929 474.355 50.5452 478.474 47.6484C482.775 44.6214 484.486 39.7326 485.084 34.4012C482.629 33.8023 480.208 33.4378 477.923 32.6176C465.161 28.0543 459.312 16.1025 462.705 1.61193C465.495 -10.3073 473.153 -16.2572 483.455 -18.503C491.881 -20.3387 499.552 -17.8065 506.249 -12.0063C516.07 -3.51119 520.946 7.96538 522.036 21.5706C522.452 26.7784 522.299 31.9601 521.262 37.0962C518.76 49.4646 512.203 58.1551 501.907 63.4019C492.409 68.2451 482.382 69.3452 472.081 68.2451C470.651 68.0954 469.18 68.0172 467.821 67.5615C465.905 66.9236 464.364 67.4704 462.723 68.551C454.25 74.1363 445.847 79.8323 438.293 86.9409C432.727 92.1812 428.22 98.3133 425.349 105.819C423.122 111.652 422.038 117.68 423.292 123.994C424.488 130.015 427.218 134.969 431.941 138.354C436.518 141.629 441.329 144.363 447.066 145.814C447.423 143.536 447.769 141.368 448.097 139.194C448.273 138.029 448.314 136.825 448.612 135.705C449.38 132.802 451.683 131.142 454.191 131.571C456.599 131.981 458.346 134.292 458.433 137.202C458.439 137.437 458.463 137.684 458.422 137.912C456.91 147.487 454.396 156.555 447.821 163.547C444.27 167.322 440.081 169.92 435.276 170.903C427.429 172.511 419.542 173.878 411.649 175.193C404.693 176.351 397.755 177.51 391.034 179.932C385.063 182.08 381.043 186.48 379.238 193.062C378.518 195.698 378.582 198.634 378.512 201.44C378.465 203.445 378.078 204.226 376.226 204.324C373.613 204.46 371.755 202.93 370.39 200.659C368.163 196.961 367.056 192.873 367.484 188.388C368.409 178.604 372.892 171.476 380.738 167.036C387.419 163.254 394.614 161.236 402.045 160.663C411.438 159.941 420.866 159.706 430.271 159.159C432.545 159.029 434.848 158.717 437.057 158.105C441.411 156.907 444.188 153.685 445.806 149.265ZM479.271 58.422C486.959 58.6433 494.295 57.4325 500.812 52.6739C505.242 49.4386 508.283 45.0315 509.882 39.3876C511.394 34.0432 511.629 28.6076 511.107 23.0809C510.187 13.3033 507.035 4.77564 500.108 -1.7015C494.049 -7.36492 486.414 -8.04844 479.628 -3.56327C476.417 -1.44111 474.36 1.60542 473.739 5.68048C472.251 15.4906 476.915 22.6057 485.289 27.0192C485.289 26.3292 485.295 25.6978 485.289 25.0728C485.271 23.3022 485.148 21.5185 485.26 19.7609C485.365 17.9903 486.15 16.6167 487.791 16.0699C489.256 15.5817 490.897 16.1676 491.811 17.8015C492.467 18.9798 493.118 20.3468 493.235 21.6878C493.592 25.7889 494.067 29.9421 493.815 34.0237C493.229 43.6124 489.414 51.3069 481.92 56.4886C481.023 57.107 480.156 57.7775 479.271 58.422Z" fill="#121212"/>
<path d="M338.729 -53.8506C339.421 -50.2377 340.206 -47.1651 340.563 -44.0405C341.437 -36.333 340.37 -28.7036 339.432 -21.0873C337.276 -3.52419 333.098 13.5312 328.926 30.5931C326.553 40.312 324.689 50.1807 324.982 60.3163C325.099 64.3523 325.644 68.4664 326.594 72.3592C328.188 78.8754 332.078 83.1002 338.085 84.8903C343.581 86.5308 349.084 86.9214 354.686 85.8082C364.805 83.8032 374.122 79.6761 382.426 72.893C389.293 67.2882 394.28 60.1145 396.173 50.7601C396.741 47.9544 396.688 44.8493 396.29 41.985C395.364 35.3061 391.866 30.9055 385.918 28.9982C379.437 26.9216 372.986 26.8825 366.581 29.2586C360.61 31.4719 355.459 35.228 351.105 40.2274C347.988 43.8142 345.439 48.0325 346.652 53.2533C348.427 60.8696 351.65 67.5746 358.436 71.3046C359.022 71.6236 359.414 72.3657 359.901 72.9125C359.338 73.2901 358.817 73.8369 358.201 74.0127C352.195 75.7638 346.921 74.1559 342.427 69.4754C339.333 66.2531 336.807 62.5166 334.932 58.2853C331.979 51.6063 331.791 44.7972 334.821 38.1313C336.104 35.3126 337.622 32.4223 339.638 30.2611C352.26 16.76 367.102 11.396 384.453 15.8617C384.764 15.9398 385.069 16.0569 385.373 16.1611C396.378 19.6633 402.865 27.6833 405.086 40.1493C406.468 47.9284 405.548 55.3364 402.63 62.471C400.275 68.2256 397.169 73.4789 393.032 77.8338C380.873 90.6384 366.411 97.5517 349.629 98.2157C345.128 98.3914 340.722 97.441 336.432 95.9243C324.859 91.8167 318.783 82.5078 316.562 69.7033C314.88 59.9843 316.005 50.3435 318.038 40.8654C320.617 28.8485 323.646 16.9553 326.236 4.94491C329.195 -8.75798 331.446 -22.6106 331.44 -36.7691C331.44 -39.9849 330.836 -43.2202 330.321 -46.4035C329.899 -49.0204 328.299 -50.459 325.926 -50.8431C324.554 -51.0644 323.177 -51.2532 321.836 -51.6112C319.24 -52.3013 317.417 -54.0003 316.943 -57.0208C316.474 -60.0217 317.54 -62.4954 319.837 -63.9666C321.601 -65.0928 323.605 -66.0106 325.603 -66.4142C338.524 -69.0181 351.263 -68.276 363.686 -63.2896C369.54 -60.9396 374.579 -57.1445 379.039 -52.3663C385.326 -45.6223 387.553 -37.036 388.051 -27.6816C388.057 -27.623 388.057 -27.5645 388.051 -27.5059C387.887 -26.1779 388.01 -24.3682 386.592 -24.1469C385.819 -24.0232 384.676 -25.1819 384.02 -26.0607C382.771 -27.7402 381.699 -29.5955 380.65 -31.4442C373.484 -44.0665 362.854 -50.6087 349.88 -52.8676C346.253 -53.4795 342.509 -53.5251 338.729 -53.8506Z" fill="#121212"/>
<path d="M150.718 236.475C146.874 239.131 142.884 241.852 138.952 244.664C138.641 244.885 138.442 245.875 138.624 246.265C139.907 249.039 141.073 251.922 142.708 254.422C144.958 257.859 147.624 260.951 150.033 264.265C150.853 265.397 151.609 266.68 152.078 268.027C152.845 270.26 152.4 272.382 150.777 274.016C149.195 275.611 147.384 275.663 145.403 274.882C144.571 274.55 143.499 274.413 142.667 274.693C137.118 276.548 131.574 278.443 126.095 280.539C124.214 281.261 122.521 282.602 120.757 283.69C120.06 284.119 119.427 284.686 118.724 285.083C116.989 286.072 115.231 286.144 113.585 284.861C111.979 283.611 111.493 281.808 111.721 279.719C111.973 277.434 112.389 275.149 112.454 272.857C112.63 266.419 112.647 259.975 112.747 253.53C112.77 252.131 112.893 250.738 112.987 248.973C110.016 249.924 107.239 250.679 104.543 251.714C98.2087 254.149 91.9328 256.766 85.6043 259.22C83.4479 260.059 81.2328 260.743 79.0061 261.316C75.0273 262.344 71.1716 259.142 70.5387 254.396C70.1168 251.258 70.9372 248.42 72.3494 245.758C74.705 241.331 77.6877 237.458 81.2621 234.242C87.0985 229.002 92.9231 223.716 99.0466 218.918C105.264 214.049 111.78 209.655 118.284 205.254C121.091 203.354 124.138 201.876 127.144 200.379C131.604 198.152 135.717 195.399 139.251 191.61C140.768 189.983 142.298 189.716 143.728 190.679C145.157 191.643 145.837 193.628 144.97 195.679C144.126 197.677 143.095 199.773 141.659 201.225C138.999 203.92 136.022 206.231 133.11 208.594C129.289 211.699 125.381 214.667 121.56 217.76C118.114 220.546 114.675 223.332 111.335 226.268C104.572 232.205 97.8747 238.232 91.1828 244.267C90.2921 245.068 89.583 246.109 88.54 247.34C89.6182 247.177 90.4327 247.125 91.2121 246.923C98.361 245.087 105.504 243.206 112.653 241.383C113.714 241.11 114.124 240.465 114.235 239.32C114.417 237.438 114.663 235.563 114.956 233.702C115.448 230.551 117.405 228.618 119.773 228.852C122.187 229.093 124.003 231.293 123.822 234.476C123.599 238.48 123.142 242.483 122.474 246.428C120.945 255.431 120.986 264.545 120.581 273.632C120.575 273.73 120.663 273.84 120.722 273.964C127.273 272.584 133.824 271.198 140.686 269.752C140.03 268.795 139.655 268.236 139.274 267.682C135.184 261.732 131.522 255.509 129.611 248.231C129.312 247.099 129.072 245.94 128.937 244.775C128.545 241.233 129.693 239.118 132.471 237.393C137.95 233.982 143.352 230.427 148.808 226.977C149.716 226.398 150.038 225.727 149.927 224.543C149.757 222.785 149.705 221.001 149.769 219.231C149.845 217.102 150.871 215.663 152.388 215.227C153.97 214.778 155.64 215.501 156.496 217.46C157.393 219.517 158.283 221.698 158.588 223.931C160.182 235.388 163.915 246.187 166.663 257.286C170.519 272.877 170.964 288.298 165.878 303.648C165.215 305.64 164.43 307.593 163.545 309.474C158.301 320.632 149.956 326.439 138.688 327.506C130.707 328.261 122.855 327.318 114.974 326.263C109.53 325.534 104.08 324.818 98.613 324.401C95.4428 324.16 92.2317 324.375 89.0557 324.649C84.2917 325.052 80.6234 327.63 78.0158 332.096C76.3165 335.005 74.9277 338.045 74.5234 341.528C74.2245 344.139 75.0801 345.03 77.4123 344.724C78.0627 344.64 78.7307 344.75 79.3929 344.77C79.2874 345.558 79.3226 346.41 79.0589 347.126C77.8869 350.329 75.1152 351.963 71.7869 351.514C67.7788 350.974 64.7844 347.94 63.8644 343.442C63.0734 339.601 63.6125 335.891 65.0012 332.349C69.5894 320.671 77.5529 314.253 89.0674 313.198C96.1812 312.547 103.213 313.419 110.262 314.122C117.048 314.799 123.822 315.802 130.619 316.088C134.721 316.258 138.876 315.47 142.977 314.864C145.89 314.435 148.439 312.872 150.554 310.588C159.32 301.142 163.961 289.802 162.848 276.073C162.573 272.643 161.752 269.18 160.703 265.925C157.521 256.121 154.117 246.441 150.718 236.475Z" fill="#121212"/>
<path d="M-40.2584 332.682C-32.9044 339.699 -24.0151 344.295 -17.581 352.614C-16.7958 351.905 -16.0282 351.299 -15.3426 350.59C-11.3697 346.482 -7.43188 342.342 -3.45308 338.247C-2.63271 337.401 -2.67373 336.718 -3.19524 335.65C-5.53916 330.813 -7.81863 325.931 -10.0336 321.016C-10.6196 319.714 -11.0708 318.269 -11.2818 316.837C-11.6802 314.181 -10.8833 311.896 -8.83823 310.347C-6.79902 308.804 -4.51955 308.7 -2.51551 310.171C-0.956802 311.317 0.560875 312.821 1.58048 314.539C4.32286 319.174 6.80155 324.004 9.35641 328.782C10.3526 330.651 11.2667 332.577 12.4094 334.856C16.9976 331.106 21.3866 327.526 25.8869 323.848C25.3888 323.041 25.0607 322.448 24.6798 321.902C21.9374 317.976 19.1364 314.103 16.4585 310.132C15.3158 308.44 14.2259 306.643 13.4583 304.716C12.1398 301.403 13.0539 297.881 15.4389 295.967C17.8238 294.053 21.035 294.287 23.5078 296.755C24.7677 298.011 25.9982 299.398 26.9124 300.966C30.3462 306.871 33.8093 312.762 36.9502 318.862C39.4113 323.64 38.1983 328.945 34.3309 332.33C29.2739 336.763 24.211 341.19 19.1247 345.577C13.0188 350.837 8.92281 350.713 3.01614 345.18C2.8169 344.991 2.60009 344.835 2.28366 344.581C1.60393 345.278 0.935909 345.942 0.285473 346.625C-4.29102 351.456 -9.58241 355.192 -14.7625 359.15C-19.0694 362.437 -22.515 361.012 -26.1949 358.466C-29.9862 355.85 -33.7599 353.194 -37.5278 350.538C-41.2136 347.947 -44.917 345.382 -48.5617 342.72C-54.8083 338.156 -53.7945 330.833 -50.8998 325.898C-49.8919 324.18 -48.6028 322.624 -47.2726 321.192C-37.7504 310.952 -28.3806 300.517 -18.5655 290.629C-11.6802 283.69 -4.32032 277.31 3.09232 271.054C15.644 260.457 27.4983 249.117 37.0498 235.049C38.2628 233.259 39.6281 231.586 41.011 229.952C41.6966 229.152 42.5228 228.429 43.4018 227.921C45.3062 226.821 47.24 226.919 48.9452 228.455C50.6504 229.985 51.1367 232.061 50.5683 234.366C50.3046 235.433 49.8534 236.475 49.3202 237.412C44.9312 245.152 39.9445 252.352 33.6042 258.282C25.8693 265.521 18.2457 272.916 10.3409 279.914C0.0686607 289.002 -9.09019 299.417 -18.6651 309.325C-25.5562 316.459 -32.2188 323.861 -38.981 331.152C-39.4029 331.601 -39.7721 332.089 -40.2584 332.682Z" fill="#121212"/>
<path d="M95.6538 77.7557C96.064 61.488 98.3903 46.5158 104.033 32.3637C109.6 18.3939 118.589 8.05655 131.305 1.91141C138.571 -1.59731 145.913 -4.57874 154.076 -4.04495C170.073 -2.99689 181.576 13.9543 177.996 31.3742C176.964 36.3932 174.474 40.4813 171.304 44.0746C164.436 51.8537 157.281 59.2682 149.253 65.5891C143.997 69.7293 138.876 74.0648 133.655 78.257C132.623 79.0837 132.424 79.8063 133.139 81.0041C135.489 84.9424 137.715 88.9784 140.118 92.8777C141.782 95.5793 143.997 97.5712 146.98 98.3068C147.443 98.4175 147.906 98.6193 148.316 98.8862C149.095 99.3939 150.32 99.8301 150.496 100.553C151.005 102.668 151.41 104.992 149.335 106.594C149.072 106.795 148.849 107.056 148.574 107.238C139.315 113.292 131.762 121.703 123.734 129.456C122.246 130.888 120.792 132.379 119.21 133.667C116.145 136.161 114.071 135.822 111.645 132.619C111.44 132.352 111.217 132.079 110.96 131.884C108.317 129.937 106.635 127.106 105.533 123.942C101.473 112.296 97.6285 100.566 96.357 88.0475C95.9702 84.3435 95.8413 80.6135 95.6538 77.7557ZM137.657 101.099C137.387 100.82 137.252 100.644 137.094 100.514C131.287 95.8787 127.179 89.6554 123.968 82.7031C121.191 76.6882 120.546 70.198 121.607 63.5386C121.894 61.7289 122.691 60.1991 124.179 59.2487C125.586 58.3439 127.191 58.5522 128.48 59.7565C130.145 61.3058 130.326 62.1911 129.605 64.4434C129.453 64.9187 129.582 65.511 129.582 65.7844C134.123 62.6663 138.489 59.3789 143.089 56.5732C151.457 51.4761 158.934 45.0576 166.118 38.1703C167.401 36.94 168.55 35.5144 169.622 34.0562C171.245 31.8429 172.101 29.2716 172.218 26.3878C172.775 13.1797 162.186 2.86183 150.226 5.89534C134.364 9.91182 122.011 19.6438 115.102 36.4778C107.825 54.1972 104.994 72.8735 107.625 92.1812C108.926 101.731 111.44 111.079 113.415 120.518C113.456 120.713 113.614 120.882 113.784 121.182C119.843 111.697 128.217 105.806 137.657 101.099Z" fill="#121212"/>
<path d="M267.709 -39.2558C265.359 -38.9043 263.22 -38.5593 261.075 -38.2663C254.946 -37.4331 248.828 -36.5543 242.687 -35.8447C241.187 -35.669 239.576 -35.8382 238.123 -36.2874C234.829 -37.3029 233.253 -40.7335 234.273 -44.3724C234.572 -45.4335 235.052 -46.4425 235.544 -47.4189C242.81 -61.7988 250.123 -76.1527 257.343 -90.5651C259.306 -94.4775 262.212 -96.5801 266.127 -97.0227C272.162 -97.7063 278.221 -98.1684 284.239 -98.9822C296.656 -100.655 309.05 -102.51 321.455 -104.262C322.609 -104.424 323.793 -104.509 324.959 -104.457C327.467 -104.34 329.377 -102.504 329.682 -100.043C330.004 -97.4589 328.639 -95.0438 326.066 -94.3798C322.756 -93.527 319.38 -92.9607 316.017 -92.3748C300.928 -89.7579 285.833 -87.1541 270.732 -84.6153C268.869 -84.3028 267.814 -83.3199 266.859 -81.5102C261.843 -72.0321 256.669 -62.6581 251.565 -53.2386C250.592 -51.4419 249.666 -49.6062 248.53 -47.4254C251.19 -47.6923 253.446 -47.9137 255.702 -48.1415C260.05 -48.5777 264.392 -49.0594 268.74 -49.4304C269.736 -49.5151 270.094 -49.9382 270.305 -50.9667C270.885 -53.8505 271.547 -56.7148 272.221 -59.5725C272.42 -60.4253 272.672 -61.2846 273.041 -62.0592C274.078 -64.2465 276.065 -65.2945 278.104 -64.8323C280.219 -64.3506 281.778 -62.4758 281.813 -59.9436C281.837 -58.1925 281.632 -56.3958 281.28 -54.6838C278.444 -40.7335 275.549 -26.7963 272.684 -12.8525C271.998 -9.51305 271.359 -6.16707 270.644 -2.52164C271.389 -2.58023 271.939 -2.58674 272.484 -2.66486C280.553 -3.86264 288.652 -4.87164 296.51 -7.3974C297.553 -7.72939 298.73 -7.74242 299.82 -7.61873C301.543 -7.42344 302.785 -6.3233 303.319 -4.44852C303.869 -2.50212 303.43 -0.679405 302.018 0.505356C300.817 1.50785 299.375 2.36061 297.928 2.7512C290.644 4.73014 283.319 6.52681 276.006 8.4016C273 9.16974 270.023 10.1332 266.982 10.6865C265.412 10.9729 263.636 10.9144 262.13 10.3936C259.546 9.50175 258.169 7.15826 258.157 4.17682C258.151 2.13928 258.468 0.049675 258.925 -1.93578C261.632 -13.6142 264.421 -25.2665 267.181 -36.9253C267.345 -37.6023 267.486 -38.2794 267.709 -39.2558Z" fill="#121212"/>
<path d="M67.5795 -130.04C61.8837 -120.048 53.5218 -114.814 43.5953 -112.119C42.6109 -111.852 41.6557 -111.481 40.6713 -111.233C30.1471 -108.617 22.2774 -101.658 15.9312 -92.3553C12.5501 -87.4015 10.7688 -81.7511 11.3782 -75.4367C11.5071 -74.0892 12.0228 -72.6961 12.6674 -71.5374C13.3588 -70.294 13.1186 -69.6561 12.1341 -68.9465C8.25493 -66.1408 2.92252 -68.0742 0.941908 -73.0606C-0.253489 -76.0551 -0.230058 -79.1732 0.402799 -82.2848C2.02596 -90.2787 5.28402 -97.2636 10.8743 -102.764C12.3861 -104.255 13.9155 -105.733 15.398 -107.263C20.6191 -112.646 26.7074 -116.246 33.5575 -118.342C37.1964 -119.462 40.8354 -120.607 44.445 -121.851C49.3965 -123.563 53.7855 -126.414 57.6354 -130.268C59.5633 -132.195 61.0634 -134.401 61.7724 -137.285C62.0361 -138.379 62.9795 -139.264 63.6182 -140.241C63.964 -140.761 64.4855 -141.224 64.6437 -141.803C65.5168 -145.025 68.5463 -146.203 70.7731 -143.866C71.9626 -142.623 72.865 -140.879 73.4979 -139.173C75.1445 -134.74 75.5839 -130.007 75.5956 -125.262C75.6425 -108.031 71.7751 -92.0364 63.0381 -77.6565C57.1432 -67.9505 51.3185 -58.1925 45.2009 -48.6688C42.1831 -43.9688 38.6731 -39.6334 35.2041 -35.324C29.8014 -28.606 24.5041 -21.8359 20.6425 -13.8355C17.7302 -7.79452 15.4566 -1.4671 14.3901 5.2574C13.8335 8.7531 13.9624 12.418 14.0913 15.9919C14.144 17.424 14.9468 18.8691 15.5621 20.2232C16.1891 21.6032 17.1384 22.43 18.6795 21.6553C18.9783 21.5056 19.5233 21.6423 19.8046 21.8766C19.9569 22.0003 19.8573 22.6383 19.746 22.9898C18.826 25.7824 16.2946 27.4815 13.7514 26.5441C12.0462 25.9192 10.3 24.8516 9.0167 23.465C3.4499 17.437 2.12558 9.92485 3.63155 1.72264C5.91687 -10.7304 11.1497 -21.6146 18.533 -31.2099C21.8145 -35.4737 25.3714 -39.4902 28.9341 -43.4676C33.1942 -48.2262 36.9503 -53.3949 40.3842 -58.9151C44.4977 -65.5289 48.6641 -72.1232 53.1468 -78.4181C63.4835 -92.9347 67.8373 -109.528 67.6908 -127.807C67.6732 -128.543 67.6146 -129.291 67.5795 -130.04Z" fill="#121212"/>
<path d="M85.3873 207.37C82.1702 206.42 78.877 205.697 75.7479 204.46C70.3042 202.312 65.3351 199.077 60.6179 195.392C45.7106 183.74 33.3875 169.347 23.7598 152.155C20.3963 146.153 17.648 139.819 16.7574 132.697C16.6109 131.532 16.5581 130.341 16.5992 129.163C16.816 122.445 20.7655 117.823 26.8245 117.855C29.7896 117.875 32.8659 118.604 35.6904 119.659C41.3802 121.781 46.49 125.185 51.1661 129.41C52.4318 130.556 54.0256 131.246 55.3031 132.365C69.2494 144.578 81.3792 158.645 90.831 175.427C93.4093 180.003 95.6302 184.794 96.5619 190.158C96.8432 191.773 97.019 193.446 96.9662 195.086C96.7435 202.39 92.2901 206.921 85.4986 206.882C85.4693 207.051 85.4283 207.214 85.3873 207.37ZM86.9929 193.557C86.5944 191.844 86.4303 190.009 85.7564 188.446C83.6645 183.61 81.7132 178.636 79.1114 174.151C70.6557 159.602 59.2643 148.08 46.9822 137.716C42.81 134.195 37.6534 132.099 32.8777 129.508C31.5709 128.798 30.0357 128.525 28.5707 128.277C26.3733 127.913 25.8049 128.544 26.2268 130.998C26.5315 132.782 26.93 134.644 27.7035 136.213C29.9243 140.717 32.0573 145.326 34.7586 149.466C44.2281 164.022 55.7836 176.299 69.0091 186.585C72.3492 189.182 75.9882 191.35 79.6271 193.426C81.3382 194.403 83.3481 194.767 85.2583 195.269C86.36 195.568 86.987 194.956 86.9929 193.557Z" fill="#121212"/>
<path d="M-58.0311 124.599C-51.9955 123.571 -46.0537 122.965 -40.4986 120.336C-40.2115 120.199 -39.9595 119.965 -39.7017 119.75C-37.1409 117.621 -34.797 117.875 -33.0215 120.843C-31.4394 123.493 -30.1971 126.396 -28.7556 129.15C-27.9411 130.705 -27.0211 132.19 -25.8843 134.169C-25.5737 132.704 -25.4155 131.799 -25.1869 130.914C-22.6438 121.097 -18.747 112.042 -12.9517 104.042C-11.1645 101.581 -8.89087 101.015 -6.24225 101.431C-3.08382 101.926 0.0687485 102.519 3.24476 102.838C5.04372 103.013 6.87784 102.727 8.69437 102.649C8.71195 102.479 8.72953 102.31 8.74711 102.141C8.52444 101.913 8.31348 101.679 8.07909 101.464C-5.63283 88.7636 -14.2936 72.7107 -17.745 53.2468C-18.1376 51.0204 -18.0028 48.6639 -17.9735 46.3725C-17.9618 45.5198 -17.6513 44.6344 -17.329 43.8403C-16.3738 41.4837 -14.4811 40.2404 -12.5181 40.5854C-10.5726 40.9239 -9.54131 42.5839 -9.03736 45.2724C-8.06464 50.4671 -7.10363 55.6879 -5.70314 60.7459C-4.88863 63.6883 -3.51743 66.5721 -1.89427 69.0783C2.81114 76.3301 8.0205 83.1327 14.0971 89.0565C17.8064 92.6694 21.8613 95.6704 26.3792 97.8967C27.2523 98.3263 28.1254 98.795 28.8989 99.4069C30.5045 100.676 31.2956 102.447 30.8737 104.641C30.4576 106.841 29.104 108.143 27.141 108.494C23.5724 109.132 19.9745 109.595 16.4058 110.239C14.519 110.584 12.6556 111.105 10.798 111.639C5.63556 113.136 0.514099 112.127 -4.5722 111.209C-6.55281 110.851 -7.73649 111.404 -8.7854 113.227C-13.3267 121.123 -16.9481 129.417 -18.1259 138.817C-18.1611 139.11 -18.1962 139.402 -18.249 139.695C-19.1514 144.91 -21.6945 146.159 -26.1245 144.122C-29.8279 142.423 -32.4238 139.578 -34.4337 135.933C-35.7346 133.563 -36.9065 131.103 -38.0902 128.661C-38.4945 127.828 -38.8227 127.49 -39.8071 127.809C-45.9892 129.788 -52.1713 131.78 -58.412 133.505C-63.094 134.8 -65.977 132.626 -66.7739 127.32C-67.4478 122.835 -67.7759 118.285 -68.3853 113.787C-68.6607 111.756 -69.1588 109.744 -69.7272 107.785C-71.0047 103.384 -68.7135 99.9212 -64.5823 99.8821C-61.1954 99.8496 -57.8143 99.472 -54.4332 99.3418C-53.2847 99.2963 -52.0248 99.2507 -50.9993 99.7064C-50.261 100.038 -49.4816 101.145 -49.3586 102.011C-49.2531 102.772 -49.8508 104.1 -50.472 104.458C-52.81 105.806 -55.2594 106.926 -57.7147 107.98C-58.8456 108.468 -59.2089 109.054 -59.0741 110.447C-58.6874 114.444 -58.4706 118.461 -58.1893 122.464C-58.1483 123.096 -58.0955 123.727 -58.0311 124.599Z" fill="#121212"/>
<path d="M206.849 301.806C207.429 301.259 207.921 300.823 208.384 300.354C223.508 284.998 238.638 269.648 253.739 254.259C255.579 252.385 257.161 250.191 259.048 248.381C260.249 247.229 261.714 246.168 263.22 245.706C265.195 245.1 267 246.083 268.254 247.945C269.502 249.807 269.73 251.916 268.799 253.966C268.289 255.086 267.492 256.141 266.619 256.954C260.384 262.768 254.032 268.424 247.85 274.303C235.398 286.144 223.028 298.089 210.64 310.021C209.802 310.829 209.04 311.753 208.367 312.736C206.228 315.848 201.903 316.928 199.905 313.152C199.776 312.912 199.548 312.697 199.319 312.573C195.598 310.523 193.489 306.871 191.971 302.861C184.851 284.1 182.085 264.727 186.275 244.632C187.178 240.316 188.906 236.162 190.617 232.126C191.977 228.924 194.01 227.921 196.038 228.631C198.176 229.379 199.085 231.508 198.745 235.075C198.651 236.071 198.51 237.067 198.329 238.05C195.217 255.099 196.325 271.796 201.733 288.116C203.093 292.211 204.64 296.234 206.116 300.283C206.286 300.765 206.55 301.201 206.849 301.806Z" fill="#121212"/>
<path d="M448.536 216.405C448.372 222.114 446.93 227.42 444.047 232.1C437.842 242.158 429.708 249.318 418.751 251.981C418.129 252.131 417.491 252.3 416.864 252.306C414.977 252.326 413.172 252.326 411.303 253.133C409.492 253.914 407.64 252.905 406.433 251.291C404.881 249.214 403.181 247.073 402.291 244.631C398.575 234.444 395.083 224.159 391.643 213.854C390.782 211.276 390.249 208.516 389.944 205.788C389.797 204.473 390.354 202.943 390.917 201.687C391.286 200.867 392.165 200.216 392.944 199.754C401.095 194.95 409.668 191.662 419.008 191.89C426.966 192.092 434.273 194.937 440.83 199.942C445.993 203.881 448.436 209.492 448.536 216.405ZM415.153 243.303C417.479 241.91 419.882 240.524 422.237 239.053C426.573 236.345 430.599 233.174 434.103 229.223C436.945 226.014 438.879 222.29 439.424 217.773C439.969 213.242 438.727 209.596 435.029 207.253C429.99 204.063 424.61 202.091 418.762 202.299C413.184 202.501 407.834 204.083 402.625 206.25C402.542 206.283 402.496 206.426 402.583 206.296C406.773 218.638 410.922 230.844 415.153 243.303Z" fill="#121212"/>
<path d="M225.846 -19.4664C229.515 -19.6616 233.183 -19.9351 236.851 -20.0132C238.644 -20.0522 240.484 -19.9351 242.225 -19.5119C244.422 -18.9716 245.037 -17.5135 245.477 -15.1179C246.162 -11.3488 245.365 -7.83355 244.504 -4.29879C242.406 4.25493 240.443 12.8607 238.041 21.3103C236.593 26.4074 234.554 31.3222 232.509 36.1719C231.976 37.4348 230.534 38.5545 229.286 39.0752C220.637 42.7011 211.121 39.9605 205.021 32.2205C200.55 26.5441 198.428 19.761 197.585 12.392C196.577 3.61697 197.198 -4.94976 200.222 -13.2106C201.112 -15.6387 202.648 -16.7714 204.98 -17.7934C210.242 -20.1108 215.557 -19.4143 220.889 -19.525C222.536 -19.564 224.188 -19.5315 225.841 -19.5315C225.846 -19.5184 225.846 -19.4924 225.846 -19.4664ZM236.294 -11.4464C232.802 -11.0363 229.433 -10.5872 226.057 -10.2487C220.239 -9.66278 214.408 -9.16154 208.589 -8.54962C208.214 -8.51057 207.675 -7.84657 207.593 -7.39089C206.673 -1.97483 206.087 3.49329 206.79 8.99397C207.675 15.8942 209.779 22.1631 214.842 26.7589C217.233 28.9266 220.016 29.7468 223.028 29.5385C223.532 29.506 224.282 28.868 224.446 28.3277C228.354 15.4581 232.198 2.56241 236.054 -10.3333C236.148 -10.6457 236.195 -10.9777 236.294 -11.4464Z" fill="#121212"/>
<path d="M49.6895 85.8342C44.7497 84.9294 38.0051 83.8357 31.319 82.4101C26.7367 81.4337 22.2071 80.0861 17.7009 78.7061C16.2477 78.2634 14.8296 77.3846 13.6049 76.3886C10.5695 73.9345 10.1593 69.8334 12.4915 66.5721C13.0541 65.7909 13.7279 65.1074 14.3549 64.3848C21.668 55.9678 29.022 47.5963 36.2647 39.1012C38.2512 36.7707 40.2084 35.3386 43.1031 36.927C43.4488 37.1157 43.9352 37.0311 44.3512 37.0116C47.3338 36.8619 49.625 38.4828 50.7091 41.5554C50.8439 41.9394 51.0021 42.3365 51.0431 42.7336C52.133 53.1361 55.602 62.8941 57.694 73.0232C58.0748 74.8589 58.4206 76.7402 58.4733 78.615C58.6139 83.2824 55.7016 86.2443 49.6895 85.8342ZM40.0325 49.4972C34.8818 56.0849 29.8248 62.5491 24.6389 69.1824C31.7585 71.6691 38.9426 72.5675 46.4783 73.4137C44.2809 65.2636 42.1831 57.4845 40.0325 49.4972Z" fill="#121212"/>
<path d="M342.263 217.662C343.382 216.607 344.214 215.709 345.146 214.967C346.951 213.515 348.72 211.959 350.678 210.801C353.684 209.017 356.754 209.746 358.782 212.786C359.995 214.609 360.938 216.731 361.677 218.86C363.265 223.436 364.595 228.116 366.124 232.719C369.124 241.761 373.291 250.113 378.342 257.937C379.139 259.174 379.883 260.509 380.393 261.915C381.201 264.128 380.246 265.749 378.101 266.107C376.232 266.419 374.539 265.729 373.22 264.401C370.988 262.142 368.738 259.838 366.839 257.234C359.883 247.711 355.483 236.755 352.658 224.966C352.4 223.885 352.09 222.811 351.797 221.743C351.773 221.652 351.656 221.594 351.387 221.327C350.109 222.883 348.808 224.419 347.554 226.001C346.605 227.198 345.779 228.52 344.783 229.666C341.695 233.194 337.329 233.402 334.335 229.776C332.653 227.739 331.34 225.167 330.373 222.596C327.69 215.455 326.494 207.871 325.533 200.242C325.334 198.66 325.123 197.072 325.076 195.483C324.982 192.359 326.371 189.865 328.686 188.772C331.112 187.626 334.071 188.173 335.788 190.647C337.054 192.469 338.126 194.67 338.618 196.883C339.708 201.811 340.37 206.849 341.226 211.842C341.525 213.684 341.87 215.507 342.263 217.662Z" fill="#121212"/>
<path d="M379.326 128.844C385.01 128.948 391.134 130.68 396.736 134.449C399.742 136.473 402.672 138.628 405.689 140.62C408.608 142.547 410.641 145.424 412.657 148.327C413.459 149.48 412.956 150.443 412.018 151.185C409.944 152.812 407.594 153.092 405.303 152.227C401.382 150.742 397.568 148.913 393.683 147.312C390.952 146.186 388.227 144.968 385.409 144.168C375.371 141.323 359.819 149.877 355.776 160.774C354.235 164.927 354.07 168.742 356.573 172.472C357.645 174.067 357.34 174.698 355.535 174.913C351.088 175.44 347.578 173.038 345.943 168.234C344.197 163.098 344.431 157.91 345.796 152.734C346.892 148.575 348.785 144.884 351.521 141.805C358.934 133.459 367.87 128.974 379.326 128.844Z" fill="#121212"/>
<path d="M256.394 137.905C256.651 128.342 256.857 118.773 257.191 109.211C257.419 102.681 259.435 100.195 265.224 99.1466C272.625 97.8121 280.044 96.6013 287.451 95.3189C288.394 95.1561 289.326 94.8892 290.252 94.6158C295.08 93.1967 300.055 96.751 299.276 103.397C298.438 110.584 298.192 117.862 297.793 125.107C297.693 126.917 298.01 128.759 298.109 130.582C298.291 134.032 297.113 136.284 294.101 137.079C290.65 137.99 287.081 138.348 283.583 139.077C277.419 140.359 271.272 141.739 265.113 143.08C263.964 143.328 262.828 143.673 261.667 143.79C258.175 144.155 255.966 141.785 256.394 137.905ZM289.132 102.349C286.384 103.098 283.683 103.847 280.981 104.569C276.381 105.799 271.787 107.056 267.17 108.208C265.986 108.507 265.558 109.028 265.529 110.434C265.359 117.992 265.078 125.543 264.838 133.101C264.826 133.544 264.838 133.986 264.838 134.344C273.223 133.003 281.456 131.688 289.572 130.387C289.425 125.621 289.22 120.967 289.15 116.313C289.074 111.671 289.132 107.03 289.132 102.349Z" fill="#121212"/>
<path d="M8.39561 176.937C8.16122 185.96 6.0224 194.168 1.86195 201.655C0.824766 203.523 -0.669497 205.157 -2.1989 206.576C-4.06818 208.307 -5.8554 208.008 -7.5899 206.14C-7.81843 205.892 -8.04111 205.619 -8.31066 205.45C-15.946 200.821 -19.1454 193.107 -19.7548 184.02C-20.6045 171.365 -17.071 160.019 -10.262 149.909C-8.82046 147.767 -6.35934 147.169 -3.74001 148.106C-1.191 149.011 0.678259 150.912 2.16079 153.288C5.57119 158.762 7.15335 164.986 7.962 171.489C8.19053 173.363 8.2667 175.251 8.39561 176.937ZM-5.17567 160.129C-7.60162 168.579 -9.72872 176.709 -8.22862 185.393C-7.76569 188.056 -6.89845 190.562 -5.41592 192.847C-0.317904 184.495 -0.136248 167.993 -5.17567 160.129Z" fill="#121212"/>
<path d="M70.972 -29.5759C69.759 -31.6265 68.6632 -33.4231 67.6202 -35.2589C66.8291 -36.6584 65.9853 -38.045 65.37 -39.5357C64.116 -42.5888 64.9891 -45.798 67.3448 -47.2888C69.7121 -48.786 72.6479 -47.9918 74.3179 -45.1601C77.0545 -40.5122 79.8554 -35.8903 82.2814 -31.0406C85.8441 -23.9125 89.1198 -16.6021 92.454 -9.33729C93.0751 -7.98328 93.5205 -6.49907 93.8428 -5.01486C94.2061 -3.38093 93.9541 -1.79908 92.5653 -0.764038C91.2469 0.218925 89.8464 0.0301476 88.6744 -0.952816C87.2388 -2.1506 85.6742 -3.36792 84.6898 -4.9693C81.8712 -9.54561 79.2987 -14.3107 76.656 -19.0172C75.8473 -20.4623 75.1266 -21.9726 74.3179 -23.5479C71.5814 -21.8164 68.9621 -20.2475 66.4424 -18.4899C65.997 -18.1774 65.7744 -17.1099 65.7861 -16.4003C65.956 -7.18259 66.2548 2.03512 66.3603 11.2528C66.4013 14.9048 66.1435 18.5827 65.8154 22.2217C65.6806 23.6994 65.2059 25.2487 64.5321 26.5376C63.2078 29.0568 60.4478 29.4995 58.7367 27.2992C57.6585 25.9126 56.9612 23.9598 56.5979 22.1305C56.1936 20.0865 56.3401 17.8992 56.2874 15.7771C56.0705 7.03456 55.842 -1.70794 55.6721 -10.457C55.6135 -13.523 55.6252 -16.6021 55.7834 -19.6617C55.9416 -22.7472 57.6234 -24.4853 60.2369 -25.4097C63.7762 -26.6726 67.2569 -28.1242 70.972 -29.5759Z" fill="#121212"/>
<path d="M134.024 171.645C132.863 171.489 131.691 171.411 130.543 171.17C120.71 169.1 115.899 158.971 120.839 149.323C125.445 140.32 132.096 133.628 142.116 132.834C143.692 132.711 145.321 132.802 146.874 133.108C156.285 134.963 160.861 144.089 157.404 153.978C153.935 163.898 143.599 171.684 134.024 171.645ZM144.184 145.365C140.657 145.411 137.815 146.999 134.867 148.399C132.676 149.44 131.539 151.205 130.713 153.424C129.389 156.979 130.613 159.172 134.076 159.185C139.391 159.198 143.792 156.881 147.091 152.22C148.111 150.775 149.089 149.063 148.187 147.182C147.319 145.372 145.556 145.437 144.184 145.365Z" fill="#121212"/>
<path d="M26.6313 218.274C26.5961 225.916 24.4925 232.569 19.0722 237.601C17.9764 238.623 16.822 239.606 15.5973 240.42C13.9273 241.526 12.3861 240.784 11.0384 239.573C7.22367 236.156 5.11413 231.599 4.10039 226.359C3.38549 222.648 3.91875 219.074 5.1786 215.592C7.28227 209.805 10.7981 205.157 14.8473 200.997C17.6014 198.172 21.7032 199.5 22.9455 203.419C23.2092 204.252 23.5373 205.066 23.9065 205.847C25.9926 210.241 26.6782 213.333 26.6313 218.274ZM16.3474 209.603C11.5189 216.588 10.5872 223.436 13.9566 228.461C17.9588 222.798 19.0077 214.817 16.3474 209.603Z" fill="#121212"/>
<path d="M232.55 231.847C223.174 229.763 215.475 225.825 210.588 216.933C207.499 211.315 205.689 205.137 204.933 198.608C204.54 195.184 205.777 192.626 208.167 191.656C210.541 190.692 213.166 191.721 214.801 194.448C215.592 195.763 216.207 197.228 216.776 198.693C217.613 200.867 218.369 203.08 219.102 205.3C221.352 212.103 225.249 217.343 230.81 221.177C233.511 223.039 236.025 225.252 238.562 227.394C239.711 228.364 238.849 229.418 238.111 229.77C236.195 230.662 234.167 231.261 232.55 231.847Z" fill="#121212"/>
<path d="M356.016 -19.1929C356.039 -10.9582 354.457 -3.21167 350.003 3.52586C349.001 5.0361 347.613 6.3706 346.159 7.34054C344.677 8.33001 343.318 7.60092 343.042 5.7066C342.796 4.02711 342.937 2.19788 343.247 0.505363C343.681 -1.85765 344.431 -4.14905 345.058 -6.4665C347.39 -15.1179 347.894 -23.8604 346.183 -32.7266C346.048 -33.4166 345.96 -34.1261 345.943 -34.8292C345.908 -36.2613 346.212 -37.5698 347.455 -38.2858C348.785 -39.0605 350.203 -38.8392 351.146 -37.7C352.271 -36.3394 353.314 -34.7576 353.953 -33.0716C355.617 -28.6645 356.033 -23.9515 356.016 -19.1929Z" fill="#121212"/>
<path d="M85.1411 33.861C85.1763 37.6822 84.7661 41.4188 83.3363 44.9405C82.1819 47.7917 80.6115 50.3175 78.1328 51.9384C75.9119 53.3966 73.568 53.709 71.3882 51.8994C69.2493 50.1287 68.845 47.5574 69.513 44.8819C70.0053 42.9095 70.7846 40.9956 71.6401 39.1729C74.154 33.822 75.4607 28.1911 75.2673 22.1306C75.1736 19.2598 76.0994 17.6519 77.9394 17.1116C79.8028 16.5648 81.7366 17.6779 82.7444 20.2232C84.4555 24.5522 85.0766 29.1545 85.1411 33.861Z" fill="#121212"/>
<path d="M384.518 -6.36896C384.477 -2.85373 383.434 0.231855 381.201 2.75761C377.199 7.28835 370.701 6.96286 367.402 1.78767C364.759 -2.35249 363.681 -7.0655 365.134 -12.1365C367.437 -20.163 375.799 -22.2786 381.043 -16.1791C383.264 -13.6012 384.518 -10.0534 384.518 -6.36896ZM376.795 -7.50165C376.619 -8.19819 376.484 -9.27228 376.074 -10.1901C375.178 -12.1886 373.56 -12.3839 372.517 -10.5026C371.884 -9.36342 371.609 -7.90525 371.421 -6.55123C371.199 -4.93032 372.711 -2.88629 374.058 -2.67797C375.189 -2.50221 376.185 -3.6349 376.56 -5.56828C376.666 -6.08254 376.689 -6.61634 376.795 -7.50165Z" fill="#121212"/>
<path d="M183.381 70.5822C183.926 70.3413 184.529 70.146 185.062 69.8205C188.608 67.6593 192.129 65.459 195.669 63.2848C197.204 62.3409 198.704 61.2993 200.316 60.5442C201.359 60.056 202.583 59.7696 203.702 59.8347C205.853 59.9584 206.878 62.432 205.613 64.3784C205.009 65.3093 204.16 66.1361 203.263 66.7219C196.753 70.9727 190.202 75.165 183.65 79.3442C182.918 79.8129 182.133 80.21 181.33 80.5094C178.371 81.6161 175.3 79.9105 175.142 76.4865C174.919 71.6172 175.183 66.6959 175.581 61.8331C175.781 59.3985 177.884 57.9989 179.859 58.2593C181.875 58.5262 183.299 60.2969 183.363 62.8161C183.433 65.3419 183.381 67.8676 183.381 70.5822Z" fill="#121212"/>
<path d="M96.5032 130.25C95.8 134.963 95.1437 139.676 94.3643 144.369C94.1885 145.437 93.708 146.505 93.1572 147.422C91.8153 149.675 89.8699 150.768 87.4205 150.384C84.9652 149.994 83.2893 148.334 82.7268 145.723C82.3576 143.992 82.34 142.085 82.5334 140.301C82.9963 136.024 83.6409 131.773 84.2679 127.522C84.9301 123.011 87.3033 120.472 90.532 120.713C93.7432 120.954 95.9465 123.877 96.1867 128.258C96.2219 128.902 96.1926 129.553 96.1926 130.204C96.2981 130.217 96.3977 130.23 96.5032 130.25Z" fill="#121212"/>
<path d="M74.9744 91.6604C74.195 100.598 70.7202 108.306 64.4092 114.282C62.8153 115.792 60.6355 116.632 58.6138 117.458C57.1372 118.064 55.596 117.575 54.6526 116.02C53.6916 114.431 54.0608 112.791 55.0452 111.404C56.727 109.041 58.5552 106.802 60.2546 104.452C62.1531 101.822 64.0166 99.1661 65.8038 96.445C67.1633 94.375 68.1829 92.1161 68.3645 89.4732C68.4114 88.7897 68.6868 88.0996 68.9681 87.4682C69.5716 86.1012 70.4916 85.1703 71.98 85.333C73.5387 85.5023 74.3181 86.674 74.6404 88.2103C74.8513 89.2323 74.8513 90.3129 74.9744 91.6604Z" fill="#121212"/>
<path d="M322.791 130.25C316.943 130.295 313.773 125.153 315.783 118.838C316.381 116.964 317.037 115.115 317.734 113.279C319.117 109.627 323.524 107.661 327.373 108.931C332.641 110.675 335.091 116.3 333.052 121.97C331.341 126.715 326.998 130.217 322.791 130.25ZM323.699 115.141C323.688 115.343 323.682 115.538 323.67 115.74C323.459 116.345 323.319 117.432 323.026 117.484C321.068 117.842 321.121 119.613 320.84 121.084C320.418 123.343 321.473 124.43 323.535 124.007C325.545 123.597 327.877 121.078 328 118.786C328.047 117.907 327.549 116.619 326.916 116.156C326.032 115.512 324.789 115.453 323.699 115.141Z" fill="#121212"/>
<path d="M162.332 81.0953C162.332 82.5079 162.613 84.0116 162.279 85.3266C161.447 88.5879 158.922 89.5448 156.256 89.9484C150.513 90.8207 144.641 83.7382 145.936 77.4629C146.733 73.6091 149.054 71.1745 152.482 70.2892C155.816 69.4299 158.383 71.0313 160.334 73.9867C161.723 76.0958 162.402 78.4849 162.332 81.0953ZM154.439 78.0292C154.222 78.0422 154.005 78.0552 153.789 78.0748C153.607 78.7583 153.144 79.5525 153.314 80.1058C153.578 80.9716 154.134 81.9415 154.814 82.3842C155.558 82.8724 156.015 82.0196 155.781 81.2385C155.453 80.1253 154.896 79.0968 154.439 78.0292Z" fill="#121212"/>
<path d="M389.434 101.965C391.116 103.241 392.704 104.406 394.257 105.624C395.903 106.919 397.257 108.475 397.591 110.812C397.825 112.459 397.456 113.904 396.114 114.802C394.831 115.662 393.548 115.388 392.37 114.457C388.965 111.762 385.543 109.087 382.186 106.307C381.406 105.663 380.662 104.771 380.252 103.807C379.379 101.744 380.293 99.6673 382.285 98.3328C386.422 95.5727 390.524 92.741 394.638 89.9353C394.866 89.7791 395.083 89.6033 395.317 89.4731C396.812 88.6269 398.37 88.9784 399.132 90.3389C399.906 91.706 399.537 93.3659 398.171 94.5247C395.722 96.6078 393.261 98.6713 390.805 100.748C390.395 101.099 389.985 101.471 389.434 101.965Z" fill="#121212"/>
<path d="M34.8288 17.2612C30.5512 16.8771 27.3224 12.9909 27.8381 8.47965C28.2542 4.79518 29.6605 1.54684 32.0454 -1.07005C35.8836 -5.2753 40.8703 -3.86269 42.5052 1.83327C44.1225 7.47716 43.1908 11.6433 39.3174 14.8331C38.0048 15.9137 36.3348 16.467 34.8288 17.2612Z" fill="#121212"/>
<path d="M107.631 149.252C107.385 153.776 106.436 157.981 104.66 161.952C104.52 162.271 104.344 162.57 104.168 162.863C102.732 165.246 100.635 166.392 98.6599 165.864C96.5855 165.311 95.0912 163.215 95.0443 160.24C95.0092 158.255 95.3373 156.25 95.6127 154.277C95.9409 151.947 96.4448 149.649 96.7788 147.318C97.3238 143.536 99.2107 141.349 102.035 141.368C104.813 141.381 106.94 143.679 107.45 147.253C107.555 147.937 107.578 148.653 107.631 149.252Z" fill="#121212"/>
<path d="M204.534 260.925C204.704 259.109 204.734 257.26 205.079 255.49C205.624 252.651 207.646 250.946 209.961 251.102C212.217 251.252 214.016 253.107 214.256 255.984C214.684 261.094 214.936 266.231 215.246 271.354C215.275 271.816 215.211 272.298 215.141 272.76C214.719 275.507 213.084 277.33 210.886 277.518C208.601 277.714 206.521 276.19 205.999 273.411C205.39 270.189 205.15 266.875 204.781 263.601C204.681 262.722 204.699 261.83 204.663 260.945C204.616 260.938 204.575 260.932 204.534 260.925Z" fill="#121212"/>
<path d="M59.364 223.182C58.8835 222.974 57.9459 222.713 57.1372 222.206C50.3457 217.922 45.0954 211.81 40.6302 204.799C39.3879 202.846 39.634 200.639 41.0638 199.383C42.4936 198.126 44.4567 198.393 45.8689 200.261C50.375 206.224 55.5668 211.321 61.3328 215.722C63.0908 217.063 63.6826 218.827 63.1142 220.578C62.5751 222.277 61.4266 223.078 59.364 223.182Z" fill="#121212"/>
<path d="M307.128 33.633C306.952 38.984 305.962 43.6254 304.368 48.1106C302.399 53.6438 298.573 56.8726 293.592 58.5782C291.441 59.3203 290.216 58.0248 290.873 55.6032C291.166 54.5226 291.869 53.5592 292.484 52.6153C292.853 52.049 293.351 51.5542 293.873 51.1571C299.422 46.9258 300.998 40.5594 301.573 33.6396C301.655 32.6436 301.696 31.6215 301.907 30.6581C302.211 29.2715 303.026 28.3342 304.374 28.3211C305.727 28.3081 306.571 29.2195 306.841 30.6321C307.063 31.7713 307.069 32.9625 307.128 33.633Z" fill="#121212"/>
<path d="M240.93 112.557C240.484 112.446 239.629 112.335 238.843 112.01C235.509 110.636 232.181 109.256 228.894 107.765C226.649 106.743 225.788 104.953 226.368 102.974C226.948 100.982 228.858 99.739 231.044 100.501C234.935 101.848 238.732 103.521 242.559 105.083C242.945 105.24 243.285 105.572 243.613 105.865C245.061 107.167 245.559 108.807 245.002 110.376C244.486 111.808 243.092 112.648 240.93 112.557Z" fill="#121212"/>
<path d="M316.269 171.671C312.173 171.827 308.962 168.162 309.87 164.23C310.837 160.045 315.431 157.922 318.824 159.999C321.133 161.412 322.762 163.241 322.662 166.359C322.568 169.321 320.822 171.248 318.132 171.495C317.552 171.541 316.966 171.599 316.269 171.671Z" fill="#121212"/>
<path d="M284.421 86.4917C283.753 86.4005 283.12 86.5112 282.727 86.2248C281.983 85.6845 280.964 85.0075 280.823 84.2133C280.659 83.3215 281.175 82.1107 281.702 81.2839C282.077 80.685 282.927 80.3075 283.624 80.1382C286.513 79.4157 289.408 78.6801 292.338 78.1918C294.277 77.8664 295.508 78.7647 295.801 80.1903C296.105 81.6875 295.015 83.7576 293.433 84.2979C291.412 84.9879 289.343 85.5217 287.275 86.0425C286.302 86.2899 285.288 86.3615 284.421 86.4917Z" fill="#121212"/>
<path d="M235.269 114.848C237.297 114.887 238.597 115.59 238.844 116.912C239.084 118.207 238.129 119.639 236.248 120.205C233.945 120.909 231.589 121.416 229.233 121.839C227.64 122.126 226.433 121.195 226.128 119.769C225.794 118.194 226.538 116.541 228.19 116.104C230.511 115.499 232.908 115.252 235.269 114.848Z" fill="#121212"/>
<path d="M18.2985 191.317C16.271 191.311 14.7299 189.599 14.7592 187.392C14.7944 184.905 16.6578 182.829 18.8318 182.861C20.9179 182.894 22.6055 184.879 22.5879 187.281C22.5703 189.501 20.6366 191.317 18.2985 191.317Z" fill="#121212"/>
<path d="M244.41 41.0736C242.746 41.1452 241.779 39.7522 242.219 38.1638C242.529 37.0506 243.098 36.0351 243.549 34.9676C244.246 33.3206 244.938 31.6671 245.629 30.0137C246.145 28.7703 246.989 28.1649 248.19 28.6401C249.274 29.0698 249.649 30.1894 249.262 31.2375C248.131 34.271 246.871 37.2459 245.57 40.1948C245.354 40.6831 244.656 40.8979 244.41 41.0736Z" fill="#121212"/>
<path d="M1.24647 29.6492C3.19193 29.6297 4.69203 31.1725 4.68617 33.1774C4.68031 35.2085 3.07473 36.9205 1.17029 36.927C-0.640384 36.94 -2.2108 35.1759 -2.26354 33.0668C-2.31628 31.1269 -0.822035 29.6687 1.24647 29.6492Z" fill="#121212"/>
<path d="M403.363 5.11425C405.103 5.09472 406.363 6.37062 406.41 8.20635C406.451 10.0226 405.144 11.5328 403.533 11.5263C401.845 11.5198 400.216 9.76867 400.193 7.93294C400.164 6.12975 401.283 5.14029 403.363 5.11425Z" fill="#121212"/>
<path d="M148.673 21.5316C151.369 21.6162 154.375 22.5666 156.695 25.3528C158.787 27.872 159.068 31.2571 157.492 33.8219C156.642 35.202 155.547 35.5535 154.047 35.2801C148.907 34.3297 143.897 35.0457 139.075 37.2069C138.518 37.4543 138.02 38.0076 137.622 38.5349C136.748 39.6936 136.098 39.3551 135.535 38.2615C134.504 36.2435 134.504 34.0693 134.979 31.895C136.227 26.1535 142.052 21.5707 148.673 21.5316Z" fill="#121212"/>
</g>
<path fill-rule="evenodd" clip-rule="evenodd" d="M192 131.322C208.527 131.322 221.776 117.902 221.776 101.161C221.776 84.4198 208.527 71 192 71C175.473 71 162.224 84.4198 162.224 101.161C162.224 117.902 175.473 131.322 192 131.322ZM192 146.091C167.725 146.091 147 149.972 147 165.479C147 180.979 167.599 185 192 185C216.269 185 237 181.119 237 165.612C237 150.106 216.401 146.091 192 146.091ZM254.388 113.527H261.606C264.577 113.527 267 115.984 267 118.997C267 122.01 264.577 124.467 261.606 124.467H254.388V131.53C254.388 134.543 251.971 137 248.994 137C246.023 137 243.6 134.543 243.6 131.53V124.467H236.394C233.416 124.467 231 122.01 231 118.997C231 115.984 233.416 113.527 236.394 113.527H243.6V106.47C243.6 103.457 246.023 101 248.994 101C251.971 101 254.388 103.457 254.388 106.47V113.527Z" fill="#604AF3"/>
<path d="M254.388 113.527H251.888V116.027H254.388V113.527ZM254.388 124.467V121.967H251.888V124.467H254.388ZM243.6 124.467H246.1V121.967H243.6V124.467ZM243.6 113.527V116.027H246.1V113.527H243.6ZM219.276 101.161C219.276 116.552 207.117 128.822 192 128.822V133.822C209.938 133.822 224.276 119.253 224.276 101.161H219.276ZM192 73.5C207.117 73.5 219.276 85.7701 219.276 101.161H224.276C224.276 83.0695 209.938 68.5 192 68.5V73.5ZM164.724 101.161C164.724 85.7701 176.883 73.5 192 73.5V68.5C174.062 68.5 159.724 83.0695 159.724 101.161H164.724ZM192 128.822C176.883 128.822 164.724 116.552 164.724 101.161H159.724C159.724 119.253 174.062 133.822 192 133.822V128.822ZM149.5 165.479C149.5 162.221 150.565 159.673 152.464 157.593C154.414 155.457 157.351 153.7 161.231 152.327C169.027 149.567 179.92 148.591 192 148.591V143.591C179.805 143.591 168.199 144.556 159.563 147.613C155.227 149.148 151.466 151.27 148.771 154.222C146.025 157.231 144.5 160.983 144.5 165.479H149.5ZM192 182.5C179.862 182.5 168.971 181.49 161.194 178.699C157.324 177.31 154.397 175.539 152.454 173.391C150.561 171.298 149.5 168.739 149.5 165.479H144.5C144.5 169.968 146.014 173.725 148.746 176.745C151.428 179.71 155.176 181.851 159.505 183.405C168.128 186.5 179.738 187.5 192 187.5V182.5ZM234.5 165.612C234.5 168.87 233.434 171.418 231.535 173.498C229.585 175.635 226.647 177.391 222.766 178.764C214.97 181.524 204.077 182.5 192 182.5V187.5C204.192 187.5 215.798 186.535 224.435 183.478C228.771 181.943 232.533 179.821 235.228 176.869C237.974 173.861 239.5 170.108 239.5 165.612H234.5ZM192 148.591C204.139 148.591 215.029 149.6 222.806 152.39C226.676 153.779 229.603 155.549 231.546 157.697C233.439 159.791 234.5 162.35 234.5 165.612H239.5C239.5 161.122 237.986 157.364 235.254 154.344C232.572 151.378 228.824 149.237 224.495 147.684C215.871 144.59 204.262 143.591 192 143.591V148.591ZM261.606 111.027H254.388V116.027H261.606V111.027ZM269.5 118.997C269.5 114.636 265.991 111.027 261.606 111.027V116.027C263.164 116.027 264.5 117.332 264.5 118.997H269.5ZM261.606 126.967C265.991 126.967 269.5 123.358 269.5 118.997H264.5C264.5 120.662 263.164 121.967 261.606 121.967V126.967ZM254.388 126.967H261.606V121.967H254.388V126.967ZM256.888 131.53V124.467H251.888V131.53H256.888ZM248.994 139.5C253.387 139.5 256.888 135.889 256.888 131.53H251.888C251.888 133.198 250.556 134.5 248.994 134.5V139.5ZM241.1 131.53C241.1 135.891 244.609 139.5 248.994 139.5V134.5C247.436 134.5 246.1 133.196 246.1 131.53H241.1ZM241.1 124.467V131.53H246.1V124.467H241.1ZM236.394 126.967H243.6V121.967H236.394V126.967ZM228.5 118.997C228.5 123.356 232.001 126.967 236.394 126.967V121.967C234.832 121.967 233.5 120.664 233.5 118.997H228.5ZM236.394 111.027C232.001 111.027 228.5 114.638 228.5 118.997H233.5C233.5 117.33 234.832 116.027 236.394 116.027V111.027ZM243.6 111.027H236.394V116.027H243.6V111.027ZM241.1 106.47V113.527H246.1V106.47H241.1ZM248.994 98.5C244.609 98.5 241.1 102.109 241.1 106.47H246.1C246.1 104.804 247.436 103.5 248.994 103.5V98.5ZM256.888 106.47C256.888 102.111 253.387 98.5 248.994 98.5V103.5C250.556 103.5 251.888 104.802 251.888 106.47H256.888ZM256.888 113.527V106.47H251.888V113.527H256.888Z" fill="white"/>
</g>
<defs>
<clipPath id="clip0_1_19955">
<rect width="414" height="256" fill="white"/>
</clipPath>
</defs>
</svg>
