<svg width="175" height="70" viewBox="0 0 145 40" fill="none" xmlns="http://www.w3.org/2000/svg">
<g clip-path="url(#clip0_1_19604)">
<path d="M24.2266 22.4861C23.532 20.638 22.153 19.1268 20.3734 18.2634C18.5938 17.4 16.5489 17.25 14.6593 17.8442L6.22495 20.4906C1.45014 21.886 1.03032 28.7782 5.60473 30.7205C8.05782 31.8304 10.63 31.5469 13.2232 32.8634C15.957 34.1315 17.4375 36.1989 19.7668 37.5917C24.1058 39.8209 29.1475 35.2513 27.3264 30.7287L24.2266 22.4861Z" fill="#FAFAFA"/>
<path d="M38.0744 19.32C36.0355 17.7838 33.0866 19.4513 31.5829 21.39C26.971 27.4122 32.8307 31.8298 37.5157 26.091C39.4933 23.6168 39.7383 20.6374 38.0744 19.32Z" fill="#FAFAFA"/>
<path d="M26.7407 18.2855C28.9841 19.374 32.0537 17.7138 33.5814 14.5913C37.0351 6.9646 29.3484 3.2352 25.4519 10.647C23.9242 13.7696 24.5032 17.1999 26.7407 18.2855Z" fill="#FAFAFA"/>
<path d="M10.9907 11.3897C11.6029 9.01853 11.0982 5.67534 8.62671 5.02317C3.93116 4.04976 1.35253 13.7994 5.42632 15.8051C7.77798 16.8515 10.1581 14.6891 10.9907 11.3897Z" fill="#FAFAFA"/>
<path d="M16.4239 13.2765C18.6614 14.3621 21.7309 12.7019 23.2586 9.57936C26.7182 1.95563 19.0315 -1.77377 15.1292 5.63514C13.6014 8.7577 14.1804 12.188 16.4239 13.2765Z" fill="#FAFAFA"/>
</g>
<path d="M49.8906 28V12H53.2734V25.2109H60.1328V28H49.8906ZM62.3105 28V16H65.6387V28H62.3105ZM63.9824 14.4531C63.4876 14.4531 63.0632 14.2891 62.709 13.9609C62.36 13.6276 62.1855 13.2292 62.1855 12.7656C62.1855 12.3073 62.36 11.9141 62.709 11.5859C63.0632 11.2526 63.4876 11.0859 63.9824 11.0859C64.4772 11.0859 64.8991 11.2526 65.248 11.5859C65.6022 11.9141 65.7793 12.3073 65.7793 12.7656C65.7793 13.2292 65.6022 13.6276 65.248 13.9609C64.8991 14.2891 64.4772 14.4531 63.9824 14.4531ZM71.6328 21.0625V28H68.3047V16H71.4766V18.1172H71.6172C71.8828 17.4193 72.3281 16.8672 72.9531 16.4609C73.5781 16.0495 74.3359 15.8438 75.2266 15.8438C76.0599 15.8438 76.7865 16.026 77.4063 16.3906C78.026 16.7552 78.5078 17.276 78.8516 17.9531C79.1953 18.625 79.3672 19.4271 79.3672 20.3594V28H76.0391V20.9531C76.0443 20.2187 75.8568 19.6458 75.4766 19.2344C75.0964 18.8177 74.5729 18.6094 73.9063 18.6094C73.4583 18.6094 73.0625 18.7057 72.7188 18.8984C72.3802 19.0911 72.1146 19.3724 71.9219 19.7422C71.7344 20.1068 71.638 20.5469 71.6328 21.0625ZM85.0059 24.5469L85.0137 20.5547H85.498L89.3418 16H93.1621L87.998 22.0313H87.209L85.0059 24.5469ZM81.9902 28V12H85.3184V28H81.9902ZM89.4902 28L85.959 22.7734L88.1777 20.4219L93.3887 28H89.4902ZM106.176 16L101.98 28H98.2305L94.0352 16H97.5508L100.043 24.5859H100.168L102.652 16H106.176ZM107.879 28V16H111.207V28H107.879ZM109.551 14.4531C109.056 14.4531 108.632 14.2891 108.277 13.9609C107.928 13.6276 107.754 13.2292 107.754 12.7656C107.754 12.3073 107.928 11.9141 108.277 11.5859C108.632 11.2526 109.056 11.0859 109.551 11.0859C110.046 11.0859 110.467 11.2526 110.816 11.5859C111.171 11.9141 111.348 12.3073 111.348 12.7656C111.348 13.2292 111.171 13.6276 110.816 13.9609C110.467 14.2891 110.046 14.4531 109.551 14.4531ZM120.256 16V18.5H113.029V16H120.256ZM114.67 13.125H117.998V24.3125C117.998 24.6198 118.045 24.8594 118.139 25.0312C118.232 25.1979 118.363 25.3151 118.529 25.3828C118.701 25.4505 118.899 25.4844 119.123 25.4844C119.279 25.4844 119.436 25.4714 119.592 25.4453C119.748 25.4141 119.868 25.3906 119.951 25.375L120.475 27.8516C120.308 27.9036 120.074 27.9635 119.771 28.0313C119.469 28.1042 119.102 28.1484 118.67 28.1641C117.868 28.1953 117.165 28.0885 116.561 27.8437C115.962 27.599 115.495 27.2187 115.162 26.7031C114.829 26.1875 114.665 25.5365 114.67 24.75V13.125ZM127.764 28.2344C126.529 28.2344 125.467 27.9844 124.576 27.4844C123.691 26.9792 123.008 26.2656 122.529 25.3437C122.05 24.4167 121.811 23.3203 121.811 22.0547C121.811 20.8203 122.05 19.737 122.529 18.8047C123.008 17.8724 123.683 17.1458 124.553 16.625C125.428 16.1042 126.454 15.8438 127.631 15.8438C128.423 15.8438 129.16 15.9714 129.842 16.2266C130.529 16.4766 131.128 16.8542 131.639 17.3594C132.154 17.8646 132.555 18.5 132.842 19.2656C133.128 20.026 133.271 20.9167 133.271 21.9375V22.8516H123.139V20.7891H130.139C130.139 20.3099 130.035 19.8854 129.826 19.5156C129.618 19.1458 129.329 18.8568 128.959 18.6484C128.594 18.4349 128.17 18.3281 127.686 18.3281C127.18 18.3281 126.732 18.4453 126.342 18.6797C125.956 18.9089 125.654 19.2187 125.436 19.6094C125.217 19.9948 125.105 20.4245 125.1 20.8984V22.8594C125.1 23.4531 125.209 23.9661 125.428 24.3984C125.652 24.8307 125.967 25.1641 126.373 25.3984C126.779 25.6328 127.261 25.75 127.818 25.75C128.188 25.75 128.527 25.6979 128.834 25.5938C129.141 25.4896 129.404 25.3333 129.623 25.125C129.842 24.9167 130.008 24.6615 130.123 24.3594L133.201 24.5625C133.045 25.3021 132.725 25.9479 132.24 26.5C131.761 27.0469 131.141 27.474 130.381 27.7813C129.626 28.0833 128.753 28.2344 127.764 28.2344Z" fill="#FAFAFA"/>
<defs>
<clipPath id="clip0_1_19604">
<rect width="40" height="40" fill="white" transform="translate(0.5)"/>
</clipPath>
</defs>
</svg>
